<svg width="56" height="56" viewBox="0 0 56 56" fill="none" xmlns="http://www.w3.org/2000/svg">
<rect width="56" height="56" rx="28" fill="#E7F8F8"/>
<path opacity="0.2" d="M40 20V35C40 35.5304 39.7893 36.0391 39.4142 36.4142C39.0391 36.7893 38.5304 37 38 37H16C16.5304 37 17.0391 36.7893 17.4142 36.4142C17.7893 36.0391 18 35.5304 18 35V20C18 19.7348 18.1054 19.4804 18.2929 19.2929C18.4804 19.1054 18.7348 19 19 19H39C39.2652 19 39.5196 19.1054 39.7071 19.2929C39.8946 19.4804 40 19.7348 40 20Z" fill="#0BBBC5"/>
<path d="M23 26C23 25.7348 23.1054 25.4804 23.2929 25.2929C23.4804 25.1054 23.7348 25 24 25H34C34.2652 25 34.5196 25.1054 34.7071 25.2929C34.8946 25.4804 35 25.7348 35 26C35 26.2652 34.8946 26.5196 34.7071 26.7071C34.5196 26.8946 34.2652 27 34 27H24C23.7348 27 23.4804 26.8946 23.2929 26.7071C23.1054 26.5196 23 26.2652 23 26ZM24 31H34C34.2652 31 34.5196 30.8946 34.7071 30.7071C34.8946 30.5196 35 30.2652 35 30C35 29.7348 34.8946 29.4804 34.7071 29.2929C34.5196 29.1054 34.2652 29 34 29H24C23.7348 29 23.4804 29.1054 23.2929 29.2929C23.1054 29.4804 23 29.7348 23 30C23 30.2652 23.1054 30.5196 23.2929 30.7071C23.4804 30.8946 23.7348 31 24 31ZM41 20V35C41 35.7956 40.6839 36.5587 40.1213 37.1213C39.5587 37.6839 38.7956 38 38 38H16C15.2067 38 14.4457 37.6858 13.8835 37.1262C13.3213 36.5665 13.0036 35.807 13 35.0138V23C13 22.7348 13.1054 22.4804 13.2929 22.2929C13.4804 22.1054 13.7348 22 14 22C14.2652 22 14.5196 22.1054 14.7071 22.2929C14.8946 22.4804 15 22.7348 15 23V35C15 35.2652 15.1054 35.5196 15.2929 35.7071C15.4804 35.8946 15.7348 36 16 36C16.2652 36 16.5196 35.8946 16.7071 35.7071C16.8946 35.5196 17 35.2652 17 35V20C17 19.4696 17.2107 18.9609 17.5858 18.5858C17.9609 18.2107 18.4696 18 19 18H39C39.5304 18 40.0391 18.2107 40.4142 18.5858C40.7893 18.9609 41 19.4696 41 20ZM39 20H19V35C19.0005 35.3407 18.9426 35.6789 18.8288 36H38C38.2652 36 38.5196 35.8946 38.7071 35.7071C38.8946 35.5196 39 35.2652 39 35V20Z" fill="#0BBBC5"/>
</svg>
