<svg width="252" height="15" viewBox="0 0 252 15" fill="none" xmlns="http://www.w3.org/2000/svg">
<path opacity="0.8" d="M2.93881 11.5572H5.24908C5.84242 11.5572 6.39158 11.4562 6.89656 11.2542C7.41416 11.0396 7.86233 10.7429 8.24106 10.3642C8.63242 9.98544 8.92909 9.54359 9.13108 9.03861C9.34569 8.53364 9.453 7.98447 9.453 7.39113C9.453 6.79778 9.34569 6.24862 9.13108 5.74364C8.91646 5.22604 8.61979 4.77788 8.24106 4.39915C7.86233 4.02041 7.41416 3.72374 6.89656 3.50913C6.39158 3.29451 5.84242 3.1872 5.24908 3.1872H2.93881V11.5572ZM0.193006 14V0.744382H5.28695C6.28428 0.744382 7.20586 0.914811 8.05169 1.25567C8.89753 1.5839 9.63606 2.05101 10.2673 2.65698C10.8985 3.26295 11.3908 3.96992 11.7443 4.77788C12.1104 5.58584 12.2935 6.45692 12.2935 7.39113C12.2935 8.33796 12.1167 9.20904 11.7633 10.0044C11.4098 10.7997 10.9111 11.5004 10.2673 12.1063C9.63606 12.6997 8.89753 13.1668 8.05169 13.5076C7.20586 13.8359 6.28428 14 5.28695 14H0.193006ZM12.1651 14L17.6188 0.744382H20.7812L26.1782 14H23.2051L21.8606 10.5157H16.3879L15.0245 14H12.1651ZM17.2401 8.31902H21.0274L19.1337 3.43338L17.2401 8.31902ZM27.3034 14V0.744382H33.7797C34.6761 0.744382 35.4651 0.921123 36.1468 1.27461C36.8411 1.61547 37.3777 2.09519 37.7564 2.71379C38.1478 3.33238 38.3434 4.04566 38.3434 4.85362C38.3434 5.69946 38.1099 6.4443 37.6428 7.08814C37.1757 7.73199 36.5508 8.21171 35.7681 8.52732L38.7032 14H35.6355L33.0412 8.92499H30.0492V14H27.3034ZM30.0492 6.67154H33.5335C34.1521 6.67154 34.6445 6.50742 35.0106 6.17919C35.3893 5.85095 35.5787 5.42172 35.5787 4.8915C35.5787 4.36127 35.3893 3.93204 35.0106 3.60381C34.6445 3.27557 34.1521 3.11146 33.5335 3.11146H30.0492V6.67154ZM40.1559 14V0.744382H42.9017V6.67154L48.6963 0.744382H52.0481L45.6096 7.05027L52.351 14H48.6773L42.9017 7.84561V14H40.1559ZM52.8974 14V0.744382H59.5441C60.4152 0.744382 61.179 0.921123 61.8355 1.27461C62.5046 1.62809 63.0285 2.12044 63.4072 2.75166C63.7859 3.37026 63.9753 4.08985 63.9753 4.91043C63.9753 5.69315 63.7859 6.3938 63.4072 7.0124C63.0285 7.63099 62.5046 8.11703 61.8355 8.47051C61.1664 8.824 60.4026 9.00074 59.5441 9.00074H55.6432V14H52.8974ZM55.6432 6.72835H59.2412C59.8345 6.72835 60.3079 6.56423 60.6614 6.236C61.0275 5.90776 61.2106 5.47222 61.2106 4.92937C61.2106 4.3739 61.0275 3.93204 60.6614 3.60381C60.3079 3.27557 59.8345 3.11146 59.2412 3.11146H55.6432V6.72835ZM62.5579 14L68.0116 0.744382H71.174L76.571 14H73.5979L72.2534 10.5157H66.7807L65.4173 14H62.5579ZM67.6329 8.31902H71.4202L69.5265 3.43338L67.6329 8.31902ZM78.8905 14V3.16827H74.4215V0.744382H86.0864V3.16827H81.6363V14H78.8905ZM91.4286 14V3.16827H86.9596V0.744382H98.6245V3.16827H94.1744V14H91.4286ZM100.165 14V0.744382H110.353V3.13039H102.911V6.16025H107.815V8.47051H102.911V11.614H110.429V14H100.165ZM112.37 14V0.744382H118.846C119.743 0.744382 120.532 0.921123 121.214 1.27461C121.908 1.61547 122.444 2.09519 122.823 2.71379C123.215 3.33238 123.41 4.04566 123.41 4.85362C123.41 5.69946 123.177 6.4443 122.71 7.08814C122.242 7.73199 121.618 8.21171 120.835 8.52732L123.77 14H120.702L118.108 8.92499H115.116V14H112.37ZM115.116 6.67154H118.6C119.219 6.67154 119.711 6.50742 120.077 6.17919C120.456 5.85095 120.645 5.42172 120.645 4.8915C120.645 4.36127 120.456 3.93204 120.077 3.60381C119.711 3.27557 119.219 3.11146 118.6 3.11146H115.116V6.67154ZM125.223 14V0.744382H127.836L134.426 9.30372V0.744382H137.001V14H134.577L127.817 5.13767V14H125.223ZM145.962 11.5572H148.272C148.866 11.5572 149.415 11.4562 149.92 11.2542C150.437 11.0396 150.885 10.7429 151.264 10.3642C151.656 9.98544 151.952 9.54359 152.154 9.03861C152.369 8.53364 152.476 7.98447 152.476 7.39113C152.476 6.79778 152.369 6.24862 152.154 5.74364C151.94 5.22604 151.643 4.77788 151.264 4.39915C150.885 4.02041 150.437 3.72374 149.92 3.50913C149.415 3.29451 148.866 3.1872 148.272 3.1872H145.962V11.5572ZM143.216 14V0.744382H148.31C149.307 0.744382 150.229 0.914811 151.075 1.25567C151.921 1.5839 152.659 2.05101 153.29 2.65698C153.922 3.26295 154.414 3.96992 154.767 4.77788C155.134 5.58584 155.317 6.45692 155.317 7.39113C155.317 8.33796 155.14 9.20904 154.786 10.0044C154.433 10.7997 153.934 11.5004 153.29 12.1063C152.659 12.6997 151.921 13.1668 151.075 13.5076C150.229 13.8359 149.307 14 148.31 14H143.216ZM157.197 14V0.744382H167.385V3.13039H159.942V6.16025H164.847V8.47051H159.942V11.614H167.46V14H157.197ZM173.019 14V3.16827H168.55V0.744382H180.215V3.16827H175.765V14H173.019ZM181.755 14V0.744382H191.943V3.13039H184.501V6.16025H189.405V8.47051H184.501V11.614H192.019V14H181.755ZM199.717 14.1894C198.732 14.1894 197.81 14.0189 196.952 13.6781C196.093 13.3246 195.342 12.8386 194.698 12.22C194.067 11.6014 193.569 10.8818 193.202 10.0612C192.849 9.22798 192.672 8.33165 192.672 7.37219C192.672 6.40011 192.849 5.50378 193.202 4.68319C193.569 3.84998 194.074 3.12408 194.717 2.50549C195.361 1.88689 196.106 1.40716 196.952 1.0663C197.81 0.712821 198.732 0.53608 199.717 0.53608C200.449 0.53608 201.156 0.637075 201.838 0.839065C202.519 1.04106 203.151 1.3251 203.731 1.69121C204.325 2.05732 204.83 2.49917 205.246 3.01677L203.39 4.85362C202.911 4.26028 202.355 3.81211 201.724 3.50913C201.105 3.20614 200.436 3.05465 199.717 3.05465C199.123 3.05465 198.568 3.16827 198.05 3.39551C197.533 3.61012 197.084 3.91311 196.706 4.30446C196.327 4.68319 196.03 5.13767 195.816 5.6679C195.601 6.1855 195.494 6.7536 195.494 7.37219C195.494 7.97816 195.601 8.54626 195.816 9.07648C196.03 9.59409 196.333 10.0486 196.725 10.4399C197.116 10.8187 197.571 11.1153 198.088 11.3299C198.618 11.5446 199.193 11.6519 199.811 11.6519C200.506 11.6519 201.156 11.5067 201.762 11.2163C202.368 10.926 202.904 10.5094 203.371 9.9665L205.17 11.7465C204.754 12.2515 204.255 12.6871 203.674 13.0532C203.094 13.4193 202.462 13.7033 201.781 13.9053C201.112 14.0947 200.424 14.1894 199.717 14.1894ZM210.578 14V3.16827H206.109V0.744382H217.773V3.16827H213.323V14H210.578ZM219.314 14V0.744382H222.06V14H219.314ZM230.969 14.2083C229.984 14.2083 229.069 14.0379 228.223 13.697C227.377 13.3435 226.632 12.8575 225.988 12.2389C225.357 11.6077 224.858 10.8818 224.492 10.0612C224.139 9.22798 223.962 8.33165 223.962 7.37219C223.962 6.41274 224.139 5.52272 224.492 4.70213C224.858 3.86892 225.357 3.14302 225.988 2.52442C226.632 1.8932 227.377 1.40716 228.223 1.0663C229.069 0.712821 229.984 0.53608 230.969 0.53608C231.953 0.53608 232.869 0.712821 233.714 1.0663C234.573 1.40716 235.318 1.8932 235.949 2.52442C236.593 3.14302 237.091 3.86892 237.445 4.70213C237.798 5.52272 237.975 6.41274 237.975 7.37219C237.975 8.33165 237.798 9.22798 237.445 10.0612C237.091 10.8818 236.593 11.6077 235.949 12.2389C235.318 12.8575 234.573 13.3435 233.714 13.697C232.869 14.0379 231.953 14.2083 230.969 14.2083ZM230.969 11.6897C231.575 11.6897 232.13 11.5824 232.635 11.3678C233.14 11.1406 233.582 10.8376 233.961 10.4589C234.339 10.0675 234.636 9.60671 234.851 9.07648C235.065 8.54626 235.172 7.97816 235.172 7.37219C235.172 6.7536 235.065 6.1855 234.851 5.6679C234.636 5.13767 234.339 4.68319 233.961 4.30446C233.582 3.91311 233.14 3.61012 232.635 3.39551C232.13 3.16827 231.575 3.05465 230.969 3.05465C230.375 3.05465 229.826 3.16827 229.321 3.39551C228.816 3.61012 228.374 3.91311 227.996 4.30446C227.617 4.68319 227.32 5.13767 227.105 5.6679C226.891 6.1855 226.784 6.74728 226.784 7.35325C226.784 7.97185 226.891 8.54626 227.105 9.07648C227.32 9.60671 227.617 10.0675 227.996 10.4589C228.374 10.8376 228.816 11.1406 229.321 11.3678C229.826 11.5824 230.375 11.6897 230.969 11.6897ZM239.878 14V0.744382H242.491L249.081 9.30372V0.744382H251.656V14H249.232L242.472 5.13767V14H239.878Z" fill="#056785"/>
</svg>
