<svg width="552" height="250" viewBox="0 0 552 250" fill="none" xmlns="http://www.w3.org/2000/svg">
<rect x="0.5" y="0.5" width="551" height="249" rx="11.5" fill="#F8F9FA"/>
<rect x="0.5" y="0.5" width="551" height="249" rx="11.5" stroke="#F3F3F3"/>
<rect x="35" y="95" width="159" height="53" rx="8" fill="#333333"/>
<path d="M68.0293 128L73.5488 117.277V117.189H67.1504V115.273H75.9219V117.225L70.4023 128H68.0293ZM81.5602 114.184C83.9684 114.184 85.7614 115.678 85.779 117.77C85.7614 119.879 83.9684 121.355 81.5602 121.355C79.1345 121.355 77.3415 119.879 77.3415 117.77C77.3415 115.678 79.1345 114.184 81.5602 114.184ZM81.5602 115.801C80.2243 115.801 79.2399 116.557 79.2399 117.77C79.2399 119 80.2243 119.773 81.5602 119.773C82.8962 119.773 83.8805 119 83.8805 117.77C83.8805 116.557 82.8962 115.801 81.5602 115.801ZM90.2966 113.674V121.707H88.3278V113.674H90.2966ZM90.2966 122.393V126.541H81.7009V127.824H90.7712V129.371H79.7848V125.1H88.3454V123.922H79.7497V122.393H90.2966ZM111.03 122.674V124.256H104.702V129.547H102.769V124.256H96.5108V122.674H111.03ZM109.255 114.482V120.811H98.2862V114.482H109.255ZM100.202 116.047V119.281H107.304V116.047H100.202ZM126.425 126.102V127.719H111.905V126.102H115.755V123.482H113.628V118.297H122.768V116.346H113.592V114.764H124.702V119.861H115.579V121.9H125.071V123.482H122.751V126.102H126.425ZM117.653 126.102H120.835V123.482H117.653V126.102ZM136.225 118.525C136.225 120.986 137.244 123.465 139.459 124.66L138.369 126.102C136.893 125.319 135.891 123.922 135.328 122.252C134.766 124.054 133.764 125.592 132.27 126.471L131.127 124.994C133.377 123.693 134.379 121.039 134.379 118.525V118.033H131.672V116.451H134.379V114.236H136.225V116.451H138.879V118.033H136.225V118.525ZM145.049 113.674V129.564H143.186V113.674H145.049ZM141.815 113.973V128.791H139.969V121.391H137.895V119.773H139.969V113.973H141.815ZM160.056 113.674V123.289H158.105V120.002H155.838V118.385H158.105V113.674H160.056ZM160.056 124.01V129.371H149.492V124.01H160.056ZM151.443 125.557V127.789H158.14V125.557H151.443ZM156.101 115.15V116.732H146.785V115.15H150.476V113.551H152.41V115.15H156.101ZM151.443 117.348C153.658 117.348 155.205 118.525 155.222 120.195C155.205 121.918 153.658 123.043 151.443 123.043C149.246 123.043 147.681 121.918 147.681 120.195C147.681 118.525 149.246 117.348 151.443 117.348ZM151.443 118.824C150.301 118.824 149.545 119.352 149.545 120.195C149.545 121.074 150.301 121.584 151.443 121.584C152.586 121.584 153.342 121.074 153.342 120.195C153.342 119.352 152.586 118.824 151.443 118.824Z" fill="white"/>
<path d="M48.1477 160.904H47.4836L47.5422 159.391L46.2531 160.201L45.9211 159.625L47.2688 158.922L45.9211 158.209L46.2531 157.633L47.5422 158.443L47.4836 156.93H48.1477L48.0891 158.443L49.3781 157.633L49.7102 158.209L48.3723 158.922L49.7102 159.625L49.3781 160.201L48.0891 159.391L48.1477 160.904ZM50.9578 164L54.2 157.76V157.711H50.4598V156.93H55.1082V157.75L51.8758 164H50.9578ZM58.2992 156.432C59.598 156.441 60.5453 157.223 60.5453 158.355C60.5453 159.488 59.598 160.27 58.2992 160.27C56.9809 160.27 56.0434 159.488 56.0434 158.355C56.0434 157.223 56.9809 156.441 58.2992 156.432ZM58.2992 157.076C57.4301 157.076 56.7855 157.604 56.7953 158.355C56.7855 159.117 57.4301 159.645 58.2992 159.645C59.1586 159.645 59.8031 159.117 59.8031 158.355C59.8031 157.604 59.1586 157.076 58.2992 157.076ZM63.0063 156.109V160.572H62.2445V156.109H63.0063ZM63.0063 160.992V163.082H58.1332V164.059H63.3188V164.674H57.3813V162.506H62.2445V161.607H57.3617V160.992H63.0063ZM74.7301 161.158V161.793H71.107V164.791H70.3551V161.793H66.7809V161.158H74.7301ZM73.6949 156.598V159.977H67.8063V156.598H73.6949ZM68.5582 157.223V159.371H72.9332V157.223H68.5582ZM83.2824 163.072V163.717H75.3332V163.072H77.5695V161.422H76.3293V158.746H81.5246V157.389H76.3098V156.754H82.2766V159.381H77.091V160.787H82.4816V161.422H81.1242V163.072H83.2824ZM78.3215 163.072H80.3723V161.422H78.3215V163.072ZM88.8246 158.785C88.8246 160.182 89.5375 161.607 90.7191 162.242L90.2797 162.818C89.4154 162.35 88.7904 161.451 88.473 160.406C88.1605 161.52 87.5404 162.486 86.6762 163.014L86.2172 162.428C87.3988 161.744 88.0922 160.221 88.102 158.785V158.355H86.4516V157.721H88.102V156.432H88.8344V157.721H90.4555V158.355H88.8246V158.785ZM93.7074 156.109V164.791H92.975V156.109H93.7074ZM91.9496 156.324V164.342H91.227V160.191H89.8598V159.537H91.227V156.324H91.9496ZM102.025 156.109V161.373H101.254V159.391H99.7793V158.756H101.254V156.109H102.025ZM102.025 161.842V164.674H96.3516V161.842H102.025ZM97.1133 162.457V164.049H101.273V162.457H97.1133ZM99.9063 157.027V157.652H94.8379V157.027H96.9961V156.031H97.7481V157.027H99.9063ZM97.3672 158.102C98.5488 158.102 99.3789 158.736 99.3887 159.645C99.3789 160.582 98.5488 161.197 97.3672 161.197C96.1856 161.197 95.3555 160.582 95.3555 159.645C95.3555 158.736 96.1856 158.102 97.3672 158.102ZM97.3672 158.697C96.6152 158.697 96.0879 159.088 96.0879 159.645C96.0879 160.221 96.6152 160.602 97.3672 160.611C98.1191 160.602 98.6465 160.221 98.6465 159.645C98.6465 159.088 98.1191 158.697 97.3672 158.697ZM113.232 157.105V157.74H106.191V157.105H109.355V156.061H110.107V157.105H113.232ZM113.73 161.734V162.369H110.107V164.811H109.355V162.369H105.78V161.734H113.73ZM109.736 158.238C111.503 158.238 112.568 158.756 112.568 159.693C112.568 160.611 111.503 161.129 109.736 161.139C107.958 161.129 106.894 160.611 106.904 159.693C106.894 158.756 107.958 158.238 109.736 158.238ZM109.736 158.824C108.437 158.824 107.685 159.146 107.695 159.693C107.685 160.23 108.437 160.543 109.736 160.543C111.015 160.543 111.767 160.23 111.777 159.693C111.767 159.146 111.015 158.824 109.736 158.824ZM119.672 158.775C119.663 160.172 120.668 161.705 121.928 162.301L121.489 162.906C120.512 162.433 119.687 161.397 119.301 160.221C118.901 161.5 118.027 162.623 117.055 163.121L116.586 162.516C117.836 161.91 118.911 160.26 118.92 158.775V157.643H116.899V157.008H121.625V157.643H119.672V158.775ZM123.452 156.109V159.625H124.907V160.279H123.452V164.791H122.69V156.109H123.452ZM133.195 160.406V161.021H125.275V160.406H128.859V159.391H126.281V156.52H132.209V157.135H127.033V158.766H132.268V159.391H129.602V160.406H133.195ZM129.23 161.656C131.096 161.656 132.209 162.223 132.219 163.219C132.209 164.225 131.096 164.781 129.23 164.791C127.355 164.781 126.232 164.225 126.232 163.219C126.232 162.223 127.355 161.656 129.23 161.656ZM129.23 162.262C127.834 162.262 127.004 162.623 127.014 163.219C127.004 163.824 127.834 164.176 129.23 164.176C130.607 164.176 131.447 163.824 131.447 163.219C131.447 162.623 130.607 162.262 129.23 162.262ZM143.425 156.109V160.553H142.654V159.645H140.339V159.039H142.654V157.994H140.466C139.919 159.366 138.571 160.289 136.648 160.748L136.374 160.113C138.503 159.62 139.743 158.58 139.89 157.184H136.814V156.549H140.73C140.73 156.837 140.7 157.115 140.652 157.379H142.654V156.109H143.425ZM143.425 160.943V163.062H138.581V164.078H143.718V164.713H137.82V162.477H142.654V161.568H137.8V160.943H143.425ZM152.192 156.109V164.791H151.46V156.109H152.192ZM150.434 156.324V164.342H149.712V159.869H148.247V159.244H149.712V156.324H150.434ZM147.319 158.59C147.319 160.094 147.993 161.588 149.194 162.281L148.725 162.848C147.871 162.335 147.265 161.397 146.968 160.289C146.65 161.485 146.02 162.506 145.151 163.053L144.663 162.477C145.874 161.754 146.577 160.172 146.577 158.59V157.77H144.907V157.135H148.911V157.77H147.319V158.59ZM162.891 156.119V161.109H162.119V156.119H162.891ZM155.752 160.26C156.489 160.26 157.349 160.255 158.242 160.221V159.293H156.543V156.549H160.664V157.184H157.314V158.678H160.742V159.293H159.014V160.191C159.819 160.157 160.635 160.089 161.396 159.986L161.445 160.543C159.541 160.865 157.432 160.895 155.869 160.895L155.752 160.26ZM157.93 161.5V162.428H162.139V161.5H162.891V164.674H157.168V161.5H157.93ZM157.93 164.049H162.139V163.023H157.93V164.049ZM171.423 156.109V164.791H170.662V156.109H171.423ZM165.584 156.969V161.891C166.907 161.886 168.279 161.778 169.734 161.471L169.841 162.125C168.298 162.447 166.921 162.555 165.535 162.555H164.832V156.969H165.584ZM179.527 156.109V159.547H180.982V160.191H179.527V164.811H178.765V156.109H179.527ZM177.241 156.959V157.594H173.95V161.988C175.523 161.988 176.636 161.915 177.925 161.676L178.023 162.34C176.665 162.584 175.523 162.633 173.872 162.633H173.189V156.959H177.241ZM182.268 164.059C181.927 164.059 181.634 163.775 181.643 163.424C181.634 163.082 181.927 162.799 182.268 162.799C182.61 162.799 182.893 163.082 182.893 163.424C182.893 163.775 182.61 164.059 182.268 164.059Z" fill="#A1A1A1"/>
<path d="M365.037 139.98C362.446 138.685 359.006 138 355.09 138C351.174 138 347.734 138.685 345.142 139.98C342.551 141.275 341.09 143.097 341.09 145L341.09 151C341.09 152.902 342.567 154.731 345.142 156.02C347.717 157.308 351.174 158 355.09 158C359.006 158 362.446 157.315 365.037 156.02C367.629 154.725 369.09 152.902 369.09 151L369.09 145C369.09 143.097 367.612 141.268 365.037 139.98ZM354.09 151.98L354.09 155.98C351.715 155.902 349.715 155.552 348.09 155.043L348.09 151.131C350.049 151.653 352.063 151.938 354.09 151.982L354.09 151.98ZM356.09 151.98C358.117 151.936 360.131 151.65 362.09 151.128L362.09 155.042C360.465 155.551 358.465 155.901 356.09 155.978L356.09 151.98ZM343.09 151L343.09 148.691C343.719 149.213 344.408 149.659 345.142 150.02C345.446 150.171 345.767 150.313 346.09 150.448L346.09 154.25C344.111 153.27 343.09 152.036 343.09 151ZM364.09 154.25L364.09 150.448C364.416 150.313 364.734 150.171 365.037 150.02C365.772 149.659 366.461 149.213 367.09 148.691L367.09 151C367.09 152.036 366.069 153.27 364.09 154.25Z" fill="#F9CB3F"/>
<path d="M364.09 154.25L364.09 150.448C364.416 150.313 364.734 150.171 365.037 150.02C365.772 149.659 366.461 149.213 367.09 148.691L367.09 151C367.09 152.036 366.069 153.27 364.09 154.25Z" fill="#E5BE44"/>
<path d="M356.09 151.98C358.117 151.936 360.131 151.65 362.09 151.128L362.09 155.042C360.465 155.551 358.465 155.901 356.09 155.978L356.09 151.98Z" fill="#E5BE44"/>
<path d="M354.09 151.982L354.09 155.98C351.715 155.902 349.715 155.552 348.09 155.043L348.09 151.131C350.049 151.653 352.063 151.938 354.09 151.982Z" fill="#E5BE44"/>
<path d="M343.09 151L343.09 148.691C343.719 149.213 344.408 149.659 345.142 150.02C345.446 150.171 345.767 150.313 346.09 150.448L346.09 154.25C344.111 153.27 343.09 152.036 343.09 151Z" fill="#E5BE44"/>
<mask id="path-6-inside-1_884_2745" fill="white">
<path d="M374.388 160.845C371.461 160.464 369.396 157.783 369.777 154.856L377.908 92.2997C378.288 89.3728 380.969 87.3084 383.896 87.6889L484.619 100.781C487.547 101.161 489.612 103.843 489.232 106.771L481.101 169.324C480.72 172.252 478.038 174.317 475.111 173.937L374.388 160.845Z"/>
</mask>
<path d="M374.388 160.845C371.461 160.464 369.396 157.783 369.777 154.856L377.908 92.2997C378.288 89.3728 380.969 87.3084 383.896 87.6889L484.619 100.781C487.547 101.161 489.612 103.843 489.232 106.771L481.101 169.324C480.72 172.252 478.038 174.317 475.111 173.937L374.388 160.845Z" fill="#0069DE"/>
<path d="M369.088 160.156L378.597 87L369.088 160.156ZM484.757 99.7206C488.271 100.177 490.748 103.396 490.292 106.909L482.161 169.462C481.704 172.976 478.486 175.453 474.973 174.997L475.248 172.876C477.591 173.181 479.736 171.529 480.041 169.187L488.171 106.633C488.476 104.291 486.824 102.146 484.482 101.841L484.757 99.7206ZM482.161 169.462C481.704 172.976 478.486 175.453 474.973 174.997L375.31 162.043C371.797 161.586 369.32 158.369 369.777 154.856C369.472 157.197 371.598 159.404 374.525 159.784L475.248 172.876C477.591 173.181 479.736 171.529 480.041 169.187L482.161 169.462ZM377.908 92.2997C378.364 88.7872 381.582 86.3099 385.094 86.7665L484.757 99.7206C488.271 100.177 490.748 103.396 490.292 106.909L488.171 106.633C488.476 104.291 486.824 102.146 484.482 101.841L383.758 88.7491C380.832 88.3687 378.212 89.9583 377.908 92.2997Z" fill="#0069DE" mask="url(#path-6-inside-1_884_2745)"/>
<path d="M374.389 160.845C371.463 160.464 369.398 157.783 369.779 154.856L377.91 92.2997C378.29 89.3728 380.971 87.3084 383.898 87.6889L484.621 100.781C487.549 101.161 489.614 103.843 489.234 106.771L481.103 169.324C480.722 172.252 478.04 174.317 475.113 173.937L374.389 160.845Z" fill="url(#paint0_linear_884_2745)"/>
<path d="M453.304 156.659C453.274 155.922 452.748 155.432 452.019 155.338C451.033 155.21 450.248 155.874 450.071 157.232C449.893 158.607 450.492 159.435 451.47 159.562C452.182 159.655 452.814 159.332 453.046 158.647L454.131 158.788C453.816 159.917 452.752 160.714 451.327 160.529C449.745 160.323 448.735 159.021 448.986 157.091C449.238 155.153 450.563 154.163 452.128 154.366C453.454 154.539 454.381 155.442 454.39 156.8L453.304 156.659ZM455.488 160.985L454.337 160.836L457.228 155.113L458.554 155.286L459.894 161.558L458.743 161.409L458.439 159.861L456.178 159.567L455.488 160.985ZM456.581 158.735L458.262 158.954L457.756 156.429L457.707 156.422L456.581 158.735ZM460.607 161.651L461.386 155.654L463.639 155.947C465.014 156.125 465.651 156.992 465.503 158.135C465.397 158.951 464.945 159.507 464.204 159.701L465.187 162.246L463.986 162.09L463.095 159.742L461.969 159.596L461.684 161.791L460.607 161.651ZM462.086 158.693L463.097 158.824C463.909 158.93 464.318 158.629 464.401 157.992C464.484 157.354 464.168 156.934 463.356 156.828L462.346 156.697L462.086 158.693ZM467.937 162.604L465.9 162.339L466.679 156.342L468.75 156.611C470.539 156.844 471.478 158.111 471.235 159.975C470.992 161.847 469.76 162.841 467.937 162.604ZM467.098 161.543L468.001 161.66C469.252 161.823 469.979 161.218 470.159 159.835C470.337 158.46 469.788 157.698 468.57 157.539L467.634 157.418L467.098 161.543Z" fill="white"/>
<rect x="387.42" y="105.718" width="18.9239" height="13.3643" rx="2.51249" transform="rotate(7.40578 387.42 105.718)" fill="#E9C75F" stroke="#8D7F42" stroke-width="0.534573"/>
<path d="M395.046 120.456L396.838 106.673" stroke="#8D7F42" stroke-width="0.534573"/>
<path d="M386.652 109.554L405.948 112.062M385.936 115.067L405.232 117.575" stroke="#8D7F42" stroke-width="0.534573"/>
<rect x="393.953" y="109.37" width="5.02499" height="7.80477" rx="2.51249" transform="rotate(7.40578 393.953 109.37)" fill="#E9C75F" stroke="#8D7F42" stroke-width="0.534573"/>
<path d="M381.037 147.98C378.446 146.685 375.006 146 371.09 146C367.174 146 363.734 146.685 361.142 147.98C358.551 149.275 357.09 151.097 357.09 153V159C357.09 160.903 358.567 162.731 361.142 164.02C363.717 165.309 367.174 166 371.09 166C375.006 166 378.446 165.315 381.037 164.02C383.629 162.725 385.09 160.903 385.09 159V153C385.09 151.097 383.612 149.269 381.037 147.98ZM370.09 159.98V163.98C367.715 163.903 365.715 163.553 364.09 163.044V159.131C366.049 159.653 368.063 159.939 370.09 159.983V159.98ZM372.09 159.98C374.117 159.936 376.131 159.651 378.09 159.129V163.042C376.465 163.551 374.465 163.901 372.09 163.979V159.98ZM359.09 159V156.691C359.719 157.214 360.408 157.66 361.142 158.02C361.446 158.171 361.767 158.314 362.09 158.449V162.25C360.111 161.27 359.09 160.036 359.09 159ZM380.09 162.25V158.449C380.416 158.314 380.734 158.171 381.037 158.02C381.772 157.66 382.461 157.214 383.09 156.691V159C383.09 160.036 382.069 161.27 380.09 162.25Z" fill="#F9CB3F"/>
<path d="M380.09 162.25V158.449C380.416 158.314 380.734 158.171 381.037 158.02C381.772 157.66 382.461 157.214 383.09 156.691V159C383.09 160.036 382.069 161.27 380.09 162.25Z" fill="#E5BE44"/>
<path d="M372.09 159.98C374.117 159.936 376.131 159.651 378.09 159.129V163.042C376.465 163.551 374.465 163.901 372.09 163.979V159.98Z" fill="#E5BE44"/>
<path d="M370.09 159.983V163.98C367.715 163.903 365.715 163.553 364.09 163.044V159.131C366.049 159.653 368.063 159.939 370.09 159.983Z" fill="#E5BE44"/>
<path d="M359.09 159V156.691C359.719 157.214 360.408 157.66 361.142 158.02C361.446 158.171 361.767 158.314 362.09 158.449V162.25C360.111 161.27 359.09 160.036 359.09 159Z" fill="#E5BE44"/>
<path d="M488.598 73.3453C486.602 72.6586 484.051 72.4939 481.222 72.8698C478.393 73.2456 475.974 74.0706 474.227 75.2547C472.479 76.4389 471.599 77.8956 471.781 79.2699L472.357 83.6041C472.54 84.9784 473.782 86.1576 475.766 86.8414C477.75 87.5252 480.313 87.6928 483.142 87.317C485.971 86.9411 488.39 86.1161 490.138 84.932C491.885 83.7478 492.766 82.2911 492.583 80.9168L492.007 76.5826C491.825 75.2084 490.582 74.0291 488.598 73.3453ZM481.842 83.0643L482.226 85.9538C480.503 86.1257 479.024 86.0648 477.802 85.8533L477.426 83.0271C478.891 83.2161 480.374 83.2292 481.842 83.0661L481.842 83.0643ZM483.286 82.8724C484.746 82.6464 486.174 82.2466 487.539 81.6816L487.915 84.5088C486.79 85.0322 485.378 85.477 483.67 85.7609L483.286 82.8724ZM473.802 83.4121L473.58 81.7444C474.085 82.0613 474.625 82.3174 475.19 82.5072C475.424 82.5873 475.67 82.6594 475.916 82.726L476.281 85.4719C474.757 84.9539 473.901 84.1607 473.802 83.4121ZM489.283 83.7443L488.918 80.9985C489.141 80.8696 489.357 80.7362 489.562 80.5978C490.057 80.2671 490.512 79.8788 490.917 79.441L491.138 81.1088C491.238 81.8573 490.619 82.8465 489.283 83.7443Z" fill="#F9CB3F"/>
<path d="M489.283 83.7443L488.918 80.9985C489.141 80.8696 489.357 80.7362 489.562 80.5978C490.057 80.2671 490.512 79.8788 490.917 79.441L491.138 81.1088C491.238 81.8573 490.619 82.8465 489.283 83.7443Z" fill="#E5BE44"/>
<path d="M483.286 82.8724C484.746 82.6464 486.174 82.2466 487.539 81.6816L487.915 84.5088C486.79 85.0322 485.378 85.477 483.67 85.7609L483.286 82.8724Z" fill="#E5BE44"/>
<path d="M481.842 83.0661L482.226 85.9538C480.503 86.1257 479.024 86.0648 477.802 85.8533L477.426 83.0271C478.891 83.2161 480.374 83.2292 481.842 83.0661Z" fill="#E5BE44"/>
<path d="M473.802 83.4121L473.58 81.7444C474.085 82.0613 474.625 82.3174 475.19 82.5072C475.424 82.5873 475.67 82.6594 475.916 82.726L476.281 85.4719C474.757 84.9539 473.901 84.1607 473.802 83.4121Z" fill="#E5BE44"/>
<path d="M507.173 85.1665C505.152 83.7411 502.336 82.7216 499.031 82.2193C495.726 81.7169 492.734 81.8537 490.381 82.6143C488.028 83.3749 486.561 84.7257 486.317 86.3314L485.547 91.3955C485.303 93.0013 486.316 94.7343 488.324 96.1523C490.332 97.5704 493.16 98.5972 496.465 99.0996C499.771 99.6019 502.762 99.4651 505.115 98.7045C507.468 97.9439 508.936 96.5931 509.18 94.9874L509.949 89.9233C510.193 88.3175 509.181 86.5845 507.173 85.1665ZM496.394 93.8903L495.881 97.2664C493.886 96.8963 492.243 96.3443 490.937 95.7065L491.438 92.4043C493.025 93.0961 494.688 93.5956 496.393 93.8924L496.394 93.8903ZM498.082 94.1469C499.798 94.3701 501.535 94.3873 503.255 94.1981L502.753 97.5013C501.316 97.7223 499.583 97.7611 497.569 97.5219L498.082 94.1469ZM487.235 91.6521L487.531 89.7035C487.996 90.2251 488.52 90.6899 489.093 91.0883C489.33 91.2549 489.583 91.4164 489.838 91.5717L489.35 94.78C487.806 93.699 487.102 92.5267 487.235 91.6521ZM504.543 97.089L505.03 93.8807C505.323 93.8086 505.609 93.7291 505.885 93.6404C506.551 93.4304 507.19 93.1424 507.788 92.7822L507.492 94.7308C507.359 95.6054 506.338 96.5157 504.543 97.089Z" fill="#F9CB3F"/>
<path d="M504.543 97.089L505.03 93.8807C505.323 93.8086 505.609 93.7291 505.885 93.6404C506.551 93.4304 507.19 93.1424 507.788 92.7822L507.492 94.7308C507.359 95.6054 506.338 96.5157 504.543 97.089Z" fill="#E5BE44"/>
<path d="M498.082 94.1469C499.798 94.3701 501.535 94.3873 503.255 94.1981L502.753 97.5013C501.316 97.7223 499.583 97.7611 497.569 97.5219L498.082 94.1469Z" fill="#E5BE44"/>
<path d="M496.393 93.8924L495.881 97.2664C493.886 96.8963 492.243 96.3443 490.937 95.7065L491.438 92.4043C493.025 93.0961 494.688 93.5956 496.393 93.8924Z" fill="#E5BE44"/>
<path d="M487.235 91.6521L487.531 89.7035C487.996 90.2251 488.52 90.6899 489.093 91.0883C489.33 91.2549 489.583 91.4164 489.838 91.5717L489.35 94.78C487.806 93.699 487.102 92.5267 487.235 91.6521Z" fill="#E5BE44"/>
<path d="M371.037 129.98C368.446 128.685 365.006 128 361.09 128C357.174 128 353.734 128.685 351.142 129.98C348.551 131.275 347.09 133.097 347.09 135V141C347.09 142.903 348.567 144.731 351.142 146.02C353.717 147.309 357.174 148 361.09 148C365.006 148 368.446 147.315 371.037 146.02C373.629 144.725 375.09 142.903 375.09 141V135C375.09 133.097 373.612 131.269 371.037 129.98ZM360.09 141.98V145.98C357.715 145.903 355.715 145.553 354.09 145.044V141.131C356.049 141.653 358.063 141.939 360.09 141.983V141.98ZM362.09 141.98C364.117 141.936 366.131 141.651 368.09 141.129V145.042C366.465 145.551 364.465 145.901 362.09 145.979V141.98ZM349.09 141V138.691C349.719 139.214 350.408 139.66 351.142 140.02C351.446 140.171 351.767 140.314 352.09 140.449V144.25C350.111 143.27 349.09 142.036 349.09 141ZM370.09 144.25V140.449C370.416 140.314 370.734 140.171 371.037 140.02C371.772 139.66 372.461 139.214 373.09 138.691V141C373.09 142.036 372.069 143.27 370.09 144.25Z" fill="#F9CB3F"/>
<path d="M370.09 144.25V140.449C370.416 140.314 370.734 140.171 371.037 140.02C371.772 139.66 372.461 139.214 373.09 138.691V141C373.09 142.036 372.069 143.27 370.09 144.25Z" fill="#E5BE44"/>
<path d="M362.09 141.98C364.117 141.936 366.131 141.651 368.09 141.129V145.042C366.465 145.551 364.465 145.901 362.09 145.979V141.98Z" fill="#E5BE44"/>
<path d="M360.09 141.983V145.98C357.715 145.903 355.715 145.553 354.09 145.044V141.131C356.049 141.653 358.063 141.939 360.09 141.983Z" fill="#E5BE44"/>
<path d="M349.09 141V138.691C349.719 139.214 350.408 139.66 351.142 140.02C351.446 140.171 351.767 140.314 352.09 140.449V144.25C350.111 143.27 349.09 142.036 349.09 141Z" fill="#E5BE44"/>
<path d="M312.354 117.646C312.549 117.842 312.549 118.158 312.354 118.354L309.172 121.536C308.976 121.731 308.66 121.731 308.464 121.536C308.269 121.34 308.269 121.024 308.464 120.828L311.293 118L308.464 115.172C308.269 114.976 308.269 114.66 308.464 114.464C308.66 114.269 308.976 114.269 309.172 114.464L312.354 117.646ZM312 118V118.5H311V118V117.5H312V118ZM309 118V118.5H307V118V117.5H309V118ZM305 118V118.5H303V118V117.5H305V118ZM301 118V118.5H299V118V117.5H301V118ZM297 118V118.5H295V118V117.5H297V118ZM293 118V118.5H291V118V117.5H293V118ZM289 118V118.5H287V118V117.5H289V118ZM285 118V118.5H283V118V117.5H285V118ZM281 118V118.5H279V118V117.5H281V118ZM277 118V118.5H275V118V117.5H277V118ZM273 118V118.5H271V118V117.5H273V118ZM269 118V118.5H267V118V117.5H269V118ZM265 118V118.5H263V118V117.5H265V118ZM261 118V118.5H259V118V117.5H261V118ZM257 118V118.5H255V118V117.5H257V118ZM253 118V118.5H251V118V117.5H253V118ZM249 118V118.5H247V118V117.5H249V118ZM245 118V118.5H243V118V117.5H245V118ZM241 118V118.5H240V118V117.5H241V118Z" fill="#B0B0B0"/>
<path d="M259.491 106L263.907 97.4688V97.3867H258.808V96.1016H265.466V97.4414L261.063 106H259.491ZM270.032 95.3223C271.878 95.3359 273.231 96.4707 273.245 98.0703C273.231 99.6836 271.878 100.805 270.032 100.805C268.173 100.805 266.806 99.6836 266.806 98.0703C266.806 96.4707 268.173 95.3359 270.032 95.3223ZM270.032 96.416C268.897 96.4023 268.063 97.0723 268.077 98.0703C268.063 99.082 268.897 99.752 270.032 99.752C271.153 99.752 271.987 99.082 271.987 98.0703C271.987 97.0723 271.153 96.4023 270.032 96.416ZM276.718 94.9121V101.146H275.419V94.9121H276.718ZM276.718 101.707V104.797H269.964V105.973H277.128V107.012H268.706V103.826H275.433V102.746H268.665V101.707H276.718ZM292.618 96.2656V97.332H282.651V96.2656H287.013V94.8574H288.298V96.2656H292.618ZM293.288 102.842V103.908H288.298V107.176H287.013V103.908H282.077V102.842H293.288ZM287.655 97.9609C290.198 97.9609 291.729 98.6855 291.729 100.025C291.729 101.338 290.198 102.062 287.655 102.076C285.099 102.062 283.567 101.338 283.581 100.025C283.567 98.6855 285.099 97.9609 287.655 97.9609ZM287.655 98.9316C285.892 98.9316 284.921 99.3145 284.921 100.025C284.921 100.709 285.892 101.092 287.655 101.092C289.405 101.092 290.376 100.709 290.39 100.025C290.376 99.3145 289.405 98.9316 287.655 98.9316Z" fill="#B0B0B0"/>
<g filter="url(#filter0_d_884_2745)">
<circle cx="468" cy="164" r="40" fill="white"/>
<circle cx="468" cy="164" r="39.6" stroke="#D8D8D8" stroke-width="0.8"/>
</g>
<path d="M447.319 160.761C447.319 162.828 448.544 165.176 450.656 166.15L449.74 167.45C448.234 166.741 447.119 165.309 446.521 163.64C445.916 165.471 444.749 167.036 443.214 167.774L442.254 166.49C444.38 165.486 445.665 162.976 445.68 160.761V159.639H442.771V158.28H450.109V159.639H447.319V160.761ZM452.989 156.966V162.164H455.041V163.537H452.989V170.314H451.35V156.966H452.989ZM467.633 163.36V164.674H455.451V163.36H460.737V162.09H456.942V157.571H466.156V158.856H458.581V160.79H466.23V162.09H462.347V163.36H467.633ZM461.52 165.441C464.399 165.441 466.127 166.313 466.141 167.878C466.127 169.428 464.399 170.314 461.52 170.314C458.611 170.314 456.868 169.428 456.868 167.878C456.868 166.313 458.611 165.441 461.52 165.441ZM461.52 166.697C459.571 166.697 458.522 167.11 458.537 167.878C458.522 168.646 459.571 169.044 461.52 169.044C463.424 169.044 464.488 168.646 464.502 167.878C464.488 167.11 463.424 166.697 461.52 166.697ZM479.545 156.966V163.729H477.906V162.562H474.687V161.307H477.906V159.993H474.864C474.023 162.031 472.074 163.36 469.12 164.024L468.545 162.68C471.682 162.031 473.247 160.65 473.476 158.871H469.283V157.542H475.307C475.307 157.963 475.27 158.361 475.219 158.738H477.906V156.966H479.545ZM479.545 164.245V167.76H472.413V168.867H479.899V170.181H470.774V166.534H477.906V165.545H470.759V164.245H479.545ZM492.771 156.966V170.314H491.206V156.966H492.771ZM490.055 157.217V169.664H488.504V162.946H486.585V161.617H488.504V157.217H490.055ZM485.403 160.613C485.403 162.872 486.215 165.131 488.12 166.224L487.146 167.435C485.913 166.697 485.093 165.427 484.636 163.906C484.163 165.552 483.314 166.955 482.052 167.745L481.047 166.519C482.982 165.353 483.823 162.931 483.823 160.613V159.727H481.505V158.398H487.559V159.727H485.403V160.613Z" fill="#0069DE"/>
<defs>
<filter id="filter0_d_884_2745" x="419.12" y="115.92" width="97.76" height="97.76" filterUnits="userSpaceOnUse" color-interpolation-filters="sRGB">
<feFlood flood-opacity="0" result="BackgroundImageFix"/>
<feColorMatrix in="SourceAlpha" type="matrix" values="0 0 0 0 0 0 0 0 0 0 0 0 0 0 0 0 0 0 127 0" result="hardAlpha"/>
<feMorphology radius="0.8" operator="dilate" in="SourceAlpha" result="effect1_dropShadow_884_2745"/>
<feOffset dy="0.8"/>
<feGaussianBlur stdDeviation="4.04"/>
<feColorMatrix type="matrix" values="0 0 0 0 0 0 0 0 0 0 0 0 0 0 0 0 0 0 0.05 0"/>
<feBlend mode="normal" in2="BackgroundImageFix" result="effect1_dropShadow_884_2745"/>
<feBlend mode="normal" in="SourceGraphic" in2="effect1_dropShadow_884_2745" result="shape"/>
</filter>
<linearGradient id="paint0_linear_884_2745" x1="354.519" y1="121.066" x2="427.769" y2="130.587" gradientUnits="userSpaceOnUse">
<stop stop-opacity="0.1"/>
<stop offset="1" stop-color="#1B67BB" stop-opacity="0"/>
</linearGradient>
</defs>
</svg>
