<svg width="552" height="250" viewBox="0 0 552 250" fill="none" xmlns="http://www.w3.org/2000/svg">
<g clip-path="url(#clip0_884_2731)">
<rect width="552" height="250" rx="12" fill="#F8F9FA"/>
<path d="M381.788 1C335.576 116.152 262.97 125.5 216 125.5C262.97 125.5 335.576 135.848 381.788 251L436 433.5V-181L381.788 1Z" fill="url(#paint0_linear_884_2731)"/>
<rect x="365" y="90" width="160" height="32" rx="8" fill="#322A2A"/>
<path d="M385.168 100.59C387.523 100.59 388.977 101.305 388.988 102.57C388.977 103.707 387.781 104.41 385.801 104.516V105.312H390.008V106.367H380.352V105.312H384.523V104.516C382.566 104.404 381.348 103.707 381.348 102.57C381.348 101.305 382.836 100.59 385.168 100.59ZM385.168 101.574C383.598 101.562 382.695 101.926 382.707 102.57C382.695 103.191 383.598 103.555 385.168 103.555C386.727 103.555 387.641 103.191 387.641 102.57C387.641 101.926 386.727 101.562 385.168 101.574ZM382.801 106.883V107.844H387.5V106.883H388.812V110.914H381.512V106.883H382.801ZM382.801 109.859H387.5V108.84H382.801V109.859ZM394.458 102.324C394.458 103.812 395.29 105.277 396.919 105.887L396.193 106.895C395.062 106.449 394.253 105.564 393.814 104.469C393.357 105.641 392.501 106.572 391.282 107.047L390.579 106.016C392.267 105.406 393.134 103.906 393.146 102.324V101.059H394.458V102.324ZM399.474 100.461V108.324H398.173V105.043H396.239V104H398.173V102.957H396.239V101.902H398.173V100.461H399.474ZM399.708 109.777V110.832H392.489V107.551H393.814V109.777H399.708ZM404.651 101.516V110H403.115V103.004H403.069L401.088 104.27V102.875L403.186 101.516H404.651Z" fill="white"/>
<path d="M439.297 110.172V107.219H436.344V105.484H439.297V102.531H441.016V105.484H443.984V107.219H441.016V110.172H439.297ZM450.684 100.688V112H448.637V102.672H448.574L445.934 104.359V102.5L448.731 100.688H450.684ZM457.446 112.156C454.727 112.156 453.102 110.047 453.102 106.344C453.102 102.656 454.727 100.531 457.446 100.531C460.149 100.531 461.789 102.656 461.789 106.344C461.789 110.047 460.164 112.156 457.446 112.156ZM457.446 110.453C458.868 110.453 459.743 109.062 459.743 106.344C459.743 103.641 458.852 102.219 457.446 102.219C456.039 102.219 455.149 103.641 455.149 106.344C455.149 109.062 456.024 110.453 457.446 110.453ZM465.161 110.891L463.848 115.266H462.364L463.176 110.891H465.161ZM470.876 112.156C468.157 112.156 466.532 110.047 466.532 106.344C466.532 102.656 468.157 100.531 470.876 100.531C473.579 100.531 475.219 102.656 475.219 106.344C475.219 110.047 473.594 112.156 470.876 112.156ZM470.876 110.453C472.298 110.453 473.173 109.062 473.173 106.344C473.173 103.641 472.282 102.219 470.876 102.219C469.469 102.219 468.579 103.641 468.579 106.344C468.579 109.062 469.454 110.453 470.876 110.453ZM480.934 112.156C478.216 112.156 476.591 110.047 476.591 106.344C476.591 102.656 478.216 100.531 480.934 100.531C483.638 100.531 485.278 102.656 485.278 106.344C485.278 110.047 483.653 112.156 480.934 112.156ZM480.934 110.453C482.356 110.453 483.231 109.062 483.231 106.344C483.231 103.641 482.341 102.219 480.934 102.219C479.528 102.219 478.638 103.641 478.638 106.344C478.638 109.062 479.513 110.453 480.934 110.453ZM490.993 112.156C488.274 112.156 486.649 110.047 486.649 106.344C486.649 102.656 488.274 100.531 490.993 100.531C493.696 100.531 495.337 102.656 495.337 106.344C495.337 110.047 493.712 112.156 490.993 112.156ZM490.993 110.453C492.415 110.453 493.29 109.062 493.29 106.344C493.29 103.641 492.399 102.219 490.993 102.219C489.587 102.219 488.696 103.641 488.696 106.344C488.696 109.062 489.571 110.453 490.993 110.453ZM508.255 99.2812V109.969H506.505V108.734H503.739V107.516H506.505V99.2812H508.255ZM508.583 111.703V113.109H498.224V108.938H499.958V111.703H508.583ZM496.349 105.625C498.958 105.609 502.458 105.578 505.458 105.203L505.552 106.453C504.388 106.648 503.185 106.781 501.989 106.859V109.578H500.255V106.953C498.935 107.008 497.677 107.016 496.568 107.016L496.349 105.625ZM500.958 99.7969C503.021 99.7969 504.458 100.812 504.474 102.297C504.458 103.812 503.021 104.781 500.958 104.781C498.864 104.781 497.427 103.812 497.427 102.297C497.427 100.812 498.864 99.7969 500.958 99.7969ZM500.958 101.078C499.833 101.078 499.068 101.531 499.068 102.297C499.068 103.062 499.833 103.516 500.958 103.516C502.036 103.516 502.802 103.062 502.818 102.297C502.802 101.531 502.036 101.078 500.958 101.078Z" fill="#FF4242"/>
<rect x="365" y="128" width="160" height="32" rx="8" fill="#322A2A"/>
<path d="M385.168 138.59C387.523 138.59 388.977 139.305 388.988 140.57C388.977 141.707 387.781 142.41 385.801 142.516V143.312H390.008V144.367H380.352V143.312H384.523V142.516C382.566 142.404 381.348 141.707 381.348 140.57C381.348 139.305 382.836 138.59 385.168 138.59ZM385.168 139.574C383.598 139.562 382.695 139.926 382.707 140.57C382.695 141.191 383.598 141.555 385.168 141.555C386.727 141.555 387.641 141.191 387.641 140.57C387.641 139.926 386.727 139.562 385.168 139.574ZM382.801 144.883V145.844H387.5V144.883H388.812V148.914H381.512V144.883H382.801ZM382.801 147.859H387.5V146.84H382.801V147.859ZM394.458 140.324C394.458 141.812 395.29 143.277 396.919 143.887L396.193 144.895C395.062 144.449 394.253 143.564 393.814 142.469C393.357 143.641 392.501 144.572 391.282 145.047L390.579 144.016C392.267 143.406 393.134 141.906 393.146 140.324V139.059H394.458V140.324ZM399.474 138.461V146.324H398.173V143.043H396.239V142H398.173V140.957H396.239V139.902H398.173V138.461H399.474ZM399.708 147.777V148.832H392.489V145.551H393.814V147.777H399.708ZM401.205 148V146.898L404.205 144.004C405.061 143.148 405.506 142.645 405.506 141.93C405.506 141.145 404.885 140.641 404.053 140.641C403.174 140.641 402.612 141.191 402.623 142.047H401.17C401.158 140.441 402.365 139.398 404.065 139.398C405.799 139.398 406.971 140.43 406.971 141.859C406.971 142.82 406.502 143.594 404.838 145.164L403.326 146.664V146.723H407.1V148H401.205Z" fill="white"/>
<path d="M439.297 148.172V145.219H436.344V143.484H439.297V140.531H441.016V143.484H443.984V145.219H441.016V148.172H439.297ZM450.684 138.688V150H448.637V140.672H448.574L445.934 142.359V140.5L448.731 138.688H450.684ZM457.446 150.156C454.727 150.156 453.102 148.047 453.102 144.344C453.102 140.656 454.727 138.531 457.446 138.531C460.149 138.531 461.789 140.656 461.789 144.344C461.789 148.047 460.164 150.156 457.446 150.156ZM457.446 148.453C458.868 148.453 459.743 147.062 459.743 144.344C459.743 141.641 458.852 140.219 457.446 140.219C456.039 140.219 455.149 141.641 455.149 144.344C455.149 147.062 456.024 148.453 457.446 148.453ZM465.161 148.891L463.848 153.266H462.364L463.176 148.891H465.161ZM470.876 150.156C468.157 150.156 466.532 148.047 466.532 144.344C466.532 140.656 468.157 138.531 470.876 138.531C473.579 138.531 475.219 140.656 475.219 144.344C475.219 148.047 473.594 150.156 470.876 150.156ZM470.876 148.453C472.298 148.453 473.173 147.062 473.173 144.344C473.173 141.641 472.282 140.219 470.876 140.219C469.469 140.219 468.579 141.641 468.579 144.344C468.579 147.062 469.454 148.453 470.876 148.453ZM480.934 150.156C478.216 150.156 476.591 148.047 476.591 144.344C476.591 140.656 478.216 138.531 480.934 138.531C483.638 138.531 485.278 140.656 485.278 144.344C485.278 148.047 483.653 150.156 480.934 150.156ZM480.934 148.453C482.356 148.453 483.231 147.062 483.231 144.344C483.231 141.641 482.341 140.219 480.934 140.219C479.528 140.219 478.638 141.641 478.638 144.344C478.638 147.062 479.513 148.453 480.934 148.453ZM490.993 150.156C488.274 150.156 486.649 148.047 486.649 144.344C486.649 140.656 488.274 138.531 490.993 138.531C493.696 138.531 495.337 140.656 495.337 144.344C495.337 148.047 493.712 150.156 490.993 150.156ZM490.993 148.453C492.415 148.453 493.29 147.062 493.29 144.344C493.29 141.641 492.399 140.219 490.993 140.219C489.587 140.219 488.696 141.641 488.696 144.344C488.696 147.062 489.571 148.453 490.993 148.453ZM508.255 137.281V147.969H506.505V146.734H503.739V145.516H506.505V137.281H508.255ZM508.583 149.703V151.109H498.224V146.938H499.958V149.703H508.583ZM496.349 143.625C498.958 143.609 502.458 143.578 505.458 143.203L505.552 144.453C504.388 144.648 503.185 144.781 501.989 144.859V147.578H500.255V144.953C498.935 145.008 497.677 145.016 496.568 145.016L496.349 143.625ZM500.958 137.797C503.021 137.797 504.458 138.812 504.474 140.297C504.458 141.812 503.021 142.781 500.958 142.781C498.864 142.781 497.427 141.812 497.427 140.297C497.427 138.812 498.864 137.797 500.958 137.797ZM500.958 139.078C499.833 139.078 499.068 139.531 499.068 140.297C499.068 141.062 499.833 141.516 500.958 141.516C502.036 141.516 502.802 141.062 502.818 140.297C502.802 139.531 502.036 139.078 500.958 139.078Z" fill="#FF4242"/>
<g filter="url(#filter0_d_884_2731)">
<rect x="19" y="77" width="208" height="44" rx="12" fill="white" shape-rendering="crispEdges"/>
<rect x="19.5" y="77.5" width="207" height="43" rx="11.5" stroke="#DCDCDC" shape-rendering="crispEdges"/>
<path d="M39.6094 94.7656C39.6094 96.6406 40.7344 98.4688 42.9219 99.2188L41.9688 100.578C40.4453 100 39.3516 98.8984 38.7656 97.5156C38.1484 99.0625 37 100.289 35.3438 100.906L34.4219 99.5312C36.6875 98.7656 37.8438 96.8125 37.8594 94.75V93.1406H39.6094V94.7656ZM46.2969 92.2812V102.766H44.5625V96.8125H41.75V95.3906H44.5625V92.2812H46.2969ZM46.6094 104.703V106.109H36.9844V101.625H38.75V104.703H46.6094ZM54.215 93.25V94.6406H50.34V96.0156H54.0744V97.3438H50.34V98.8281C52.0666 98.8125 53.2619 98.7422 54.6369 98.4844L54.8244 99.8906C53.1681 100.203 51.7931 100.25 49.6056 100.25H48.6681V93.25H54.215ZM60.215 92.2812V100.875H58.5588V97.2031H57.09V100.766H55.465V92.5469H57.09V95.8125H58.5588V92.2812H60.215ZM60.215 101.5V106.391H58.4806V102.906H50.5431V101.5H60.215ZM77.5981 92.2656V106.391H75.9419V92.2656H77.5981ZM74.7231 92.5312V105.703H73.0825V98.5938H71.0513V97.1875H73.0825V92.5312H74.7231ZM69.8013 96.125C69.8013 98.5156 70.6606 100.906 72.6763 102.062L71.645 103.344C70.3403 102.562 69.4731 101.219 68.9888 99.6094C68.4888 101.352 67.5903 102.836 66.2544 103.672L65.1919 102.375C67.2388 101.141 68.1294 98.5781 68.1294 96.125V95.1875H65.6763V93.7812H72.0825V95.1875H69.8013V96.125ZM91.985 98.9531V100.344H86.3913V101.703H90.4225V106.219H80.6256V101.703H84.6725V100.344H79.11V98.9531H91.985ZM90.7975 92.6875V94.0781H88.86V96.5H90.7194V97.9062H80.3444V96.5H82.2038V94.0781H80.2663V92.6875H90.7975ZM82.3444 103.047V104.812H88.735V103.047H82.3444ZM83.9381 96.5H87.11V94.0781H83.9381V96.5Z" fill="black"/>
<path d="M149.047 105.156C146.625 105.156 144.906 103.844 144.859 101.938H146.906C146.969 102.844 147.875 103.438 149.047 103.438C150.297 103.438 151.188 102.75 151.188 101.75C151.188 100.734 150.312 100 148.844 100H147.828V98.4375H148.844C150.047 98.4375 150.891 97.7656 150.875 96.7812C150.891 95.8281 150.172 95.1875 149.062 95.1875C148 95.1875 147.078 95.7812 147.047 96.7344H145.094C145.141 94.8281 146.859 93.5312 149.078 93.5312C151.375 93.5312 152.859 94.9375 152.844 96.6719C152.859 97.9375 152.016 98.8594 150.781 99.1094V99.2031C152.375 99.4219 153.281 100.438 153.266 101.859C153.281 103.766 151.5 105.156 149.047 105.156ZM159.059 105.156C156.34 105.156 154.715 103.047 154.715 99.3438C154.715 95.6562 156.34 93.5312 159.059 93.5312C161.762 93.5312 163.403 95.6562 163.403 99.3438C163.403 103.047 161.778 105.156 159.059 105.156ZM159.059 103.453C160.481 103.453 161.356 102.062 161.356 99.3438C161.356 96.6406 160.465 95.2188 159.059 95.2188C157.653 95.2188 156.762 96.6406 156.762 99.3438C156.762 102.062 157.637 103.453 159.059 103.453ZM166.774 103.891L165.461 108.266H163.977L164.789 103.891H166.774ZM172.489 105.156C169.77 105.156 168.145 103.047 168.145 99.3438C168.145 95.6562 169.77 93.5312 172.489 93.5312C175.192 93.5312 176.833 95.6562 176.833 99.3438C176.833 103.047 175.208 105.156 172.489 105.156ZM172.489 103.453C173.911 103.453 174.786 102.062 174.786 99.3438C174.786 96.6406 173.895 95.2188 172.489 95.2188C171.083 95.2188 170.192 96.6406 170.192 99.3438C170.192 102.062 171.067 103.453 172.489 103.453ZM182.548 105.156C179.829 105.156 178.204 103.047 178.204 99.3438C178.204 95.6562 179.829 93.5312 182.548 93.5312C185.251 93.5312 186.891 95.6562 186.891 99.3438C186.891 103.047 185.266 105.156 182.548 105.156ZM182.548 103.453C183.969 103.453 184.844 102.062 184.844 99.3438C184.844 96.6406 183.954 95.2188 182.548 95.2188C181.141 95.2188 180.251 96.6406 180.251 99.3438C180.251 102.062 181.126 103.453 182.548 103.453ZM192.606 105.156C189.888 105.156 188.263 103.047 188.263 99.3438C188.263 95.6562 189.888 93.5312 192.606 93.5312C195.309 93.5312 196.95 95.6562 196.95 99.3438C196.95 103.047 195.325 105.156 192.606 105.156ZM192.606 103.453C194.028 103.453 194.903 102.062 194.903 99.3438C194.903 96.6406 194.013 95.2188 192.606 95.2188C191.2 95.2188 190.309 96.6406 190.309 99.3438C190.309 102.062 191.184 103.453 192.606 103.453ZM209.868 92.2812V102.969H208.118V101.734H205.353V100.516H208.118V92.2812H209.868ZM210.196 104.703V106.109H199.837V101.938H201.571V104.703H210.196ZM197.962 98.625C200.571 98.6094 204.071 98.5781 207.071 98.2031L207.165 99.4531C206.001 99.6484 204.798 99.7812 203.603 99.8594V102.578H201.868V99.9531C200.548 100.008 199.29 100.016 198.181 100.016L197.962 98.625ZM202.571 92.7969C204.634 92.7969 206.071 93.8125 206.087 95.2969C206.071 96.8125 204.634 97.7812 202.571 97.7812C200.478 97.7812 199.04 96.8125 199.04 95.2969C199.04 93.8125 200.478 92.7969 202.571 92.7969ZM202.571 94.0781C201.446 94.0781 200.681 94.5312 200.681 95.2969C200.681 96.0625 201.446 96.5156 202.571 96.5156C203.649 96.5156 204.415 96.0625 204.431 95.2969C204.415 94.5312 203.649 94.0781 202.571 94.0781Z" fill="black"/>
</g>
<g filter="url(#filter1_d_884_2731)">
<rect x="19" y="129" width="208" height="44" rx="12" fill="white" shape-rendering="crispEdges"/>
<rect x="19.5" y="129.5" width="207" height="43" rx="11.5" stroke="#DCDCDC" shape-rendering="crispEdges"/>
<path d="M46.2969 144.266V151.422H44.5625V150.188H41.1562V148.859H44.5625V147.469H41.3438C40.4531 149.625 38.3906 151.031 35.2656 151.734L34.6562 150.312C37.9766 149.625 39.6328 148.164 39.875 146.281H35.4375V144.875H41.8125C41.8125 145.32 41.7734 145.742 41.7188 146.141H44.5625V144.266H46.2969ZM46.2969 151.969V155.688H38.75V156.859H46.6719V158.25H37.0156V154.391H44.5625V153.344H37V151.969H46.2969ZM60.2931 144.266V158.391H58.6369V144.266H60.2931ZM57.4181 144.531V157.703H55.7775V150.594H53.7463V149.188H55.7775V144.531H57.4181ZM52.4963 148.125C52.4963 150.516 53.3556 152.906 55.3713 154.062L54.34 155.344C53.0353 154.562 52.1681 153.219 51.6838 151.609C51.1838 153.352 50.2853 154.836 48.9494 155.672L47.8869 154.375C49.9338 153.141 50.8244 150.578 50.8244 148.125V147.188H48.3713V145.781H54.7775V147.188H52.4963V148.125ZM76.77 144.953V146.047C76.77 147.141 76.77 148.391 76.4263 150.062H78.3481V151.469H65.4419V150.062H74.6763C75.0044 148.539 75.0356 147.375 75.0356 146.344H67.0356V144.953H76.77ZM76.7544 153.109V158.219H66.9888V153.109H76.7544ZM68.6919 154.469V156.812H75.0356V154.469H68.6919ZM82.4381 145.141C84.3131 145.141 85.6881 146.547 85.6881 148.547C85.6881 150.562 84.3131 151.938 82.4381 151.938C80.5631 151.938 79.2038 150.562 79.2038 148.547C79.2038 146.547 80.5631 145.141 82.4381 145.141ZM82.4381 146.625C81.4538 146.625 80.7506 147.359 80.7663 148.547C80.7506 149.719 81.4538 150.484 82.4381 150.469C83.4069 150.484 84.11 149.719 84.11 148.547C84.11 147.359 83.4069 146.625 82.4381 146.625ZM91.1881 144.281V152.703H89.5319V149.172H88.1413V152.609H86.5319V144.547H88.1413V147.781H89.5319V144.281H91.1881ZM91.1881 153.375V158.391H89.4538V154.766H81.5163V153.375H91.1881Z" fill="black"/>
<path d="M148.953 157.156C146.688 157.156 145.031 155.812 144.969 153.938H146.953C147.016 154.859 147.875 155.516 148.953 155.516C150.219 155.516 151.125 154.594 151.125 153.344C151.125 152.047 150.188 151.125 148.891 151.125C148.016 151.109 147.375 151.422 147.016 152.094H145.125L145.812 145.688H152.5V147.391H147.484L147.141 150.391H147.25C147.688 149.891 148.516 149.531 149.438 149.531C151.547 149.531 153.094 151.109 153.094 153.281C153.094 155.547 151.391 157.156 148.953 157.156ZM158.824 157.156C156.106 157.156 154.481 155.047 154.481 151.344C154.481 147.656 156.106 145.531 158.824 145.531C161.528 145.531 163.168 147.656 163.168 151.344C163.168 155.047 161.543 157.156 158.824 157.156ZM158.824 155.453C160.246 155.453 161.121 154.062 161.121 151.344C161.121 148.641 160.231 147.219 158.824 147.219C157.418 147.219 156.528 148.641 156.528 151.344C156.528 154.062 157.403 155.453 158.824 155.453ZM166.539 155.891L165.227 160.266H163.743L164.555 155.891H166.539ZM172.254 157.156C169.536 157.156 167.911 155.047 167.911 151.344C167.911 147.656 169.536 145.531 172.254 145.531C174.958 145.531 176.598 147.656 176.598 151.344C176.598 155.047 174.973 157.156 172.254 157.156ZM172.254 155.453C173.676 155.453 174.551 154.062 174.551 151.344C174.551 148.641 173.661 147.219 172.254 147.219C170.848 147.219 169.958 148.641 169.958 151.344C169.958 154.062 170.833 155.453 172.254 155.453ZM182.313 157.156C179.594 157.156 177.969 155.047 177.969 151.344C177.969 147.656 179.594 145.531 182.313 145.531C185.016 145.531 186.657 147.656 186.657 151.344C186.657 155.047 185.032 157.156 182.313 157.156ZM182.313 155.453C183.735 155.453 184.61 154.062 184.61 151.344C184.61 148.641 183.719 147.219 182.313 147.219C180.907 147.219 180.016 148.641 180.016 151.344C180.016 154.062 180.891 155.453 182.313 155.453ZM192.372 157.156C189.653 157.156 188.028 155.047 188.028 151.344C188.028 147.656 189.653 145.531 192.372 145.531C195.075 145.531 196.716 147.656 196.716 151.344C196.716 155.047 195.091 157.156 192.372 157.156ZM192.372 155.453C193.794 155.453 194.669 154.062 194.669 151.344C194.669 148.641 193.778 147.219 192.372 147.219C190.966 147.219 190.075 148.641 190.075 151.344C190.075 154.062 190.95 155.453 192.372 155.453ZM209.634 144.281V154.969H207.884V153.734H205.118V152.516H207.884V144.281H209.634ZM209.962 156.703V158.109H199.603V153.938H201.337V156.703H209.962ZM197.728 150.625C200.337 150.609 203.837 150.578 206.837 150.203L206.931 151.453C205.767 151.648 204.563 151.781 203.368 151.859V154.578H201.634V151.953C200.313 152.008 199.056 152.016 197.946 152.016L197.728 150.625ZM202.337 144.797C204.399 144.797 205.837 145.812 205.853 147.297C205.837 148.812 204.399 149.781 202.337 149.781C200.243 149.781 198.806 148.812 198.806 147.297C198.806 145.812 200.243 144.797 202.337 144.797ZM202.337 146.078C201.212 146.078 200.446 146.531 200.446 147.297C200.446 148.062 201.212 148.516 202.337 148.516C203.415 148.516 204.181 148.062 204.196 147.297C204.181 146.531 203.415 146.078 202.337 146.078Z" fill="black"/>
</g>
<path d="M228 112C225.429 112 222.915 112.762 220.778 114.191C218.64 115.619 216.974 117.65 215.99 120.025C215.006 122.401 214.748 125.014 215.25 127.536C215.751 130.058 216.99 132.374 218.808 134.192C220.626 136.01 222.942 137.249 225.464 137.75C227.986 138.252 230.599 137.994 232.975 137.01C235.35 136.026 237.381 134.36 238.809 132.222C240.238 130.085 241 127.571 241 125C240.996 121.554 239.625 118.249 237.188 115.812C234.751 113.375 231.447 112.004 228 112ZM233 126H229V130C229 130.265 228.895 130.52 228.707 130.707C228.52 130.895 228.265 131 228 131C227.735 131 227.48 130.895 227.293 130.707C227.105 130.52 227 130.265 227 130V126H223C222.735 126 222.48 125.895 222.293 125.707C222.105 125.52 222 125.265 222 125C222 124.735 222.105 124.48 222.293 124.293C222.48 124.105 222.735 124 223 124H227V120C227 119.735 227.105 119.48 227.293 119.293C227.48 119.105 227.735 119 228 119C228.265 119 228.52 119.105 228.707 119.293C228.895 119.48 229 119.735 229 120V124H233C233.265 124 233.52 124.105 233.707 124.293C233.895 124.48 234 124.735 234 125C234 125.265 233.895 125.52 233.707 125.707C233.52 125.895 233.265 126 233 126Z" fill="#FF4242"/>
<path d="M233 126H229V130C229 130.265 228.895 130.52 228.707 130.707C228.52 130.895 228.265 131 228 131C227.735 131 227.48 130.895 227.293 130.707C227.105 130.52 227 130.265 227 130V126H223C222.735 126 222.48 125.895 222.293 125.707C222.105 125.52 222 125.265 222 125C222 124.735 222.105 124.48 222.293 124.293C222.48 124.105 222.735 124 223 124H227V120C227 119.735 227.105 119.48 227.293 119.293C227.48 119.105 227.735 119 228 119C228.265 119 228.52 119.105 228.707 119.293C228.895 119.48 229 119.735 229 120V124H233C233.265 124 233.52 124.105 233.707 124.293C233.895 124.48 234 124.735 234 125C234 125.265 233.895 125.52 233.707 125.707C233.52 125.895 233.265 126 233 126Z" fill="white"/>
</g>
<rect x="0.5" y="0.5" width="551" height="249" rx="11.5" stroke="#F3F3F3"/>
<defs>
<filter id="filter0_d_884_2731" x="13.1" y="75.1" width="219.8" height="55.8" filterUnits="userSpaceOnUse" color-interpolation-filters="sRGB">
<feFlood flood-opacity="0" result="BackgroundImageFix"/>
<feColorMatrix in="SourceAlpha" type="matrix" values="0 0 0 0 0 0 0 0 0 0 0 0 0 0 0 0 0 0 127 0" result="hardAlpha"/>
<feOffset dy="4"/>
<feGaussianBlur stdDeviation="2.95"/>
<feComposite in2="hardAlpha" operator="out"/>
<feColorMatrix type="matrix" values="0 0 0 0 0 0 0 0 0 0 0 0 0 0 0 0 0 0 0.25 0"/>
<feBlend mode="normal" in2="BackgroundImageFix" result="effect1_dropShadow_884_2731"/>
<feBlend mode="normal" in="SourceGraphic" in2="effect1_dropShadow_884_2731" result="shape"/>
</filter>
<filter id="filter1_d_884_2731" x="13.1" y="127.1" width="219.8" height="55.8" filterUnits="userSpaceOnUse" color-interpolation-filters="sRGB">
<feFlood flood-opacity="0" result="BackgroundImageFix"/>
<feColorMatrix in="SourceAlpha" type="matrix" values="0 0 0 0 0 0 0 0 0 0 0 0 0 0 0 0 0 0 127 0" result="hardAlpha"/>
<feOffset dy="4"/>
<feGaussianBlur stdDeviation="2.95"/>
<feComposite in2="hardAlpha" operator="out"/>
<feColorMatrix type="matrix" values="0 0 0 0 0 0 0 0 0 0 0 0 0 0 0 0 0 0 0.25 0"/>
<feBlend mode="normal" in2="BackgroundImageFix" result="effect1_dropShadow_884_2731"/>
<feBlend mode="normal" in="SourceGraphic" in2="effect1_dropShadow_884_2731" result="shape"/>
</filter>
<linearGradient id="paint0_linear_884_2731" x1="450.5" y1="126" x2="132.546" y2="126" gradientUnits="userSpaceOnUse">
<stop stop-color="#F8F9FA" stop-opacity="0"/>
<stop offset="1" stop-color="#828282"/>
</linearGradient>
<clipPath id="clip0_884_2731">
<rect width="552" height="250" rx="12" fill="white"/>
</clipPath>
</defs>
</svg>
