<svg width="77" height="77" viewBox="0 0 77 77" fill="none" xmlns="http://www.w3.org/2000/svg">
<path d="M43.6687 50.0997L50.0844 43.6807L58.6294 52.2257L52.2138 58.6414L43.6687 50.0997Z" fill="#D3F5F7"/>
<path d="M30.0575 55.8542C44.305 55.8542 55.8549 44.3043 55.8549 30.0567C55.8549 15.8092 44.305 4.25928 30.0575 4.25928C15.8099 4.25928 4.26001 15.8092 4.26001 30.0567C4.26001 44.3043 15.8099 55.8542 30.0575 55.8542Z" fill="#0BBBC5"/>
<path d="M61.841 53.3254C59.4746 50.9589 55.6433 50.9535 53.2836 53.3133C50.9238 55.673 50.9292 59.5043 53.2957 61.8707L59.6865 68.2616C62.053 70.628 65.8843 70.6334 68.244 68.2737C70.6037 65.914 70.5983 62.0827 68.2319 59.7162L61.841 53.3254Z" fill="#0BBBC5"/>
<path d="M29.8651 50.2571C41.1271 50.2571 50.2568 41.1274 50.2568 29.8654C50.2568 18.6033 41.1271 9.47363 29.8651 9.47363C18.6031 9.47363 9.47339 18.6033 9.47339 29.8654C9.47339 41.1274 18.6031 50.2571 29.8651 50.2571Z" fill="url(#paint0_linear_796_3358)"/>
<defs>
<linearGradient id="paint0_linear_796_3358" x1="29.8651" y1="9.47363" x2="29.8651" y2="50.2571" gradientUnits="userSpaceOnUse">
<stop stop-color="white"/>
<stop offset="1" stop-color="#CEF4F6"/>
</linearGradient>
</defs>
</svg>
