<svg width="588" height="375" viewBox="0 0 588 375" fill="none" xmlns="http://www.w3.org/2000/svg">
<g clip-path="url(#clip0_845_2538)">
<g filter="url(#filter0_d_845_2538)">
<rect x="264" y="23" width="260" height="95.3116" rx="8" fill="white" shape-rendering="crispEdges"/>
<rect x="264.211" y="23.2107" width="259.579" height="94.8902" rx="7.78932" stroke="#E6E6E6" stroke-width="0.421365" shape-rendering="crispEdges"/>
<path d="M282.144 41.8344V40.9158H283.518V38.9438H284.596V44.7671H283.518V41.8344H282.144ZM280.18 42.3147C279.787 42.899 279.192 43.4356 278.394 43.9243L277.829 43.0985C278.498 42.6603 278.981 42.2192 279.279 41.7754C279.582 41.3259 279.737 40.8259 279.742 40.2753H278.141V39.323H282.43V40.2753H280.796C280.796 40.6574 280.739 41.031 280.627 41.3962L282.725 42.9552L282.127 43.7979L280.18 42.3147ZM280.332 44.2699V45.8373H284.883V46.8149H279.253V44.2699H280.332ZM291.593 46.8149V38.9438H292.638V46.8149H291.593ZM288.045 41.0928C288.034 41.6321 287.98 42.1434 287.885 42.6265L289.579 45.0789L288.778 45.6857L287.506 43.8401C287.225 44.503 286.834 45.1435 286.334 45.7615L285.567 45.1463C286.084 44.4834 286.455 43.8316 286.68 43.1912C286.905 42.5451 287.02 41.8456 287.025 41.0928H285.82V40.1152H287.042V38.9522H288.054V40.1152H289.343V41.0928H288.045ZM288.77 41.8681H289.882V39.0702H290.902V46.6295H289.882V42.8541H288.77V41.8681ZM301.978 41.7922H303.116V42.7698H301.978V46.8149H300.899V38.9438H301.978V41.7922ZM297.41 44.5817C298.225 44.5817 299.149 44.5058 300.183 44.3541L300.301 45.3064C299.284 45.4806 298.259 45.5677 297.225 45.5677H295.733V39.4832H299.669V40.4692H296.82V44.5817H297.41ZM308.916 41.6658C308.949 41.2332 308.966 40.8709 308.966 40.5787V40.5029H304.323V39.5169H310.053V40.25C310.053 40.8624 310.017 41.5535 309.944 42.3232C309.871 43.0872 309.772 43.8232 309.649 44.5311L308.587 44.3541C308.688 43.7755 308.767 43.2052 308.823 42.6434C308.261 42.6996 307.598 42.7445 306.834 42.7782C306.076 42.8063 305.399 42.8204 304.803 42.8204H304.331L304.281 41.8512H304.913C305.452 41.8512 306.112 41.8344 306.893 41.8007C307.68 41.767 308.354 41.722 308.916 41.6658ZM303.497 46.2671V45.2811H310.913V46.2671H303.497ZM317.32 41.7922V38.9438H318.365V46.8149H317.32V42.7698H316.62V46.6295H315.6V39.0702H316.62V41.7922H317.32ZM314.598 44.4721L315.23 44.3963L315.331 45.3486C314.409 45.4946 313.39 45.5677 312.272 45.5677H311.353L311.303 44.5817H311.918V40.4692H311.362V39.4832H315.061V40.4692H314.598V44.4721ZM313.654 40.4692H312.853V44.5732C313.016 44.5732 313.283 44.562 313.654 44.5395V40.4692ZM326.145 44.8429H325.066V41.59H323.929V40.6714H325.066V38.9438H326.145V44.8429ZM324.308 43.5788C323.353 43.7474 322.35 43.8316 321.299 43.8316H319.698V39.323H323.651V40.2838H320.777V41.0759H323.566V42.0198H320.777V42.8709H321.485C322.327 42.8709 323.226 42.7951 324.181 42.6434L324.308 43.5788ZM321.872 44.4384V45.8373H326.432V46.8149H320.802V44.4384H321.872ZM335.611 40.5619H336.749V41.5394H335.611V43.3597H334.533V38.9438H335.611V40.5619ZM333.934 42.9636C332.962 43.1322 331.96 43.2165 330.926 43.2165H329.325V39.2809H333.21V40.1995H330.403V40.7725H333.134V41.6743H330.403V42.2895H331.111C331.988 42.2895 332.889 42.2164 333.816 42.0703L333.934 42.9636ZM335.611 46.8149H330.429V43.7895H335.611V46.8149ZM334.533 44.7249H331.507V45.8542H334.533V44.7249ZM342.878 46.8149V38.9438H343.956V46.8149H342.878ZM340.223 40.722C340.223 41.2782 340.156 41.8147 340.021 42.3316L342.237 44.9778L341.445 45.6857L339.599 43.4777C339.234 44.253 338.681 45.0143 337.939 45.7615L337.181 45.0452C337.861 44.3541 338.361 43.6687 338.681 42.9889C339.007 42.3035 339.17 41.5478 339.17 40.722V40.5113H337.493V39.5253H341.925V40.5113H340.223V40.722ZM348.037 41.5394C347.363 41.5394 346.832 41.4355 346.445 41.2276C346.057 41.0141 345.863 40.6883 345.863 40.25C345.863 39.8118 346.057 39.4888 346.445 39.2809C346.832 39.073 347.363 38.9691 348.037 38.9691H349.453C350.127 38.9691 350.658 39.073 351.046 39.2809C351.439 39.4888 351.636 39.8118 351.636 40.25C351.636 40.6883 351.439 41.0141 351.046 41.2276C350.658 41.4355 350.127 41.5394 349.453 41.5394H348.037ZM348.256 39.8118C347.818 39.8118 347.487 39.8483 347.262 39.9214C347.043 39.9888 346.933 40.1012 346.933 40.2585C346.933 40.5619 347.374 40.7135 348.256 40.7135H349.242C350.119 40.7135 350.557 40.5619 350.557 40.2585C350.557 40.1012 350.445 39.9888 350.22 39.9214C350.001 39.8483 349.675 39.8118 349.242 39.8118H348.256ZM352.453 41.9945V42.8457H350.65V43.4103H351.594V45.5255H346.975V45.9975H351.804V46.857H345.905V44.6997H350.515V44.253H345.863V43.4103H346.857V42.8457H345.037V41.9945H352.453ZM347.902 43.4103H349.605V42.8457H347.902V43.4103Z" fill="black"/>
<path d="M359.383 39.0596C358.706 39.0596 358.044 39.2604 357.481 39.6365C356.918 40.0127 356.479 40.5474 356.22 41.173C355.961 41.7986 355.893 42.487 356.025 43.1511C356.157 43.8152 356.483 44.4252 356.962 44.904C357.441 45.3828 358.051 45.7089 358.715 45.841C359.379 45.9731 360.067 45.9053 360.693 45.6461C361.319 45.387 361.853 44.9482 362.229 44.3852C362.606 43.8222 362.806 43.1603 362.806 42.4832C362.805 41.5755 362.444 40.7052 361.803 40.0634C361.161 39.4215 360.291 39.0605 359.383 39.0596ZM359.251 40.6397C359.329 40.6397 359.406 40.6629 359.471 40.7063C359.536 40.7497 359.586 40.8114 359.616 40.8835C359.646 40.9557 359.654 41.0352 359.639 41.1118C359.623 41.1884 359.586 41.2588 359.53 41.314C359.475 41.3693 359.405 41.4069 359.328 41.4222C359.252 41.4374 359.172 41.4296 359.1 41.3997C359.028 41.3698 358.966 41.3191 358.923 41.2542C358.879 41.1892 358.856 41.1128 358.856 41.0347C358.856 40.93 358.898 40.8295 358.972 40.7554C359.046 40.6813 359.146 40.6397 359.251 40.6397ZM359.646 44.3266C359.506 44.3266 359.373 44.2711 359.274 44.1724C359.175 44.0736 359.119 43.9396 359.119 43.7999V42.4832C359.05 42.4832 358.983 42.4554 358.933 42.406C358.884 42.3566 358.856 42.2897 358.856 42.2198C358.856 42.15 358.884 42.083 358.933 42.0336C358.983 41.9842 359.05 41.9565 359.119 41.9565C359.259 41.9565 359.393 42.0119 359.492 42.1107C359.591 42.2095 359.646 42.3435 359.646 42.4832V43.7999C359.716 43.7999 359.783 43.8277 359.832 43.8771C359.882 43.9264 359.91 43.9934 359.91 44.0633C359.91 44.1331 359.882 44.2001 359.832 44.2495C359.783 44.2989 359.716 44.3266 359.646 44.3266Z" fill="#4D4D4D"/>
<path d="M279.334 53.3899C280.12 53.3833 280.716 53.8409 280.828 54.5157H282.053V53.1134H282.573V56.2539H282.053V54.9437H280.835C280.729 55.635 280.127 56.0958 279.334 56.0958C278.445 56.0958 277.813 55.5428 277.813 54.7396C277.813 53.9429 278.445 53.3833 279.334 53.3899ZM279.334 53.831C278.735 53.8244 278.307 54.1997 278.307 54.7396C278.307 55.2729 278.735 55.6613 279.334 55.6613C279.926 55.6613 280.348 55.2729 280.348 54.7396C280.348 54.1997 279.926 53.8244 279.334 53.831ZM279.321 56.5501V57.2941H282.053V56.5501H282.573V58.8874H278.8V56.5501H279.321ZM279.321 58.466H282.053V57.7089H279.321V58.466ZM288.839 57.8076V58.2422H283.48V57.8076H285.89V56.7016H284.151V54.8976H287.654V53.9759H284.138V53.5479H288.161V55.319H284.665V56.2736H288.299V56.7016H286.397V57.8076H288.839ZM293.966 55.9313V56.3592H289.924V53.6598H293.907V54.0878H290.437V55.9313H293.966ZM294.598 57.7352V58.1698H289.239V57.7352H294.598ZM299.574 53.12V55.049H300.456V55.4836H299.574V57.5048H299.061V53.12H299.574ZM298.501 53.8376V54.259H295.012V53.8376H296.5V53.12H297.013V53.8376H298.501ZM296.756 54.5816C297.592 54.5816 298.159 55.0095 298.165 55.6745C298.159 56.3329 297.592 56.7542 296.756 56.7542C295.914 56.7542 295.341 56.3329 295.347 55.6745C295.341 55.0095 295.914 54.5816 296.756 54.5816ZM296.756 54.9898C296.203 54.9898 295.835 55.2597 295.841 55.6745C295.835 56.0893 296.203 56.3526 296.756 56.346C297.303 56.3526 297.672 56.0893 297.678 55.6745C297.672 55.2597 297.303 54.9898 296.756 54.9898ZM299.844 58.4068V58.8413H295.914V57.1558H296.421V58.4068H299.844ZM307.208 53.1134V58.9796H306.688V53.1134H307.208ZM304.094 53.5677C304.963 53.5742 305.589 54.3643 305.589 55.6086C305.589 56.853 304.963 57.643 304.094 57.643C303.219 57.643 302.6 56.853 302.6 55.6086C302.6 54.3643 303.219 53.5742 304.094 53.5677ZM304.094 54.0285C303.508 54.0351 303.1 54.654 303.1 55.6086C303.1 56.5633 303.508 57.1822 304.094 57.1822C304.68 57.1822 305.088 56.5633 305.088 55.6086C305.088 54.654 304.68 54.0351 304.094 54.0285ZM311.19 53.6927V57.4982H308.484V53.6927H311.19ZM308.991 54.1075V57.0768H310.683V54.1075H308.991ZM312.968 53.1134V58.9796H312.447V53.1134H312.968ZM315.995 54.9108C315.995 55.9049 316.719 56.9122 317.581 57.2875L317.292 57.6957C316.607 57.383 316.014 56.7081 315.744 55.8983C315.468 56.7575 314.879 57.5048 314.21 57.8406L313.901 57.4324C314.737 57.0308 315.468 55.9247 315.474 54.9108V54.147H314.092V53.7191H317.39V54.147H315.995V54.9108ZM318.727 53.1134V58.9664H318.207V53.1134H318.727ZM324.677 53.1134V58.9664H324.177V53.1134H324.677ZM323.499 53.2385V58.6701H323.005V55.8259H322.254C322.198 56.9649 321.714 57.676 320.99 57.676C320.226 57.676 319.733 56.8859 319.733 55.6416C319.733 54.3972 320.226 53.6072 320.99 53.6072C321.701 53.6072 322.182 54.2952 322.248 55.398H323.005V53.2385H323.499ZM320.99 54.0944C320.516 54.0944 320.213 54.6869 320.22 55.6416C320.213 56.5896 320.516 57.1888 320.99 57.1822C321.464 57.1888 321.767 56.5896 321.767 55.6416C321.767 54.6869 321.464 54.0944 320.99 54.0944ZM332.048 53.1134V58.9664H331.554V55.8983H330.692V58.6635H330.217V53.245H330.692V55.4704H331.554V53.1134H332.048ZM329.454 53.831V54.259H327.775V57.0768C328.581 57.0735 329.141 57.0439 329.79 56.9122L329.836 57.3468C329.131 57.4916 328.532 57.518 327.637 57.518H327.261V53.831H329.454ZM337.379 53.12V55.049H338.261V55.4836H337.379V57.5048H336.866V53.12H337.379ZM336.306 53.8376V54.259H332.817V53.8376H334.304V53.12H334.818V53.8376H336.306ZM334.561 54.5816C335.397 54.5816 335.964 55.0095 335.97 55.6745C335.964 56.3329 335.397 56.7542 334.561 56.7542C333.718 56.7542 333.146 56.3329 333.152 55.6745C333.146 55.0095 333.718 54.5816 334.561 54.5816ZM334.561 54.9898C334.008 54.9898 333.639 55.2597 333.646 55.6745C333.639 56.0893 334.008 56.3526 334.561 56.346C335.108 56.3526 335.476 56.0893 335.483 55.6745C335.476 55.2597 335.108 54.9898 334.561 54.9898ZM337.649 58.4068V58.8413H333.718V57.1558H334.225V58.4068H337.649ZM344.717 53.1134V55.4309H345.698V55.8654H344.717V58.9796H344.203V53.1134H344.717ZM343.176 53.6862V54.1141H340.958V57.0768C342.018 57.0768 342.768 57.0275 343.637 56.8662L343.703 57.3139C342.788 57.4785 342.018 57.5114 340.905 57.5114H340.444V53.6862H343.176ZM350.614 53.7125V54.4367C350.614 55.2992 350.614 56.0958 350.371 57.2809L349.851 57.2348C349.979 56.6719 350.045 56.1847 350.081 55.7272L346.506 55.9247L346.434 55.4967L350.101 55.3453C350.111 55.0359 350.111 54.7363 350.114 54.4367V54.147H346.592V53.7125H350.614ZM351.279 57.7089V58.1434H345.946V57.7089H351.279ZM356.723 53.1134V58.9664H356.222V55.9115H355.426V58.6635H354.932V53.245H355.426V55.477H356.222V53.1134H356.723ZM354.497 53.8573V54.2853H353.99V56.9978C354.211 56.9847 354.422 56.9649 354.616 56.9386L354.642 57.3204C353.714 57.4916 352.476 57.518 351.706 57.518L351.64 57.0768L352.279 57.0703V54.2853H351.765V53.8573H354.497ZM352.759 57.0637C353.006 57.0571 353.26 57.0472 353.51 57.0308V54.2853H352.759V57.0637ZM362.317 53.12V57.4653H361.797V55.1939H360.652V54.7659H361.797V53.12H362.317ZM362.475 58.4068V58.8413H358.545V57.09H359.065V58.4068H362.475ZM360.401 53.5742V54.0022H358.281V54.8186H360.243V55.2334H358.281V56.1024C359.361 56.1024 359.973 56.0794 360.717 55.9444L360.764 56.3724C359.987 56.5106 359.341 56.537 358.196 56.537H357.768V53.5742H360.401ZM369.675 53.1134V58.9796H369.155V53.1134H369.675ZM365.705 53.6137V55.1609H367.45V53.6137H367.957V57.564H365.191V53.6137H365.705ZM365.705 57.1295H367.45V55.5757H365.705V57.1295ZM373.275 53.1858C374.578 53.1858 375.342 53.5479 375.342 54.1997C375.342 54.8581 374.578 55.2136 373.275 55.2202C371.971 55.2136 371.201 54.8581 371.201 54.1997C371.201 53.5479 371.971 53.1858 373.275 53.1858ZM373.275 53.5808C372.3 53.5874 371.734 53.8113 371.741 54.1997C371.734 54.6013 372.3 54.8186 373.275 54.8252C374.242 54.8186 374.815 54.6013 374.815 54.1997C374.815 53.8113 374.242 53.5874 373.275 53.5808ZM375.941 55.5757V55.9971H374.453V56.5765H375.256V57.8866H371.78V58.4924H375.434V58.9006H371.267V57.5048H374.749V56.9715H371.253V56.5765H372.063V55.9971H370.608V55.5757H375.941ZM372.57 56.5765H373.94V55.9971H372.57V56.5765ZM381.2 53.1134V56.2539H380.686V53.1134H381.2ZM377.921 56.5501V57.2612H380.686V56.5501H381.2V58.8874H377.408V56.5501H377.921ZM377.921 58.466H380.686V57.676H377.921V58.466ZM378.04 53.4031C378.929 53.3965 379.574 53.9429 379.574 54.7462C379.574 55.5428 378.929 56.0893 378.04 56.0893C377.151 56.0893 376.506 55.5428 376.506 54.7462C376.506 53.9429 377.151 53.3965 378.04 53.4031ZM378.04 53.8376C377.441 53.831 377.006 54.2129 377.013 54.7462C377.006 55.2795 377.441 55.6613 378.04 55.6613C378.632 55.6613 379.067 55.2795 379.067 54.7462C379.067 54.2129 378.632 53.831 378.04 53.8376ZM386.953 53.1134V58.9664H386.439V53.1134H386.953ZM383.016 53.6927V57.011C383.908 57.0077 384.833 56.9353 385.814 56.7279L385.886 57.169C384.846 57.3863 383.918 57.4587 382.983 57.4587H382.509V53.6927H383.016ZM392.416 53.1134V55.4309H393.397V55.8654H392.416V58.9796H391.902V53.1134H392.416ZM390.875 53.6862V54.1141H388.656V57.0768C389.716 57.0768 390.467 57.0275 391.336 56.8662L391.402 57.3139C390.487 57.4785 389.716 57.5114 388.604 57.5114H388.143V53.6862H390.875ZM394.264 58.4726C394.034 58.4726 393.836 58.2817 393.843 58.0447C393.836 57.8142 394.034 57.6233 394.264 57.6233C394.495 57.6233 394.686 57.8142 394.686 58.0447C394.686 58.2817 394.495 58.4726 394.264 58.4726Z" fill="#666666"/>
<path d="M284.528 89.7735V90.5224H277.731V89.7735H280.66V88.3251H278.479V84.4735H279.393V85.6915H282.841V84.4735H283.755V88.3251H281.566V89.7735H284.528ZM279.393 87.5844H282.841V86.424H279.393V87.5844ZM291.711 87.8477V88.572H284.913V87.8477H287.851V87.2963H285.786V84.1773H290.896V84.885H286.699V85.3953H290.715V86.0701H286.699V86.5968H290.954V87.2963H288.765V87.8477H291.711ZM288.312 88.9834C289.95 88.9834 290.88 89.4196 290.888 90.1932C290.88 90.9915 289.95 91.4112 288.312 91.4112C286.65 91.4112 285.72 90.9915 285.72 90.1932C285.72 89.4196 286.65 88.9834 288.312 88.9834ZM288.312 89.6665C287.193 89.6665 286.633 89.8393 286.633 90.1932C286.633 90.5553 287.193 90.7282 288.312 90.7282C289.415 90.7282 289.966 90.5553 289.974 90.1932C289.966 89.8393 289.415 89.6665 288.312 89.6665Z" fill="#FFAC1C"/>
<rect x="309.64" y="87.4004" width="200.876" height="5.05638" rx="2.52819" fill="#F3F3F3"/>
<rect x="309.338" y="87" width="89.2077" height="5" rx="2.5" fill="#FFC665"/>
<path d="M386.617 72.2314C386.617 71.3005 387.372 70.5459 388.302 70.5459H406.044C406.975 70.5459 407.73 71.3005 407.73 72.2314V80.2314C407.73 81.1622 406.975 81.9168 406.044 81.9168H388.302C387.372 81.9168 386.617 81.1622 386.617 80.2314V72.2314Z" fill="#1E2124"/>
<path d="M393.199 74.607C393.816 74.612 394.498 74.9823 394.498 76.3007C394.498 77.5698 393.979 78.2808 393.14 78.2808C392.513 78.2808 392.068 77.8957 391.979 77.3278H392.419C392.498 77.6488 392.74 77.8858 393.14 77.8858C393.723 77.8858 394.078 77.3821 394.083 76.5131H394.034C393.826 76.8093 393.5 76.9871 393.12 76.9871C392.478 76.9871 391.95 76.4983 391.95 75.807C391.95 75.1403 392.439 74.6021 393.199 74.607ZM393.199 74.9971C392.73 74.9971 392.379 75.3625 392.384 75.802C392.384 76.2464 392.715 76.597 393.184 76.597C393.648 76.597 394.014 76.2119 394.014 75.7921C394.014 75.3823 393.673 74.9971 393.199 74.9971ZM395.11 78.2314L395.105 77.9055L396.325 76.6217C396.749 76.1724 396.952 75.9304 396.952 75.5996C396.952 75.2342 396.641 74.9922 396.241 74.9922C395.816 74.9922 395.545 75.2638 395.545 75.6638H395.125C395.12 75.0317 395.609 74.607 396.256 74.607C396.903 74.607 397.367 75.0416 397.367 75.5996C397.367 75.9995 397.179 76.3106 396.547 76.9624L395.727 77.8068V77.8364H397.431V78.2314H395.11ZM398.833 76.3156C398.369 76.3156 398.117 75.9699 398.117 75.4564C398.117 74.9527 398.379 74.6021 398.833 74.6021C399.302 74.6021 399.549 74.9527 399.549 75.4564C399.549 75.9699 399.292 76.3156 398.833 76.3156ZM398.833 76.0094C399.075 76.0094 399.189 75.7921 399.189 75.4564C399.189 75.1255 399.085 74.9033 398.833 74.9083C398.596 74.9083 398.478 75.1255 398.478 75.4564C398.478 75.7921 398.596 76.0094 398.833 76.0094ZM401.016 78.2808C400.552 78.2858 400.295 77.9352 400.3 77.4266C400.295 76.918 400.562 76.5674 401.016 76.5674C401.48 76.5674 401.727 76.918 401.727 77.4266C401.727 77.9352 401.47 78.2858 401.016 78.2808ZM401.016 77.9747C401.253 77.9747 401.366 77.7574 401.366 77.4266C401.366 77.0908 401.263 76.8686 401.016 76.8735C400.779 76.8785 400.655 77.0908 400.655 77.4266C400.655 77.7574 400.774 77.9747 401.016 77.9747ZM398.468 78.2314L400.927 74.6564H401.327L398.868 78.2314H398.468Z" fill="white"/>
<path d="M394.753 81.3329L396.841 84.0175C397.01 84.2344 397.337 84.2344 397.506 84.0175L399.594 81.3329C399.809 81.0561 399.612 80.6528 399.261 80.6528H395.085C394.735 80.6528 394.538 81.0561 394.753 81.3329Z" fill="#1E2124"/>
<path d="M313.584 98.1498V99.3711H314.333V99.832H313.584V101.048H313.037V98.1498H313.584ZM310.312 98.4263V100.235C311.012 100.229 311.743 100.175 312.535 100.011L312.605 100.46C311.735 100.639 310.945 100.696 310.185 100.696H309.764V98.4263H310.312ZM313.665 101.295V101.739H312.247C312.293 102.249 312.973 102.735 313.878 102.874L313.659 103.294C312.884 103.17 312.247 102.796 311.954 102.298C311.663 102.799 311.023 103.156 310.248 103.283L310.029 102.868C310.94 102.735 311.611 102.257 311.666 101.739H310.237V101.295H313.665ZM316.918 98.265C318.053 98.265 318.762 98.6337 318.762 99.2559C318.762 99.8666 318.053 100.229 316.918 100.229C315.789 100.229 315.075 99.8666 315.075 99.2559C315.075 98.6337 315.789 98.265 316.918 98.265ZM316.918 98.6971C316.123 98.6971 315.633 98.8987 315.639 99.2559C315.633 99.6016 316.123 99.7974 316.918 99.8032C317.707 99.7974 318.197 99.6016 318.197 99.2559C318.197 98.8987 317.707 98.6971 316.918 98.6971ZM318.698 101.531V103.254H315.132V101.531H318.698ZM315.674 101.969V102.81H318.168V101.969H315.674ZM319.274 100.627V101.071H314.568V100.627H319.274Z" fill="#808080"/>
<path d="M409.341 102.223V102.678H404.617V102.223H406.697V101.163H405.159V98.507H405.706V99.3942H408.241V98.507H408.782V101.163H407.239V102.223H409.341ZM405.706 100.719H408.241V99.8378H405.706V100.719ZM414.363 100.869V101.301H409.645V100.869H411.731V100.42H410.262V98.2938H413.787V98.7259H410.815V99.1465H413.655V99.5555H410.815V99.9933H413.822V100.42H412.278V100.869H414.363ZM412.007 101.641C413.142 101.635 413.787 101.935 413.787 102.476C413.787 103.024 413.142 103.312 412.007 103.306C410.861 103.312 410.216 103.024 410.216 102.476C410.216 101.935 410.861 101.635 412.007 101.641ZM412.007 102.05C411.195 102.05 410.757 102.2 410.763 102.476C410.757 102.753 411.195 102.897 412.007 102.891C412.808 102.897 413.24 102.753 413.24 102.476C413.24 102.2 412.808 102.05 412.007 102.05Z" fill="#808080"/>
<path d="M503.894 99.4345V99.8723H502.333V100.46H504.413V100.904H499.706V100.46H501.786V99.8723H500.334V98.265H500.876V99.4345H503.894ZM503.9 101.37V101.796H503.134V102.81H503.946V103.254H500.179V102.81H500.991V101.796H500.225V101.37H503.9ZM501.532 102.81H502.592V101.796H501.532V102.81ZM507.096 98.265C508.231 98.265 508.939 98.6337 508.939 99.2559C508.939 99.8666 508.231 100.229 507.096 100.229C505.967 100.229 505.253 99.8666 505.253 99.2559C505.253 98.6337 505.967 98.265 507.096 98.265ZM507.096 98.6971C506.301 98.6971 505.811 98.8987 505.817 99.2559C505.811 99.6016 506.301 99.7974 507.096 99.8032C507.885 99.7974 508.375 99.6016 508.375 99.2559C508.375 98.8987 507.885 98.6971 507.096 98.6971ZM508.876 101.531V103.254H505.31V101.531H508.876ZM505.852 101.969V102.81H508.346V101.969H505.852ZM509.452 100.627V101.071H504.746V100.627H509.452Z" fill="#808080"/>
</g>
<g filter="url(#filter1_d_845_2538)">
<rect x="82" y="129" width="319.09" height="370" rx="8.46088" fill="white" shape-rendering="crispEdges"/>
<rect x="82.2315" y="129.232" width="318.627" height="369.537" rx="8.22936" stroke="#E6E6E6" stroke-width="0.463042" shape-rendering="crispEdges"/>
<path d="M103.777 150.31V151.043H102.141V153.542H101.221V151.043H99.5929V153.542H98.665V151.043H97.0534V150.31H103.777ZM100.399 146.444C101.961 146.452 103.052 147.087 103.052 148.088C103.052 149.073 101.961 149.7 100.399 149.7C98.8278 149.7 97.7534 149.073 97.7616 148.088C97.7534 147.087 98.8278 146.452 100.399 146.444ZM100.399 147.177C99.3569 147.177 98.6813 147.51 98.6894 148.088C98.6813 148.65 99.3569 148.984 100.399 148.984C101.441 148.984 102.116 148.65 102.116 148.088C102.116 147.51 101.441 147.177 100.399 147.177ZM108.308 146.916V147.633H104.198V146.916H105.842V146.119H106.746V146.916H108.308ZM106.282 147.926C107.283 147.926 107.999 148.479 108.007 149.301C107.999 150.115 107.283 150.66 106.282 150.66C105.28 150.66 104.572 150.115 104.58 149.301C104.572 148.479 105.28 147.926 106.282 147.926ZM106.282 148.601C105.761 148.601 105.419 148.862 105.427 149.301C105.419 149.733 105.761 149.985 106.282 149.985C106.802 149.985 107.161 149.733 107.161 149.301C107.161 148.862 106.802 148.601 106.282 148.601ZM110.343 146.184V150.896H109.44V150.034H108.349V149.309H109.44V148.585H108.357V147.852H109.44V146.184H110.343ZM107.869 150.978C109.423 150.978 110.384 151.45 110.384 152.256C110.384 153.053 109.423 153.534 107.869 153.534C106.314 153.534 105.354 153.053 105.354 152.256C105.354 151.45 106.314 150.978 107.869 150.978ZM107.869 151.67C106.876 151.67 106.306 151.865 106.306 152.256C106.306 152.638 106.876 152.842 107.869 152.842C108.854 152.842 109.415 152.638 109.415 152.256C109.415 151.865 108.854 151.67 107.869 151.67ZM117.463 146.184V149.985H116.56V149.187H115.078V149.749H111.635V146.509H112.539V147.437H114.183V146.509H115.078V147.16H116.56V146.184H117.463ZM117.463 150.286V152.174H113.524V152.736H117.699V153.452H112.62V151.507H116.56V150.994H112.612V150.286H117.463ZM112.539 149.033H114.183V148.129H112.539V149.033ZM115.078 148.495H116.56V147.844H115.078V148.495ZM127.039 151.914V152.655H120.316V151.914H123.214V150.481H121.057V146.672H121.96V147.877H125.371V146.672H126.274V150.481H124.109V151.914H127.039ZM121.96 149.749H125.371V148.601H121.96V149.749ZM133.581 146.184V153.542H132.67V146.184H133.581ZM131.384 146.965C131.384 149.155 130.537 151.019 127.957 152.239L127.485 151.515C129.41 150.599 130.305 149.354 130.464 147.681H127.859V146.965H131.384Z" fill="#1A1A1A"/>
<path d="M100.29 161.938V162.401H97.0634V161.938H98.4019V161.019H98.9662V161.938H100.29ZM98.6768 162.835C99.4871 162.835 100.066 163.443 100.073 164.296C100.066 165.157 99.4871 165.772 98.6768 165.772C97.8737 165.772 97.2949 165.157 97.2949 164.296C97.2949 163.443 97.8737 162.835 98.6768 162.835ZM98.6768 163.312C98.1703 163.32 97.8013 163.732 97.8013 164.296C97.8013 164.868 98.1703 165.28 98.6768 165.273C99.1905 165.28 99.5667 164.868 99.5667 164.296C99.5667 163.732 99.1905 163.32 98.6768 163.312ZM102.555 160.824V167.255H102.012V164.007H101.158V166.937H100.623V160.983H101.158V163.537H102.012V160.824H102.555ZM108.442 160.824V162.502H109.405V162.98H108.442V164.665H107.871V160.824H108.442ZM106.373 164.788C107.683 164.788 108.493 165.244 108.493 166.011C108.493 166.792 107.683 167.241 106.373 167.241C105.056 167.241 104.239 166.792 104.239 166.011C104.239 165.244 105.056 164.788 106.373 164.788ZM106.373 165.259C105.404 165.251 104.796 165.541 104.796 166.011C104.796 166.489 105.404 166.785 106.373 166.785C107.335 166.785 107.943 166.489 107.943 166.011C107.943 165.541 107.335 165.251 106.373 165.259ZM106.561 161.316V161.786H104.26V163.674C105.563 163.667 106.315 163.627 107.176 163.45L107.234 163.92C106.337 164.101 105.563 164.137 104.203 164.137H103.703V161.316H106.561ZM117.403 164.492V164.962H115.848V167.255H115.276V164.962H113.626V167.255H113.04V164.962H111.514V164.492H117.403ZM114.444 161.084C115.797 161.084 116.708 161.627 116.708 162.488C116.708 163.341 115.797 163.884 114.444 163.877C113.091 163.884 112.179 163.341 112.179 162.488C112.179 161.627 113.091 161.084 114.444 161.084ZM114.444 161.547C113.438 161.547 112.758 161.916 112.765 162.488C112.758 163.059 113.438 163.421 114.444 163.421C115.442 163.421 116.13 163.059 116.13 162.488C116.13 161.916 115.442 161.547 114.444 161.547ZM121.496 161.547V162.01H117.857V161.547H119.42V160.773H119.984V161.547H121.496ZM119.695 162.343C120.556 162.343 121.164 162.813 121.164 163.529C121.164 164.253 120.556 164.723 119.695 164.723C118.827 164.723 118.233 164.253 118.241 163.529C118.233 162.813 118.827 162.343 119.695 162.343ZM119.695 162.77C119.138 162.777 118.769 163.081 118.769 163.529C118.769 163.985 119.138 164.282 119.695 164.282C120.252 164.282 120.628 163.985 120.635 163.529C120.628 163.081 120.252 162.777 119.695 162.77ZM123.182 160.824V164.984H122.611V164.094H121.489V163.623H122.611V162.842H121.496V162.372H122.611V160.824H123.182ZM121.062 165.049C122.401 165.049 123.218 165.447 123.218 166.149C123.218 166.836 122.401 167.241 121.062 167.241C119.709 167.241 118.899 166.836 118.899 166.149C118.899 165.447 119.709 165.049 121.062 165.049ZM121.062 165.49C120.086 165.49 119.485 165.729 119.485 166.149C119.485 166.554 120.086 166.8 121.062 166.8C122.025 166.8 122.618 166.554 122.618 166.149C122.618 165.729 122.025 165.49 121.062 165.49ZM127.109 160.939C128.542 160.939 129.381 161.33 129.381 162.046C129.381 162.777 128.542 163.168 127.109 163.175C125.676 163.168 124.83 162.777 124.83 162.046C124.83 161.33 125.676 160.939 127.109 160.939ZM127.109 161.366C126.038 161.366 125.416 161.627 125.423 162.046C125.416 162.495 126.038 162.741 127.109 162.741C128.173 162.741 128.802 162.495 128.802 162.046C128.802 161.627 128.173 161.366 127.109 161.366ZM130.039 163.609V164.072H124.179V163.609H130.039ZM129.287 164.629V166.069H125.467V166.735H129.482V167.183H124.902V165.649H128.73V165.063H124.888V164.629H129.287ZM137.408 161.142V161.627C137.408 162.122 137.408 162.705 137.256 163.464H138.153V163.927H132.3V163.464H136.685C136.746 163.157 136.786 162.882 136.808 162.632L132.959 162.799L132.886 162.343L136.837 162.22C136.844 162.014 136.844 161.815 136.844 161.627V161.605H133.038V161.142H137.408ZM137.459 164.55V166.033H133.566V166.713H137.683V167.169H133.002V165.599H136.895V164.991H132.988V164.55H137.459ZM143.932 160.831V164.759H143.368V160.831H143.932ZM143.932 165.107V167.255H143.368V165.577H139.606V165.107H143.932ZM141.885 161.214V162.987H139.512V163.92C140.662 163.92 141.523 163.884 142.565 163.725L142.63 164.188C141.552 164.354 140.669 164.39 139.483 164.39H138.962V162.538H141.321V161.677H138.948V161.214H141.885ZM149.929 160.824V163.479H151.007V163.949H149.929V167.255H149.364V160.824H149.929ZM148.742 161.858V162.328H144.915V161.858H146.572V160.903H147.136V161.858H148.742ZM146.861 162.864C147.773 162.864 148.431 163.472 148.438 164.34C148.431 165.208 147.773 165.816 146.861 165.816C145.942 165.816 145.276 165.208 145.284 164.34C145.276 163.472 145.942 162.864 146.861 162.864ZM146.861 163.341C146.26 163.341 145.819 163.761 145.826 164.34C145.819 164.926 146.26 165.338 146.861 165.331C147.454 165.338 147.888 164.926 147.896 164.34C147.888 163.761 147.454 163.341 146.861 163.341ZM154.536 161.388V161.959H156.04V160.831H156.612V165.526H156.04V163.812H154.536V164.39H151.584V161.388H154.536ZM152.148 161.858V163.935H153.978V161.858H152.148ZM156.757 166.64V167.118H152.452V165.107H153.023V166.64H156.757ZM154.536 163.341H156.04V162.437H154.536V163.341ZM165.254 163.92V164.39H159.394V163.92H165.254ZM164.748 162.857V163.32H162.512V161.142H164.69V161.605H163.084V162.857H164.748ZM162.151 161.142V161.605H160.523V162.857C161.08 162.849 161.626 162.81 162.237 162.668L162.302 163.139C161.572 163.298 160.957 163.32 160.313 163.32H159.944V161.142H162.151ZM162.621 165.107C162.621 165.975 163.634 166.612 164.806 166.778L164.589 167.227C163.612 167.064 162.718 166.604 162.331 165.895C161.944 166.604 161.051 167.064 160.074 167.227L159.857 166.778C161.022 166.612 162.042 165.975 162.042 165.107V164.897H162.621V165.107ZM169.29 161.54V161.873C169.283 162.379 169.283 163.233 169.102 164.427L168.53 164.376C168.704 163.298 168.718 162.517 168.718 162.003H166.02V161.54H169.29ZM167.604 163.377V165.331C168.317 165.306 169.047 165.259 169.717 165.179L169.746 165.606C168.393 165.816 166.881 165.845 165.73 165.837L165.658 165.367C166.081 165.364 166.551 165.36 167.047 165.345V163.377H167.604ZM170.686 160.824V163.515H171.728V164.007H170.686V167.255H170.122V160.824H170.686ZM179.329 160.824V167.255H178.771V163.891H177.882V166.937H177.339V160.997H177.882V163.421H178.771V160.824H179.329ZM176.608 161.663C176.601 163.298 176.029 164.846 174.177 165.874L173.844 165.476C175.338 164.644 175.957 163.464 176.051 162.133H174.09V161.663H176.608ZM182.366 162.039C182.366 162.936 183.017 163.783 183.957 164.123L183.639 164.564C182.933 164.282 182.373 163.721 182.098 163.023C181.823 163.801 181.237 164.419 180.477 164.723L180.173 164.26C181.136 163.906 181.801 163.009 181.808 162.017V161.221H182.366V162.039ZM185.498 160.831V165.649H184.927V162.82H183.494V162.343H184.927V160.831H185.498ZM185.643 166.64V167.118H181.338V165.099H181.91V166.64H185.643ZM189.461 164.868C190.785 164.868 191.581 165.302 191.581 166.054C191.581 166.814 190.785 167.248 189.461 167.255C188.137 167.248 187.327 166.814 187.327 166.054C187.327 165.302 188.137 164.868 189.461 164.868ZM189.461 165.316C188.492 165.324 187.891 165.591 187.899 166.054C187.891 166.517 188.492 166.792 189.461 166.792C190.438 166.792 191.031 166.517 191.031 166.054C191.031 165.591 190.438 165.324 189.461 165.316ZM191.523 160.824V162.444H192.493V162.929H191.523V164.694H190.959V160.824H191.523ZM187.327 161.229V162.213H189.201V161.229H189.765V164.195H186.77V161.229H187.327ZM187.327 163.732H189.201V162.661H187.327V163.732ZM198.807 161.952V162.422H197.852V163.312H198.807V163.79H197.852V164.976H197.288V160.824H197.852V161.952H198.807ZM195.819 165.02C197.129 165.02 197.925 165.432 197.925 166.134C197.925 166.836 197.129 167.241 195.819 167.241C194.51 167.241 193.707 166.836 193.714 166.134C193.707 165.432 194.51 165.02 195.819 165.02ZM195.819 165.468C194.857 165.468 194.271 165.707 194.278 166.134C194.271 166.554 194.857 166.8 195.819 166.8C196.781 166.8 197.36 166.554 197.36 166.134C197.36 165.707 196.781 165.468 195.819 165.468ZM196.673 161.562V162.01H192.838V161.562H194.473V160.773H195.038V161.562H196.673ZM194.756 162.343C195.682 162.343 196.297 162.791 196.304 163.479C196.297 164.173 195.682 164.615 194.756 164.615C193.822 164.615 193.2 164.173 193.207 163.479C193.2 162.791 193.822 162.343 194.756 162.343ZM194.756 162.77C194.148 162.777 193.743 163.059 193.75 163.479C193.743 163.898 194.148 164.173 194.756 164.173C195.356 164.173 195.761 163.898 195.769 163.479C195.761 163.059 195.356 162.777 194.756 162.77ZM202.083 160.939C203.516 160.939 204.355 161.33 204.355 162.046C204.355 162.777 203.516 163.168 202.083 163.175C200.65 163.168 199.804 162.777 199.804 162.046C199.804 161.33 200.65 160.939 202.083 160.939ZM202.083 161.366C201.012 161.366 200.39 161.627 200.397 162.046C200.39 162.495 201.012 162.741 202.083 162.741C203.147 162.741 203.776 162.495 203.776 162.046C203.776 161.627 203.147 161.366 202.083 161.366ZM205.013 163.609V164.072H199.153V163.609H205.013ZM204.261 164.629V166.069H200.441V166.735H204.456V167.183H199.876V165.649H203.704V165.063H199.862V164.629H204.261ZM212.288 160.831V162.777H213.25V163.255H212.288V165.143H211.717V160.831H212.288ZM207.238 164.484C207.752 164.484 208.352 164.484 208.982 164.463V163.992C208.233 163.927 207.752 163.576 207.752 163.045C207.752 162.459 208.352 162.097 209.257 162.097C210.168 162.097 210.762 162.459 210.769 163.045C210.762 163.573 210.291 163.924 209.546 163.992V164.441C210.147 164.412 210.754 164.365 211.319 164.282L211.369 164.694C209.973 164.94 208.432 164.947 207.303 164.947L207.238 164.484ZM212.288 165.461V167.255H211.717V165.917H208.027V165.461H212.288ZM211.123 161.417V161.851H207.397V161.417H208.982V160.773H209.546V161.417H211.123ZM209.257 162.502C208.663 162.495 208.294 162.705 208.294 163.045C208.294 163.377 208.663 163.609 209.257 163.602C209.85 163.609 210.226 163.377 210.226 163.045C210.226 162.705 209.85 162.495 209.257 162.502ZM218.906 160.831V165.534H218.342V160.831H218.906ZM219.109 166.64V167.118H214.754V165.056H215.318V166.64H219.109ZM215.434 161.279C216.396 161.279 217.119 161.93 217.119 162.857C217.119 163.797 216.396 164.441 215.434 164.441C214.471 164.441 213.748 163.797 213.748 162.857C213.748 161.93 214.471 161.279 215.434 161.279ZM215.434 161.779C214.782 161.779 214.298 162.227 214.305 162.857C214.298 163.5 214.782 163.942 215.434 163.942C216.07 163.942 216.562 163.5 216.562 162.857C216.562 162.227 216.07 161.779 215.434 161.779ZM224.953 160.802V162.365H225.93V162.835H224.953V164.361H224.389V160.802H224.953ZM224.953 164.694V166.12H221.422V166.749H225.192V167.183H220.865V165.7H224.389V165.121H220.851V164.694H224.953ZM223.774 161.41V161.865H219.939V161.41H221.574V160.758H222.139V161.41H223.774ZM221.857 162.155C222.79 162.155 223.398 162.56 223.405 163.211C223.398 163.862 222.79 164.267 221.857 164.267C220.916 164.267 220.301 163.862 220.308 163.211C220.301 162.56 220.916 162.155 221.857 162.155ZM221.857 162.574C221.249 162.574 220.844 162.828 220.851 163.211C220.844 163.602 221.249 163.841 221.857 163.841C222.464 163.841 222.862 163.602 222.869 163.211C222.862 162.828 222.464 162.574 221.857 162.574ZM231.266 161.424C231.266 162.328 232.452 163.117 233.61 163.276L233.379 163.739C232.38 163.573 231.393 163.019 230.976 162.227C230.564 163.023 229.573 163.573 228.574 163.739L228.343 163.276C229.501 163.117 230.68 162.343 230.68 161.424V161.055H231.266V161.424ZM233.899 164.448V164.926H231.237V167.255H230.68V164.926H228.039V164.448H233.899ZM238.331 165.143C238.331 165.711 238.635 166.315 239.25 166.662C239.858 166.282 240.183 165.642 240.183 165.143V164.788H240.74V165.143C240.74 165.801 241.225 166.467 242.05 166.749L241.768 167.169C241.124 166.941 240.672 166.492 240.451 165.953C240.252 166.474 239.858 166.966 239.264 167.219C238.639 166.981 238.241 166.507 238.049 165.968C237.821 166.489 237.376 166.937 236.761 167.169L236.472 166.749C237.282 166.445 237.774 165.758 237.781 165.143V164.788H238.331V165.143ZM241.464 160.831V164.506H240.899V160.831H241.464ZM237.991 161.207C238.968 161.207 239.677 161.815 239.677 162.712C239.677 163.595 238.968 164.202 237.991 164.202C237.014 164.202 236.305 163.595 236.305 162.712C236.305 161.815 237.014 161.207 237.991 161.207ZM237.991 161.692C237.333 161.685 236.855 162.111 236.862 162.712C236.855 163.305 237.333 163.725 237.991 163.732C238.642 163.725 239.12 163.305 239.12 162.712C239.12 162.111 238.642 161.685 237.991 161.692ZM244.211 161.323C245.087 161.33 245.716 162.079 245.81 163.283H247.25V160.824H247.814V167.27H247.25V163.754H245.818C245.749 165.013 245.109 165.801 244.211 165.801C243.264 165.801 242.598 164.933 242.598 163.566C242.598 162.198 243.264 161.33 244.211 161.323ZM244.211 161.829C243.575 161.836 243.141 162.517 243.141 163.566C243.141 164.615 243.575 165.295 244.211 165.295C244.841 165.295 245.282 164.615 245.282 163.566C245.282 162.517 244.841 161.836 244.211 161.829ZM254.7 165.953V166.431H248.811V165.953H250.273V164.217C249.723 163.931 249.39 163.468 249.39 162.886C249.39 161.887 250.367 161.236 251.741 161.229C253.116 161.236 254.093 161.887 254.093 162.886C254.093 163.457 253.771 163.917 253.239 164.202V165.953H254.7ZM251.741 161.699C250.685 161.692 249.94 162.169 249.94 162.886C249.94 163.602 250.685 164.087 251.741 164.087C252.79 164.087 253.543 163.602 253.543 162.886C253.543 162.169 252.79 161.692 251.741 161.699ZM250.83 165.953H252.667V164.419C252.389 164.495 252.078 164.535 251.741 164.535C251.412 164.535 251.105 164.499 250.83 164.427V165.953ZM256.182 161.431L256.131 165.193H255.523L255.473 161.431H256.182ZM255.827 166.713C255.574 166.713 255.357 166.503 255.364 166.243C255.357 165.989 255.574 165.78 255.827 165.78C256.081 165.78 256.29 165.989 256.29 166.243C256.29 166.503 256.081 166.713 255.827 166.713Z" fill="#666666"/>
<rect width="289.455" height="37.7823" transform="translate(96.8174 180.783)" fill="white"/>
<rect x="101.448" y="195.043" width="9.26083" height="9.26083" rx="4.63042" fill="#333333"/>
<path d="M106.499 197.745V201.674H105.788V198.434H105.766L104.849 199.02V198.375L105.821 197.745H106.499Z" fill="white"/>
<path d="M119.555 198.401C119.506 197.896 119.074 197.603 118.439 197.603C117.772 197.603 117.365 197.929 117.365 198.368C117.365 198.865 117.886 199.068 118.374 199.182L118.928 199.329C119.807 199.532 120.653 199.996 120.653 201.022C120.653 202.055 119.839 202.763 118.423 202.763C117.048 202.763 116.185 202.104 116.136 200.94H117.178C117.227 201.559 117.748 201.86 118.415 201.86C119.115 201.86 119.595 201.518 119.595 201.013C119.595 200.549 119.164 200.354 118.529 200.191L117.862 200.02C116.893 199.768 116.291 199.28 116.291 198.433C116.291 197.391 117.219 196.7 118.456 196.7C119.709 196.7 120.556 197.408 120.572 198.401H119.555ZM122.442 200.085V202.674H121.4V198.254H122.393V199.003H122.45C122.654 198.506 123.101 198.197 123.761 198.197C124.68 198.197 125.283 198.799 125.275 199.858V202.674H124.241V200.02C124.241 199.426 123.923 199.076 123.378 199.076C122.825 199.076 122.442 199.442 122.442 200.085ZM128.146 202.763C126.811 202.763 125.997 201.876 125.997 200.492C125.997 199.125 126.827 198.197 128.089 198.197C129.171 198.197 130.107 198.873 130.107 200.427V200.753H127.023C127.035 201.506 127.478 201.949 128.154 201.949C128.61 201.949 128.919 201.754 129.049 201.494H130.067C129.88 202.259 129.171 202.763 128.146 202.763ZM127.031 200.045H129.114C129.106 199.442 128.707 199.003 128.105 199.003C127.478 199.003 127.063 199.479 127.031 200.045ZM130.626 201.428C130.626 200.435 131.448 200.142 132.271 200.094C132.576 200.073 133.211 200.037 133.402 200.029V199.679C133.402 199.239 133.117 198.987 132.604 198.987C132.14 198.987 131.855 199.198 131.774 199.516H130.773C130.846 198.767 131.522 198.197 132.629 198.197C133.467 198.197 134.436 198.539 134.436 199.719V202.674H133.443V202.063H133.41C133.215 202.438 132.8 202.763 132.108 202.763C131.261 202.763 130.626 202.299 130.626 201.428ZM131.628 201.42C131.628 201.803 131.937 201.998 132.376 201.998C133.003 201.998 133.41 201.583 133.41 201.087V200.72L132.433 200.785C131.937 200.826 131.628 201.03 131.628 201.42ZM135.329 202.674V196.781H136.371V200.029H136.444L138.031 198.254H139.244L137.535 200.159L139.35 202.674H138.113L136.753 200.777L136.371 201.184V202.674H135.329ZM139.779 202.674V198.254H140.821V202.674H139.779ZM140.308 197.627C139.983 197.627 139.706 197.375 139.706 197.058C139.706 196.748 139.983 196.496 140.308 196.496C140.642 196.496 140.911 196.748 140.911 197.058C140.911 197.375 140.642 197.627 140.308 197.627ZM142.773 200.085V202.674H141.731V198.254H142.724V199.003H142.781C142.984 198.506 143.432 198.197 144.091 198.197C145.011 198.197 145.613 198.799 145.605 199.858V202.674H144.571V200.02C144.571 199.426 144.254 199.076 143.709 199.076C143.155 199.076 142.773 199.442 142.773 200.085ZM148.444 204.424C147.272 204.424 146.531 203.903 146.458 203.073H147.492C147.565 203.455 147.931 203.642 148.46 203.642C149.079 203.642 149.486 203.374 149.486 202.723V201.876H149.437C149.274 202.202 148.924 202.609 148.159 202.609C147.142 202.609 146.336 201.868 146.336 200.427C146.336 198.97 147.142 198.197 148.167 198.197C148.949 198.197 149.274 198.661 149.437 198.979H149.486V198.254H150.511V202.747C150.511 203.878 149.64 204.424 148.444 204.424ZM148.444 201.795C149.111 201.795 149.494 201.29 149.494 200.444C149.494 199.605 149.119 199.044 148.444 199.044C147.752 199.044 147.394 199.638 147.394 200.444C147.394 201.258 147.76 201.795 148.444 201.795Z" fill="black"/>
<g filter="url(#filter2_d_845_2538)">
<rect x="155.506" y="193.322" width="33.6695" height="12.7043" rx="1.85217" fill="white" shape-rendering="crispEdges"/>
<rect x="155.738" y="193.553" width="33.2065" height="12.2413" rx="1.62065" stroke="#CCCCCC" stroke-width="0.463042" shape-rendering="crispEdges"/>
<path d="M161.395 198.711C161.395 199.61 161.984 200.61 162.844 201.015L162.503 201.484C161.866 201.177 161.363 200.537 161.11 199.794C160.847 200.607 160.315 201.307 159.667 201.629L159.312 201.155C160.173 200.743 160.8 199.673 160.8 198.711V198.11H159.521V197.609H162.629V198.11H161.395V198.711ZM163.838 197.04V199.287H164.75V199.794H163.838V202.712H163.237V197.04H163.838ZM166.686 198.591C166.686 199.496 167.066 200.465 167.825 200.927L167.49 201.389C166.958 201.069 166.597 200.503 166.407 199.844C166.195 200.566 165.806 201.18 165.255 201.515L164.881 201.066C165.685 200.585 166.103 199.585 166.103 198.616V197.559H166.686V198.591ZM169.838 197.04V202.712H169.262V197.04H169.838ZM168.661 197.147V202.433H168.091V199.534H167.211V199.034H168.091V197.147H168.661ZM175.193 197.04V202.712H174.591V197.04H175.193ZM174.04 197.939V198.426H170.622V197.939H172.021V197.097H172.629V197.939H174.04ZM172.337 198.838C173.167 198.838 173.768 199.382 173.768 200.154C173.768 200.933 173.167 201.471 172.337 201.477C171.514 201.471 170.913 200.933 170.913 200.154C170.913 199.382 171.514 198.838 172.337 198.838ZM172.337 199.331C171.844 199.331 171.483 199.667 171.483 200.154C171.483 200.648 171.844 200.977 172.337 200.971C172.831 200.977 173.192 200.648 173.192 200.154C173.192 199.667 172.831 199.331 172.337 199.331Z" fill="#666666"/>
<path d="M179.288 200.437L181.603 198.121C181.625 198.1 181.65 198.083 181.678 198.071C181.707 198.059 181.737 198.053 181.767 198.053C181.798 198.053 181.828 198.059 181.856 198.071C181.884 198.083 181.909 198.1 181.931 198.121L184.246 200.437C184.29 200.48 184.314 200.539 184.314 200.6C184.314 200.662 184.29 200.721 184.246 200.764C184.203 200.808 184.144 200.832 184.082 200.832C184.021 200.832 183.962 200.808 183.919 200.764L181.767 198.612L179.616 200.764C179.594 200.786 179.569 200.803 179.541 200.814C179.512 200.826 179.482 200.832 179.452 200.832C179.421 200.832 179.391 200.826 179.363 200.814C179.335 200.803 179.31 200.786 179.288 200.764C179.267 200.743 179.25 200.717 179.238 200.689C179.226 200.661 179.22 200.631 179.22 200.6C179.22 200.57 179.226 200.54 179.238 200.512C179.25 200.484 179.267 200.458 179.288 200.437Z" fill="#4D4D4D"/>
</g>
<rect x="231.1" y="199.304" width="155.173" height="5.5565" rx="2.77825" fill="#F3F3F3"/>
<rect x="231.1" y="199.304" width="125.424" height="5.5565" rx="2.77825" fill="#F54141"/>
<path d="M344.252 182.635C344.252 181.612 345.082 180.783 346.105 180.783H365.513C366.536 180.783 367.365 181.612 367.365 182.635V190.635C367.365 191.658 366.536 192.487 365.513 192.487H346.105C345.082 192.487 344.252 191.658 344.252 190.635V182.635Z" fill="#1E2124"/>
<path d="M351.491 188.689C350.666 188.689 350.091 188.233 350.096 187.593C350.091 187.083 350.444 186.665 350.894 186.594V186.573C350.503 186.481 350.248 186.122 350.248 185.694C350.248 185.091 350.775 184.652 351.491 184.652C352.207 184.652 352.734 185.091 352.739 185.694C352.734 186.122 352.473 186.481 352.088 186.573V186.594C352.533 186.665 352.886 187.083 352.891 187.593C352.886 188.233 352.31 188.689 351.491 188.689ZM351.491 188.26C352.055 188.26 352.403 187.978 352.403 187.566C352.403 187.132 352.017 186.812 351.491 186.812C350.965 186.812 350.574 187.132 350.585 187.566C350.574 187.978 350.927 188.26 351.491 188.26ZM351.491 186.399C351.936 186.399 352.262 186.128 352.262 185.732C352.262 185.341 351.952 185.075 351.491 185.075C351.024 185.075 350.72 185.341 350.72 185.732C350.72 186.128 351.041 186.399 351.491 186.399ZM354.834 188.689C353.96 188.689 353.461 187.956 353.461 186.67C353.461 185.395 353.971 184.652 354.834 184.652C355.696 184.652 356.206 185.395 356.206 186.67C356.206 187.956 355.702 188.689 354.834 188.689ZM354.834 188.255C355.398 188.255 355.729 187.685 355.729 186.67C355.729 185.656 355.398 185.075 354.834 185.075C354.269 185.075 353.933 185.656 353.933 186.67C353.933 187.685 354.264 188.255 354.834 188.255ZM357.688 186.529C357.178 186.529 356.901 186.15 356.901 185.585C356.901 185.032 357.189 184.646 357.688 184.646C358.203 184.646 358.475 185.032 358.475 185.585C358.475 186.15 358.192 186.529 357.688 186.529ZM357.688 186.193C357.954 186.193 358.078 185.954 358.078 185.585C358.078 185.222 357.965 184.977 357.688 184.983C357.427 184.983 357.297 185.222 357.297 185.585C357.297 185.954 357.427 186.193 357.688 186.193ZM360.086 188.689C359.576 188.694 359.294 188.309 359.299 187.75C359.294 187.191 359.587 186.806 360.086 186.806C360.596 186.806 360.868 187.191 360.868 187.75C360.868 188.309 360.585 188.694 360.086 188.689ZM360.086 188.353C360.347 188.353 360.471 188.114 360.471 187.75C360.471 187.381 360.358 187.137 360.086 187.143C359.826 187.148 359.69 187.381 359.69 187.75C359.69 188.114 359.82 188.353 360.086 188.353ZM357.286 188.635L359.989 184.706H360.428L357.726 188.635H357.286Z" fill="white"/>
<path d="M353.149 191.845L355.443 194.796C355.629 195.034 355.989 195.034 356.174 194.796L358.469 191.845C358.706 191.541 358.489 191.098 358.103 191.098H353.514C353.129 191.098 352.912 191.541 353.149 191.845Z" fill="#1E2124"/>
<path d="M235.765 210.424V211.767H236.588V212.273H235.765V213.609H235.164V210.424H235.765ZM232.169 210.728V212.716C232.939 212.71 233.743 212.65 234.613 212.469L234.689 212.963C233.733 213.159 232.866 213.223 232.03 213.223H231.568V210.728H232.169ZM235.854 213.881V214.368H234.297C234.347 214.929 235.094 215.464 236.088 215.616L235.848 216.078C234.996 215.942 234.297 215.53 233.974 214.983C233.654 215.533 232.951 215.926 232.1 216.065L231.859 215.609C232.86 215.464 233.597 214.938 233.657 214.368H232.087V213.881H235.854ZM239.429 210.551C240.676 210.551 241.455 210.956 241.455 211.64C241.455 212.311 240.676 212.71 239.429 212.71C238.188 212.71 237.403 212.311 237.403 211.64C237.403 210.956 238.188 210.551 239.429 210.551ZM239.429 211.026C238.556 211.026 238.017 211.247 238.024 211.64C238.017 212.02 238.556 212.235 239.429 212.241C240.297 212.235 240.835 212.02 240.835 211.64C240.835 211.247 240.297 211.026 239.429 211.026ZM241.385 214.141V216.033H237.467V214.141H241.385ZM238.062 214.622V215.546H240.803V214.622H238.062ZM242.018 213.147V213.634H236.846V213.147H242.018Z" fill="#808080"/>
<path d="M308.086 214.9V215.4H302.895V214.9H305.181V213.735H303.49V210.817H304.092V211.792H306.877V210.817H307.472V213.735H305.776V214.9H308.086ZM304.092 213.248H306.877V212.279H304.092V213.248ZM313.605 213.413V213.887H308.42V213.413H310.712V212.919H309.098V210.583H312.972V211.058H309.705V211.52H312.826V211.969H309.705V212.45H313.01V212.919H311.313V213.413H313.605ZM311.016 214.261C312.263 214.254 312.972 214.584 312.972 215.179C312.972 215.78 312.263 216.097 311.016 216.09C309.756 216.097 309.047 215.78 309.047 215.179C309.047 214.584 309.756 214.254 311.016 214.261ZM311.016 214.71C310.123 214.71 309.642 214.875 309.648 215.179C309.642 215.483 310.123 215.641 311.016 215.635C311.896 215.641 312.371 215.483 312.371 215.179C312.371 214.875 311.896 214.71 311.016 214.71Z" fill="#808080"/>
<path d="M379.084 211.836V212.317H377.369V212.963H379.654V213.451H374.482V212.963H376.767V212.317H375.172V210.551H375.767V211.836H379.084ZM379.091 213.963V214.432H378.249V215.546H379.141V216.033H375.001V215.546H375.894V214.432H375.052V213.963H379.091ZM376.489 215.546H377.654V214.432H376.489V215.546ZM382.603 210.551C383.85 210.551 384.628 210.956 384.628 211.64C384.628 212.311 383.85 212.71 382.603 212.71C381.362 212.71 380.577 212.311 380.577 211.64C380.577 210.956 381.362 210.551 382.603 210.551ZM382.603 211.026C381.729 211.026 381.191 211.247 381.197 211.64C381.191 212.02 381.729 212.235 382.603 212.241C383.47 212.235 384.008 212.02 384.008 211.64C384.008 211.247 383.47 211.026 382.603 211.026ZM384.559 214.141V216.033H380.64V214.141H384.559ZM381.235 214.622V215.546H383.976V214.622H381.235ZM385.192 213.147V213.634H380.02V213.147H385.192Z" fill="#808080"/>
<rect x="97.0489" y="228.057" width="288.992" height="138.989" rx="5.32498" stroke="#E6E6E6" stroke-width="0.463042"/>
<rect x="106.078" y="237.086" width="26.4087" height="10.8522" rx="1.85217" fill="#E6E6E6"/>
<path d="M115.189 242.537V243.107H109.972V242.537H115.189ZM114.733 241.55V242.113H112.745V240.132H114.695V240.689H113.454V241.55H114.733ZM112.448 240.132V240.689H111.163V241.55C111.625 241.54 112.033 241.506 112.492 241.404L112.555 241.974C111.954 242.101 111.441 242.113 110.802 242.113H110.46V240.132H112.448ZM112.941 243.607C112.941 244.272 113.638 244.854 114.828 244.994L114.568 245.544C113.644 245.415 112.938 245.032 112.587 244.475C112.236 245.032 111.53 245.415 110.605 245.544L110.352 244.994C111.536 244.854 112.226 244.272 112.226 243.607V243.474H112.941V243.607ZM121.776 239.853V242.784H121.073V241.335H119.934V240.771H121.073V239.853H121.776ZM121.776 243.031V244.513H118.706V244.949H121.96V245.506H118.016V243.987H121.08V243.582H118.009V243.031H121.776ZM119.06 240.499C119.06 241.202 119.522 241.873 120.409 242.145L120.035 242.689C119.415 242.48 118.965 242.078 118.718 241.556C118.465 242.142 117.997 242.594 117.319 242.816L116.952 242.253C117.87 241.974 118.351 241.271 118.351 240.499V240.043H119.06V240.499ZM127.314 239.853V243.221H126.611V242.43H125.459V242.873H122.768V240.284H125.459V240.727H126.611V239.853H127.314ZM123.471 240.841V242.31H124.763V240.841H123.471ZM125.377 243.373C126.592 243.373 127.333 243.778 127.333 244.475C127.333 245.171 126.592 245.57 125.377 245.57C124.167 245.57 123.427 245.171 123.433 244.475C123.427 243.778 124.167 243.373 125.377 243.373ZM125.377 243.911C124.579 243.911 124.129 244.107 124.129 244.475C124.129 244.829 124.579 245.025 125.377 245.025C126.174 245.025 126.63 244.829 126.63 244.475C126.63 244.107 126.174 243.911 125.377 243.911ZM125.459 241.86H126.611V241.284H125.459V241.86Z" fill="#1A1A1A"/>
<rect x="106.078" y="253.938" width="271" height="5" rx="2.5" fill="#F3F3F3"/>
<rect x="106.078" y="266.938" width="226" height="5" rx="2.5" fill="#F3F3F3"/>
<rect x="106.078" y="288.608" width="30.4087" height="10.8522" rx="1.85217" fill="#E7F8F8"/>
<path d="M114.885 291.375V297.098H114.208V294.161H113.594V296.832H112.935V291.527H113.594V293.591H114.208V291.375H114.885ZM112.448 292.097C112.448 293.642 111.96 294.971 110.333 295.902L109.928 295.414C111.147 294.708 111.663 293.803 111.764 292.66H110.194V292.097H112.448ZM117.593 292.388C117.593 293.148 118.049 293.888 118.935 294.192L118.549 294.743C117.932 294.509 117.489 294.063 117.251 293.502C117.001 294.129 116.536 294.626 115.865 294.876L115.491 294.319C116.409 294.009 116.878 293.217 116.884 292.382V291.73H117.593V292.388ZM120.302 291.382V295.629H119.6V293.217H118.46V292.641H119.6V291.382H120.302ZM120.429 296.414V296.984H116.529V295.167H117.245V296.414H120.429ZM123.701 294.908C124.884 294.908 125.612 295.307 125.619 295.997C125.612 296.693 124.884 297.098 123.701 297.098C122.504 297.098 121.763 296.693 121.763 295.997C121.763 295.307 122.504 294.908 123.701 294.908ZM123.701 295.458C122.916 295.458 122.466 295.642 122.466 295.997C122.466 296.351 122.916 296.541 123.701 296.541C124.486 296.541 124.922 296.351 124.922 295.997C124.922 295.642 124.486 295.458 123.701 295.458ZM125.562 291.375V292.743H126.359V293.331H125.562V294.768H124.859V291.375H125.562ZM121.941 291.736V292.508H123.276V291.736H123.973V294.408H121.244V291.736H121.941ZM121.941 293.85H123.276V293.059H121.941V293.85ZM131.878 292.268V292.844H131.1V293.496H131.878V294.072H131.1V295.028H130.397V291.375H131.1V292.268H131.878ZM129.251 295.079C130.422 295.079 131.163 295.452 131.163 296.085C131.163 296.712 130.422 297.092 129.251 297.092C128.061 297.092 127.333 296.712 127.339 296.085C127.333 295.452 128.061 295.079 129.251 295.079ZM129.251 295.617C128.466 295.617 128.029 295.769 128.036 296.085C128.029 296.389 128.466 296.56 129.251 296.56C130.023 296.56 130.46 296.389 130.46 296.085C130.46 295.769 130.023 295.617 129.251 295.617ZM129.985 291.958V292.508H126.592V291.958H127.941V291.337H128.643V291.958H129.985ZM128.289 292.736C129.118 292.736 129.681 293.148 129.688 293.762C129.681 294.376 129.118 294.781 128.289 294.781C127.453 294.781 126.883 294.376 126.883 293.762C126.883 293.148 127.453 292.736 128.289 292.736ZM128.289 293.255C127.852 293.255 127.567 293.445 127.567 293.762C127.567 294.072 127.852 294.249 128.289 294.249C128.726 294.249 129.017 294.072 129.017 293.762C129.017 293.445 128.726 293.255 128.289 293.255Z" fill="#068EA5"/>
<path d="M108.152 306.775V311.017H107.385V307.519H107.361L106.371 308.152V307.455L107.42 306.775H108.152ZM109.358 311.064C109.106 311.064 108.901 310.859 108.901 310.607C108.901 310.361 109.106 310.156 109.358 310.156C109.598 310.156 109.809 310.361 109.809 310.607C109.809 310.859 109.598 311.064 109.358 311.064Z" fill="black"/>
<rect x="119.078" y="306.517" width="163" height="5" rx="2.5" fill="#F3F3F3"/>
<path d="M106.43 327.017V326.466L107.93 325.019C108.357 324.591 108.58 324.339 108.58 323.982C108.58 323.589 108.27 323.337 107.854 323.337C107.414 323.337 107.133 323.613 107.139 324.041H106.412C106.406 323.238 107.01 322.716 107.859 322.716C108.727 322.716 109.312 323.232 109.312 323.947C109.312 324.427 109.078 324.814 108.246 325.599L107.49 326.349V326.378H109.377V327.017H106.43ZM110.454 327.064C110.202 327.064 109.997 326.859 109.997 326.607C109.997 326.361 110.202 326.156 110.454 326.156C110.694 326.156 110.905 326.361 110.905 326.607C110.905 326.859 110.694 327.064 110.454 327.064Z" fill="black"/>
<rect x="120.078" y="322.517" width="188" height="5" rx="2.5" fill="#F3F3F3"/>
<path d="M107.971 343.076C107.062 343.076 106.418 342.583 106.4 341.869H107.168C107.191 342.208 107.531 342.431 107.971 342.431C108.439 342.431 108.773 342.173 108.773 341.798C108.773 341.417 108.445 341.142 107.895 341.142H107.514V340.556H107.895C108.346 340.556 108.662 340.304 108.656 339.935C108.662 339.578 108.393 339.337 107.977 339.337C107.578 339.337 107.232 339.56 107.221 339.917H106.488C106.506 339.203 107.15 338.716 107.982 338.716C108.844 338.716 109.4 339.244 109.395 339.894C109.4 340.369 109.084 340.714 108.621 340.808V340.843C109.219 340.925 109.559 341.306 109.553 341.839C109.559 342.554 108.891 343.076 107.971 343.076ZM110.501 343.064C110.249 343.064 110.044 342.859 110.044 342.607C110.044 342.361 110.249 342.156 110.501 342.156C110.741 342.156 110.952 342.361 110.952 342.607C110.952 342.859 110.741 343.064 110.501 343.064Z" fill="black"/>
<rect x="120.078" y="338.517" width="188" height="5" rx="2.5" fill="#F3F3F3"/>
<rect x="106.078" y="353.017" width="271" height="5" rx="2.5" fill="#F3F3F3"/>
</g>
</g>
<defs>
<filter id="filter0_d_845_2538" x="259.37" y="18.3696" width="269.261" height="104.572" filterUnits="userSpaceOnUse" color-interpolation-filters="sRGB">
<feFlood flood-opacity="0" result="BackgroundImageFix"/>
<feColorMatrix in="SourceAlpha" type="matrix" values="0 0 0 0 0 0 0 0 0 0 0 0 0 0 0 0 0 0 127 0" result="hardAlpha"/>
<feOffset/>
<feGaussianBlur stdDeviation="2.31521"/>
<feComposite in2="hardAlpha" operator="out"/>
<feColorMatrix type="matrix" values="0 0 0 0 0 0 0 0 0 0 0 0 0 0 0 0 0 0 0.1 0"/>
<feBlend mode="normal" in2="BackgroundImageFix" result="effect1_dropShadow_845_2538"/>
<feBlend mode="normal" in="SourceGraphic" in2="effect1_dropShadow_845_2538" result="shape"/>
</filter>
<filter id="filter1_d_845_2538" x="77.3696" y="124.37" width="328.351" height="379.261" filterUnits="userSpaceOnUse" color-interpolation-filters="sRGB">
<feFlood flood-opacity="0" result="BackgroundImageFix"/>
<feColorMatrix in="SourceAlpha" type="matrix" values="0 0 0 0 0 0 0 0 0 0 0 0 0 0 0 0 0 0 127 0" result="hardAlpha"/>
<feOffset/>
<feGaussianBlur stdDeviation="2.31521"/>
<feComposite in2="hardAlpha" operator="out"/>
<feColorMatrix type="matrix" values="0 0 0 0 0 0 0 0 0 0 0 0 0 0 0 0 0 0 0.1 0"/>
<feBlend mode="normal" in2="BackgroundImageFix" result="effect1_dropShadow_845_2538"/>
<feBlend mode="normal" in="SourceGraphic" in2="effect1_dropShadow_845_2538" result="shape"/>
</filter>
<filter id="filter2_d_845_2538" x="154.58" y="192.396" width="35.5216" height="14.5563" filterUnits="userSpaceOnUse" color-interpolation-filters="sRGB">
<feFlood flood-opacity="0" result="BackgroundImageFix"/>
<feColorMatrix in="SourceAlpha" type="matrix" values="0 0 0 0 0 0 0 0 0 0 0 0 0 0 0 0 0 0 127 0" result="hardAlpha"/>
<feOffset/>
<feGaussianBlur stdDeviation="0.463042"/>
<feComposite in2="hardAlpha" operator="out"/>
<feColorMatrix type="matrix" values="0 0 0 0 0 0 0 0 0 0 0 0 0 0 0 0 0 0 0.05 0"/>
<feBlend mode="normal" in2="BackgroundImageFix" result="effect1_dropShadow_845_2538"/>
<feBlend mode="normal" in="SourceGraphic" in2="effect1_dropShadow_845_2538" result="shape"/>
</filter>
<clipPath id="clip0_845_2538">
<rect width="588" height="375" fill="white"/>
</clipPath>
</defs>
</svg>
