<svg width="588" height="375" viewBox="0 0 588 375" fill="none" xmlns="http://www.w3.org/2000/svg">
<g clip-path="url(#clip0_845_2695)">
<rect x="106.309" y="22.309" width="376.366" height="407.095" rx="7.10708" fill="#F8F9FA"/>
<rect x="106.309" y="22.309" width="376.366" height="407.095" rx="7.10708" stroke="#E6E6E6" stroke-width="0.618007"/>
<rect x="115.888" y="34.3599" width="32.1364" height="32.1364" rx="16.0682" fill="#FFEFF1"/>
<path d="M131.273 42.5951C131.577 42.0529 132.336 42.0529 132.64 42.5951L140.501 56.6247C140.805 57.1669 140.426 57.8447 139.818 57.8447H124.095C123.487 57.8447 123.107 57.1669 123.411 56.6247L131.273 42.5951Z" fill="#F04452"/>
<path d="M132.368 53.7241C132.595 53.7241 132.78 53.9088 132.78 54.1362V54.9604C132.78 55.188 132.595 55.3726 132.368 55.3726H131.544C131.317 55.3726 131.132 55.188 131.132 54.9604V54.1362C131.132 53.9088 131.317 53.7241 131.544 53.7241H132.368ZM132.369 47.1323C132.596 47.1325 132.781 47.317 132.781 47.5444V52.4888C132.781 52.716 132.596 52.8997 132.369 52.8999H131.544C131.317 52.8999 131.133 52.7161 131.132 52.4888V47.5444C131.132 47.3169 131.317 47.1323 131.544 47.1323H132.369Z" fill="white"/>
<path d="M169.388 36.5328V44.0612H168.729V39.8787H166.929V42.1601H163.465V37.1243H164.133V39.0845H166.279V37.1243H166.929V39.3295H168.729V36.5328H169.388ZM164.133 41.6109H166.279V39.6168H164.133V41.6109ZM177.396 40.6983V41.2391H170.544V40.6983H177.396ZM176.678 43.3261V43.8837H171.439V41.7883H172.098V43.3261H176.678ZM176.585 39.4647V39.9886H171.456V36.8201H176.543V37.3524H172.124V38.1382H176.34V38.6536H172.124V39.4647H176.585Z" fill="#808080"/>
<path d="M170.408 51.9621V60.7011H169.326V51.9621H170.408ZM165.705 52.5994C167.019 52.5994 167.975 53.7968 167.984 55.6798C167.975 57.5821 167.019 58.7698 165.705 58.7698C164.382 58.7698 163.426 57.5821 163.426 55.6798C163.426 53.7968 164.382 52.5994 165.705 52.5994ZM165.705 53.5651C164.962 53.5651 164.46 54.3472 164.46 55.6798C164.46 57.022 164.962 57.8042 165.705 57.8042C166.439 57.8042 166.941 57.022 166.941 55.6798C166.941 54.3472 166.439 53.5651 165.705 53.5651ZM179.058 51.9621V58.567H178.034V51.9621H179.058ZM177.32 52.1166V58.2967H176.306V55.2839H175.379V57.0027H171.931V52.6477H172.945V54.0286H174.384V52.6477H175.379V54.4148H176.306V52.1166H177.32ZM172.945 56.1336H174.384V54.8493H172.945V56.1336ZM179.299 59.6486V60.5176H173.216V57.6883H174.288V59.6486H179.299ZM187.138 56.5392V57.389H181.016V52.6477H187.061V53.5168H182.107V54.5693H186.858V55.4094H182.107V56.5392H187.138ZM188.017 58.7505V59.6292H180.04V58.7505H188.017ZM195.235 55.0811V56.1916H198.692V57.0607H190.735V56.1916H194.173V55.0811H195.235ZM194.704 57.6207C196.596 57.6207 197.717 58.1615 197.726 59.1464C197.717 60.1314 196.596 60.6818 194.704 60.6818C192.801 60.6818 191.662 60.1314 191.662 59.1464C191.662 58.1615 192.801 57.6207 194.704 57.6207ZM194.704 58.4415C193.419 58.4415 192.744 58.6829 192.753 59.1464C192.744 59.6292 193.419 59.8707 194.704 59.8707C195.959 59.8707 196.645 59.6292 196.654 59.1464C196.645 58.6829 195.959 58.4415 194.704 58.4415ZM197.977 52.3484V53.2078H195.467C195.64 53.9175 196.688 54.5548 198.315 54.7142L197.929 55.5543C196.345 55.3949 195.177 54.7769 194.704 53.8934C194.231 54.7769 193.072 55.3949 191.488 55.5543L191.112 54.7142C192.724 54.5548 193.772 53.9223 193.951 53.2078H191.459V52.3484H197.977ZM207.158 58.7891V59.6775H199.182V58.7891H201.297V57.3503H200.128V54.5017H205.15V53.4299H200.109V52.5608H206.212V55.3611H201.2V56.4813H206.415V57.3503H205.14V58.7891H207.158ZM202.34 58.7891H204.087V57.3503H202.34V58.7891ZM214.591 51.9621V55.448H215.798V56.3364H214.591V60.6914H213.51V51.9621H214.591ZM210.246 52.8795C210.236 55.168 209.918 57.0993 208.344 58.7988L207.503 58.1904C208.735 56.8868 209.135 55.506 209.222 53.7582H207.851V52.8795H210.246ZM212.66 52.8795C212.65 55.2259 212.409 57.4662 210.835 59.3589L209.975 58.7698C211.221 57.2876 211.569 55.6508 211.646 53.7582H210.536V52.8795H212.66ZM219.369 54.4438C219.369 55.8729 220.209 57.3793 221.619 57.9684L221.03 58.8181C219.996 58.3739 219.243 57.4566 218.847 56.3461C218.442 57.5435 217.679 58.5477 216.655 59.0306L216.037 58.1904C217.418 57.5531 218.278 55.9309 218.278 54.4438V53.7099H216.356V52.8215H221.281V53.7099H219.369V54.4438ZM223.338 51.9621V60.6914H222.256V51.9621H223.338ZM233.656 51.9718V53.8644H234.882V54.7528H233.656V56.8868H232.584V51.9718H233.656ZM233.656 57.3117V60.5756H228.007V57.3117H233.656ZM229.059 58.1518V59.7258H232.603V58.1518H229.059ZM228.229 52.3966V55.4674C229.349 55.4577 230.527 55.3563 231.802 55.1101L231.927 55.9888C230.479 56.2785 229.136 56.3557 227.871 56.3557H227.147V52.3966H228.229ZM243.174 56.4716V57.331H235.218V56.4716H243.174ZM242.276 59.6486V60.5176H236.203V57.978H237.274V59.6486H242.276ZM239.186 52.2421C241.089 52.2421 242.325 52.9084 242.334 54.0092C242.325 55.1197 241.089 55.7957 239.186 55.7957C237.284 55.7957 236.038 55.1197 236.038 54.0092C236.038 52.9084 237.284 52.2421 239.186 52.2421ZM239.186 53.1015C237.921 53.1015 237.149 53.4299 237.159 54.0092C237.149 54.5983 237.921 54.9266 239.186 54.9169C240.461 54.9266 241.224 54.5983 241.224 54.0092C241.224 53.4299 240.461 53.1015 239.186 53.1015ZM249.215 54.0575C249.205 55.6605 250.045 57.2634 251.465 57.8718L250.827 58.7312C249.823 58.2677 249.084 57.3407 248.684 56.2012C248.283 57.4324 247.534 58.4367 246.472 58.934L245.816 58.0359C247.274 57.4083 248.124 55.7377 248.124 54.0575V52.667H249.215V54.0575ZM253.174 51.9621V60.7011H252.092V51.9621H253.174ZM261.244 51.9621V54.4728H262.461V55.3708H261.244V58.258H260.153V51.9621H261.244ZM258.869 52.6284C258.869 54.9459 257.362 56.5972 254.774 57.3503L254.33 56.5006C256.324 55.926 257.512 54.8397 257.7 53.5071H254.697V52.6284H258.869ZM261.573 59.6486V60.5176H255.634V57.6111H256.725V59.6486H261.573ZM267.922 59.9286C266.242 59.9286 265.237 58.625 265.237 56.3364C265.237 54.0575 266.242 52.7443 267.922 52.7443C269.592 52.7443 270.606 54.0575 270.606 56.3364C270.606 58.625 269.602 59.9286 267.922 59.9286ZM267.922 58.8761C268.8 58.8761 269.341 58.0166 269.341 56.3364C269.341 54.6659 268.791 53.7871 267.922 53.7871C267.053 53.7871 266.502 54.6659 266.502 56.3364C266.502 58.0166 267.043 58.8761 267.922 58.8761ZM274.1 59.9286C272.603 59.9286 271.541 59.1175 271.512 57.9394H272.777C272.815 58.4995 273.375 58.8664 274.1 58.8664C274.872 58.8664 275.422 58.4415 275.422 57.8235C275.422 57.1958 274.882 56.742 273.974 56.742H273.346V55.7764H273.974C274.718 55.7764 275.239 55.3611 275.229 54.7528C275.239 54.1637 274.795 53.7678 274.109 53.7678C273.453 53.7678 272.883 54.1348 272.863 54.7238H271.656C271.685 53.5457 272.748 52.7443 274.119 52.7443C275.538 52.7443 276.456 53.6133 276.446 54.6852C276.456 55.4674 275.934 56.0371 275.171 56.1916V56.2495C276.156 56.3847 276.716 57.0124 276.707 57.8911C276.716 59.0692 275.616 59.9286 274.1 59.9286ZM280.721 54.0575C280.712 55.6605 281.552 57.2634 282.971 57.8718L282.334 58.7312C281.33 58.2677 280.591 57.3407 280.19 56.2012C279.79 57.4324 279.041 58.4367 277.979 58.934L277.322 58.0359C278.781 57.4083 279.63 55.7377 279.63 54.0575V52.667H280.721V54.0575ZM284.681 51.9621V60.7011H283.599V51.9621H284.681ZM292.751 51.9621V54.4728H293.968V55.3708H292.751V58.258H291.66V51.9621H292.751ZM290.375 52.6284C290.375 54.9459 288.869 56.5972 286.281 57.3503L285.837 56.5006C287.831 55.926 289.019 54.8397 289.207 53.5071H286.204V52.6284H290.375ZM293.079 59.6486V60.5176H287.141V57.6111H288.232V59.6486H293.079ZM299.429 59.9286C297.748 59.9286 296.744 58.625 296.744 56.3364C296.744 54.0575 297.748 52.7443 299.429 52.7443C301.099 52.7443 302.113 54.0575 302.113 56.3364C302.113 58.625 301.109 59.9286 299.429 59.9286ZM299.429 58.8761C300.307 58.8761 300.848 58.0166 300.848 56.3364C300.848 54.6659 300.298 53.7871 299.429 53.7871C298.559 53.7871 298.009 54.6659 298.009 56.3364C298.009 58.0166 298.55 58.8761 299.429 58.8761ZM305.548 52.7443C306.92 52.7539 308.271 53.5651 308.281 56.124C308.281 58.5381 307.19 59.9286 305.471 59.9286C304.119 59.9286 303.192 59.0885 303.038 57.9297H304.283C304.409 58.4801 304.834 58.8374 305.471 58.8374C306.485 58.8374 307.055 57.9394 307.064 56.4426H306.987C306.63 57.051 305.964 57.4083 305.191 57.4083C303.945 57.4083 302.98 56.462 302.97 55.139C302.97 53.7678 303.994 52.7346 305.548 52.7443ZM305.558 53.7582C304.776 53.7582 304.187 54.3665 304.196 55.1101C304.196 55.8633 304.757 56.4523 305.539 56.4523C306.311 56.4523 306.92 55.8246 306.91 55.1004C306.91 54.3858 306.34 53.7582 305.558 53.7582ZM316.902 56.4813V57.3407H313.532V58.8471H312.47V57.3407H308.926V56.4813H316.902ZM316.023 59.6486V60.5176H309.891V58.1132H310.954V59.6486H316.023ZM311.031 52.2421V53.2271H314.797V52.2421H315.859V55.7957H309.969V52.2421H311.031ZM311.031 54.9459H314.797V54.0286H311.031V54.9459ZM322.498 59.9286C320.818 59.9286 319.813 58.625 319.813 56.3364C319.813 54.0575 320.818 52.7443 322.498 52.7443C324.169 52.7443 325.182 54.0575 325.182 56.3364C325.182 58.625 324.178 59.9286 322.498 59.9286ZM322.498 58.8761C323.377 58.8761 323.917 58.0166 323.917 56.3364C323.917 54.6659 323.367 53.7871 322.498 53.7871C321.629 53.7871 321.078 54.6659 321.078 56.3364C321.078 58.0166 321.619 58.8761 322.498 58.8761ZM326.011 58.5284V57.5242L329.033 52.8408H330.597V57.4952H331.515V58.5284H330.597V59.832H329.4V58.5284H326.011ZM327.295 57.4952H329.419V54.27H329.342L327.295 57.4469V57.4952ZM340.107 58.7795V59.6582H332.13V58.7795H335.578V56.9737H336.64V58.7795H340.107ZM339.392 53.2271V54.0962H336.669C336.741 55.1825 337.876 56.1819 339.759 56.433L339.363 57.2731C337.852 57.0607 336.688 56.3895 336.109 55.4287C335.529 56.3895 334.375 57.0607 332.864 57.2731L332.459 56.433C334.351 56.1819 335.481 55.1825 335.568 54.0962H332.835V53.2271H335.578V52.0973H336.64V53.2271H339.392Z" fill="#030303"/>
<path d="M168.151 73.6104V76.1235H169.194V76.6884H168.151V80.114H167.463V73.6104H168.151ZM166.405 74.2332V74.7909H164.059V77.9268C165.149 77.9232 165.967 77.8761 166.891 77.7095L166.978 78.2889C165.964 78.47 165.102 78.5062 163.892 78.4989H163.371V74.2332H166.405ZM174.653 74.2405V75.0299C174.653 75.9786 174.653 76.8694 174.37 78.2165L173.689 78.1513C173.827 77.5574 173.899 77.036 173.936 76.5508L170.039 76.7608L169.952 76.1959L173.972 76.0438C173.983 75.6962 173.983 75.363 173.986 75.0299V74.8054H170.133V74.2405H174.653ZM175.348 78.6655V79.2304H169.431V78.6655H175.348ZM181.35 73.6104V80.0995H180.691V76.7536H179.923V79.7663H179.271V73.7408H179.923V76.1887H180.691V73.6104H181.35ZM178.844 74.3998V74.9647H178.33V77.8689C178.547 77.8508 178.757 77.829 178.953 77.8037L178.989 78.3106C177.968 78.5062 176.614 78.5351 175.773 78.5351L175.694 77.9558L176.346 77.9485V74.9647H175.831V74.3998H178.844ZM176.976 77.9413C177.215 77.934 177.457 77.9268 177.7 77.9123V74.9647H176.976V77.9413ZM187.511 73.6176V78.4193H186.823V75.9714H185.607V75.4137H186.823V73.6176H187.511ZM187.678 79.4042V79.9619H183.282V78.0065H183.977V79.4042H187.678ZM185.368 74.1174V74.675H183.108V75.4789H185.179V76.0221H183.108V76.8767C184.22 76.873 184.882 76.8477 185.672 76.7101L185.737 77.2678C184.882 77.4198 184.158 77.4488 182.913 77.4488H182.427V74.1174H185.368ZM196.105 77.275V77.8399H194.598V80.0995H193.903V77.8399H192.353V80.0995H191.643V77.8399H190.166V77.275H196.105ZM193.121 73.8566C194.489 73.8566 195.431 74.4143 195.431 75.2906C195.431 76.1524 194.489 76.7029 193.121 76.6956C191.745 76.7029 190.81 76.1524 190.81 75.2906C190.81 74.4143 191.745 73.8566 193.121 73.8566ZM193.121 74.4071C192.157 74.4143 191.513 74.7474 191.52 75.2906C191.513 75.8193 192.157 76.1524 193.121 76.1524C194.084 76.1524 194.728 75.8193 194.728 75.2906C194.728 74.7474 194.084 74.4143 193.121 74.4071ZM200.166 74.2912V74.8416H196.516V74.2912H198.036V73.5525H198.717V74.2912H200.166ZM198.37 75.1385C199.246 75.1385 199.862 75.6238 199.869 76.348C199.862 77.0722 199.246 77.5502 198.37 77.5502C197.486 77.5502 196.878 77.0722 196.878 76.348C196.878 75.6238 197.486 75.1385 198.37 75.1385ZM198.37 75.66C197.855 75.66 197.522 75.9279 197.522 76.348C197.522 76.768 197.855 77.0288 198.37 77.0288C198.877 77.0288 199.224 76.768 199.231 76.348C199.224 75.9279 198.877 75.66 198.37 75.66ZM201.918 73.6104V77.7892H201.23V76.9563H200.18V76.3987H201.23V75.6817H200.187V75.124H201.23V73.6104H201.918ZM199.76 77.8544C201.122 77.8544 201.955 78.2599 201.955 78.9697C201.955 79.6722 201.122 80.0922 199.76 80.085C198.391 80.0922 197.558 79.6722 197.558 78.9697C197.558 78.2599 198.391 77.8544 199.76 77.8544ZM199.76 78.3831C198.826 78.3831 198.275 78.5858 198.275 78.9697C198.275 79.3463 198.826 79.5636 199.76 79.5563C200.673 79.5636 201.223 79.3463 201.223 78.9697C201.223 78.5858 200.673 78.3831 199.76 78.3831Z" fill="#1A1A1A"/>
<rect x="207.801" y="70.248" width="37.8881" height="12.472" rx="2.47203" fill="#F3F3F3"/>
<path d="M216.084 75.6817C216.04 75.2327 215.656 74.972 215.091 74.972C214.498 74.972 214.135 75.2616 214.135 75.6527C214.135 76.0945 214.599 76.2756 215.033 76.377L215.526 76.5073C216.308 76.6884 217.061 77.1012 217.061 78.0137C217.061 78.9335 216.337 79.5636 215.077 79.5636C213.853 79.5636 213.085 78.9769 213.042 77.9413H213.969C214.012 78.4917 214.476 78.7597 215.07 78.7597C215.692 78.7597 216.12 78.4555 216.12 78.0065C216.12 77.5937 215.736 77.4198 215.171 77.275L214.577 77.1229C213.715 76.8984 213.179 76.4639 213.179 75.7107C213.179 74.7837 214.005 74.1681 215.106 74.1681C216.221 74.1681 216.974 74.7981 216.989 75.6817H216.084ZM219.442 79.5636C218.269 79.5636 217.559 78.7234 217.559 77.5357C217.559 76.3335 218.291 75.5006 219.442 75.5006C220.398 75.5006 221.065 76.0583 221.13 76.9056H220.246C220.174 76.529 219.898 76.2393 219.449 76.2393C218.877 76.2393 218.493 76.7246 218.493 77.514C218.493 78.3251 218.87 78.8104 219.449 78.8104C219.862 78.8104 220.166 78.5714 220.246 78.1441H221.13C221.057 78.9769 220.427 79.5636 219.442 79.5636ZM221.57 78.3758C221.57 77.4923 222.301 77.2315 223.033 77.1881C223.304 77.17 223.869 77.1374 224.039 77.1301V76.8187C224.039 76.4276 223.786 76.2031 223.33 76.2031C222.917 76.2031 222.663 76.3914 222.591 76.6739H221.7C221.765 76.0076 222.366 75.5006 223.351 75.5006C224.097 75.5006 224.959 75.8048 224.959 76.8549V79.4839H224.076V78.9407H224.047C223.873 79.2739 223.503 79.5636 222.888 79.5636C222.135 79.5636 221.57 79.1507 221.57 78.3758ZM222.461 78.3686C222.461 78.709 222.736 78.8828 223.127 78.8828C223.684 78.8828 224.047 78.5134 224.047 78.0716V77.7457L223.178 77.8037C222.736 77.8399 222.461 78.0209 222.461 78.3686ZM225.754 79.4839V75.5513H226.652V76.2031H226.696C226.833 75.7541 227.217 75.4934 227.666 75.4934C227.767 75.4934 227.912 75.5006 227.999 75.5151V76.3697C227.919 76.3407 227.724 76.3118 227.572 76.3118C227.058 76.3118 226.681 76.6666 226.681 77.1664V79.4839H225.754ZM230.061 79.5636C228.888 79.5636 228.178 78.7234 228.178 77.5357C228.178 76.3335 228.91 75.5006 230.061 75.5006C231.017 75.5006 231.684 76.0583 231.749 76.9056H230.865C230.793 76.529 230.518 76.2393 230.069 76.2393C229.497 76.2393 229.113 76.7246 229.113 77.514C229.113 78.3251 229.489 78.8104 230.069 78.8104C230.481 78.8104 230.786 78.5714 230.865 78.1441H231.749C231.676 78.9769 231.046 79.5636 230.061 79.5636ZM232.37 79.4839V75.5513H233.297V79.4839H232.37ZM232.841 74.9937C232.551 74.9937 232.305 74.7692 232.305 74.4867C232.305 74.2115 232.551 73.987 232.841 73.987C233.138 73.987 233.377 74.2115 233.377 74.4867C233.377 74.7692 233.138 74.9937 232.841 74.9937ZM236.069 75.5513V76.2611H235.294V78.3034C235.294 78.68 235.482 78.7597 235.714 78.7597C235.823 78.7597 236.004 78.7524 236.12 78.7452V79.4984C236.011 79.5201 235.83 79.5346 235.598 79.5346C234.903 79.5346 234.367 79.1942 234.374 78.4555V76.2611H233.809V75.5513H234.374V74.6098H235.294V75.5513H236.069ZM237.262 80.9613C237.081 80.9613 236.9 80.9541 236.784 80.9396V80.2009C236.9 80.2081 237.052 80.2154 237.175 80.2154C237.4 80.2154 237.588 80.1936 237.748 79.7736L237.827 79.5636L236.393 75.5513H237.371L238.283 78.5207H238.327L239.239 75.5513H240.217L238.638 79.9619C238.414 80.592 238.001 80.9613 237.262 80.9613Z" fill="#333333"/>
<path d="M253.001 73.9073C253.979 73.9073 254.688 74.4505 254.688 75.2544C254.688 76.0511 253.979 76.6015 253.001 76.5942C252.023 76.6015 251.328 76.0511 251.328 75.2544C251.328 74.4505 252.023 73.9073 253.001 73.9073ZM253.001 74.465C252.414 74.465 251.987 74.7764 251.994 75.2544C251.987 75.7251 252.414 76.0366 253.001 76.0293C253.602 76.0366 254.029 75.7251 254.029 75.2544C254.029 74.7764 253.602 74.465 253.001 74.465ZM256.267 73.6176V80.0995H255.587V73.6176H256.267ZM250.865 77.1012C252.06 77.1012 253.718 77.0722 255.138 76.8622L255.188 77.3764C254.598 77.4886 253.982 77.5574 253.385 77.6009V79.8967H252.697V77.6371C252.067 77.6661 251.473 77.6697 250.959 77.6733L250.865 77.1012ZM262.306 73.6176V75.5296H263.247V76.109H262.306V78.3831H261.618V73.6176H262.306ZM262.581 79.4042V79.9619H258.192V77.9123H258.88V79.4042H262.581ZM258.134 74.0812V75.1168H259.836V74.0812H260.517V77.3112H257.461V74.0812H258.134ZM258.134 76.7608H259.836V75.66H258.134V76.7608ZM270.385 73.6176V75.5441H271.312V76.109H270.385V77.9847H269.696V73.6176H270.385ZM265.235 77.2605C265.739 77.2605 266.322 77.2605 266.93 77.2388V76.8042C266.191 76.7282 265.72 76.3806 265.728 75.8555C265.72 75.2616 266.336 74.8923 267.27 74.8995C268.197 74.8923 268.813 75.2616 268.813 75.8555C268.813 76.377 268.349 76.7246 267.618 76.8042V77.2171C268.197 77.1881 268.784 77.141 269.327 77.065L269.385 77.5574C267.987 77.8037 266.452 77.8109 265.308 77.8109L265.235 77.2605ZM270.385 78.2889V80.0995H269.696V78.8248H266.046V78.2889H270.385ZM269.146 74.1681V74.6823H265.402V74.1681H266.93V73.5597H267.618V74.1681H269.146ZM267.27 75.3703C266.713 75.363 266.38 75.5441 266.38 75.8555C266.38 76.1597 266.713 76.3552 267.27 76.3552C267.821 76.3552 268.154 76.1597 268.154 75.8555C268.154 75.5441 267.821 75.363 267.27 75.3703ZM277.545 76.5435V77.0577H275.988V77.5792H276.814V79.0059H273.004V79.5491H277.017V80.0343H272.316V78.5496H276.133V78.0716H272.309V77.5792H273.171V77.0577H271.607V76.5435H277.545ZM276.799 73.777V75.1747H273.048V75.6527H276.908V76.138H272.367V74.7185H276.111V74.255H272.353V73.777H276.799ZM273.852 77.5792H275.308V77.0577H273.852V77.5792Z" fill="#1A1A1A"/>
<rect x="283.577" y="70.248" width="25.8881" height="12.472" rx="2.47203" fill="#F3F3F3"/>
<path d="M290.817 74.1681C291.845 74.1753 292.859 74.7837 292.866 76.7029C292.866 78.5134 292.048 79.5563 290.759 79.5563C289.745 79.5563 289.05 78.9262 288.934 78.0572H289.868C289.962 78.47 290.281 78.7379 290.759 78.7379C291.519 78.7379 291.947 78.0644 291.954 76.9418H291.896C291.628 77.3981 291.128 77.6661 290.549 77.6661C289.615 77.6661 288.89 76.9563 288.883 75.9641C288.883 74.9357 289.651 74.1608 290.817 74.1681ZM290.824 74.9285C290.237 74.9285 289.796 75.3848 289.803 75.9424C289.803 76.5073 290.223 76.9491 290.81 76.9491C291.389 76.9491 291.845 76.4783 291.838 75.9352C291.838 75.3992 291.411 74.9285 290.824 74.9285ZM293.574 79.4839V78.8031L295.428 77.0143C295.957 76.4856 296.232 76.1742 296.232 75.7324C296.232 75.2472 295.848 74.9357 295.334 74.9357C294.791 74.9357 294.443 75.2761 294.451 75.8048H293.553C293.545 74.8126 294.291 74.1681 295.341 74.1681C296.413 74.1681 297.138 74.8054 297.138 75.6889C297.138 76.2828 296.848 76.7608 295.819 77.7313L294.885 78.6583V78.6945H297.217V79.4839H293.574ZM299.258 76.797C298.512 76.797 298.106 76.2466 298.106 75.4427C298.106 74.6461 298.526 74.0956 299.258 74.0956C300.018 74.0956 300.417 74.6461 300.417 75.4427C300.417 76.2538 300.004 76.797 299.258 76.797ZM299.258 76.2176C299.584 76.2176 299.743 75.9134 299.743 75.4427C299.743 74.9864 299.598 74.6678 299.258 74.675C298.939 74.675 298.773 74.9864 298.773 75.4427C298.773 75.9134 298.939 76.2176 299.258 76.2176ZM302.683 79.6215C301.937 79.6287 301.532 79.0711 301.532 78.2744C301.532 77.4705 301.952 76.9201 302.683 76.9201C303.437 76.9201 303.842 77.4705 303.842 78.2744C303.842 79.0783 303.429 79.6287 302.683 79.6215ZM302.683 79.0421C303.017 79.0421 303.169 78.7379 303.169 78.2744C303.169 77.8109 303.024 77.4923 302.683 77.4995C302.365 77.4995 302.198 77.8182 302.198 78.2744C302.198 78.7379 302.365 79.0421 302.683 79.0421ZM298.78 79.4839L302.386 74.2405H303.118L299.511 79.4839H298.78Z" fill="#F54141"/>
<g filter="url(#filter0_d_845_2695)">
<rect x="427.848" y="34.3599" width="45.2483" height="16.9441" rx="2.47203" fill="white" shape-rendering="crispEdges"/>
<rect x="428.157" y="34.6689" width="44.6302" height="16.326" rx="2.16302" stroke="#CCCCCC" stroke-width="0.618007" shape-rendering="crispEdges"/>
<path d="M435.707 41.2098C435.707 42.4096 436.493 43.7446 437.642 44.2853L437.185 44.9106C436.336 44.5008 435.665 43.6474 435.327 42.6546C434.976 43.7403 434.266 44.674 433.4 45.1049L432.927 44.4712C434.076 43.922 434.913 42.4941 434.913 41.2098V40.4071H433.206V39.7396H437.354V40.4071H435.707V41.2098ZM438.968 38.9791V41.9787H440.185V42.6546H438.968V46.5497H438.166V38.9791H438.968ZM442.768 41.0492C442.768 42.2575 443.275 43.5502 444.289 44.167L443.841 44.7838C443.132 44.3571 442.65 43.6009 442.397 42.7222C442.114 43.6854 441.594 44.505 440.859 44.9528L440.36 44.3529C441.433 43.7108 441.991 42.3758 441.991 41.083V39.672H442.768V41.0492ZM446.976 38.9791V46.5497H446.207V38.9791H446.976ZM445.405 39.1228V46.178H444.644V42.3082H443.47V41.6407H444.644V39.1228H445.405ZM454.122 38.9791V46.5497H453.32V38.9791H454.122ZM452.584 40.179V40.8295H448.022V40.179H449.889V39.0552H450.7V40.179H452.584ZM450.312 41.3788C451.418 41.3788 452.221 42.1054 452.221 43.1362C452.221 44.1755 451.418 44.8937 450.312 44.9021C449.213 44.8937 448.41 44.1755 448.41 43.1362C448.41 42.1054 449.213 41.3788 450.312 41.3788ZM450.312 42.0378C449.653 42.0378 449.171 42.4856 449.171 43.1362C449.171 43.7953 449.653 44.2346 450.312 44.2262C450.971 44.2346 451.452 43.7953 451.452 43.1362C451.452 42.4856 450.971 42.0378 450.312 42.0378Z" fill="#666666"/>
<path d="M466.517 41.8144L463.427 44.9045C463.398 44.9332 463.364 44.956 463.326 44.9715C463.289 44.9871 463.249 44.9951 463.208 44.9951C463.167 44.9951 463.127 44.9871 463.09 44.9715C463.052 44.956 463.018 44.9332 462.989 44.9045L459.899 41.8144C459.841 41.7564 459.809 41.6778 459.809 41.5958C459.809 41.5138 459.841 41.4352 459.899 41.3772C459.957 41.3192 460.036 41.2866 460.118 41.2866C460.2 41.2866 460.279 41.3192 460.337 41.3772L463.208 44.249L466.079 41.3772C466.108 41.3485 466.142 41.3257 466.18 41.3102C466.217 41.2946 466.257 41.2866 466.298 41.2866C466.339 41.2866 466.379 41.2946 466.416 41.3102C466.454 41.3257 466.488 41.3485 466.517 41.3772C466.545 41.4059 466.568 41.44 466.584 41.4775C466.599 41.515 466.607 41.5552 466.607 41.5958C466.607 41.6364 466.599 41.6766 466.584 41.7141C466.568 41.7516 466.545 41.7857 466.517 41.8144Z" fill="#4D4D4D"/>
</g>
<rect x="116.197" y="97.8612" width="356.59" height="319.183" rx="7.10708" fill="white"/>
<rect x="116.197" y="97.8612" width="356.59" height="319.183" rx="7.10708" stroke="#E6E6E6" stroke-width="0.618007"/>
<rect x="128.248" y="109.913" width="41.8881" height="14.472" rx="2.47203" fill="#FFEFF1"/>
<path d="M135.938 113.6C137.096 113.592 137.941 114.251 137.941 115.206C137.941 116.143 137.096 116.811 135.938 116.803C134.789 116.811 133.953 116.143 133.953 115.206C133.953 114.251 134.789 113.592 135.938 113.6ZM135.938 114.361C135.313 114.352 134.857 114.682 134.865 115.206C134.857 115.721 135.313 116.034 135.938 116.034C136.589 116.034 137.045 115.721 137.045 115.206C137.045 114.682 136.589 114.352 135.938 114.361ZM139.834 113.271V120.892H138.904V113.271H139.834ZM133.454 117.326C134.832 117.326 136.758 117.301 138.406 117.056L138.473 117.749C137.814 117.876 137.13 117.956 136.462 118.002V120.664H135.516V118.061C134.81 118.091 134.147 118.095 133.573 118.104L133.454 117.326ZM146.861 113.271V115.476H147.926V116.253H146.861V118.889H145.923V113.271H146.861ZM147.166 119.988V120.748H141.969V118.323H142.907V119.988H147.166ZM142.028 113.811V114.977H143.811V113.811H144.741V117.647H141.099V113.811H142.028ZM142.028 116.904H143.811V115.704H142.028V116.904ZM151.479 113.659V114.699H153.186V113.659H154.115V115.054H155.653V113.262H156.591V117.436H155.653V115.831H154.115V117.2H150.541V113.659H151.479ZM151.479 116.439H153.186V115.425H151.479V116.439ZM152.493 117.774V118.552H155.653V117.774H156.591V120.791H151.555V117.774H152.493ZM152.493 120.03H155.653V119.278H152.493V120.03ZM161.236 113.676V115.966H158.828V116.87C160.053 116.866 160.759 116.832 161.566 116.684L161.658 117.445C160.746 117.605 159.952 117.631 158.456 117.631H157.899V115.248H160.298V114.437H157.882V113.676H161.236ZM163.982 113.271V117.935H163.044V116.676H161.709V115.915H163.044V115.113H161.709V114.352H163.044V113.271H163.982ZM161.413 118.061C163.027 118.061 164.016 118.594 164.016 119.498C164.016 120.41 163.027 120.926 161.413 120.926C159.783 120.926 158.794 120.41 158.803 119.498C158.794 118.594 159.783 118.061 161.413 118.061ZM161.413 118.788C160.332 118.788 159.749 119.033 159.749 119.498C159.749 119.963 160.332 120.208 161.413 120.208C162.478 120.208 163.086 119.963 163.086 119.498C163.086 119.033 162.478 118.788 161.413 118.788Z" fill="#F54141"/>
<path d="M130.006 135.385V136.572H131.956V135.385H133.019V136.978H134.776V134.931H135.848V139.701H134.776V137.866H133.019V139.431H128.934V135.385H130.006ZM130.006 138.562H131.956V137.403H130.006V138.562ZM131.165 140.087V140.976H134.776V140.087H135.848V143.535H130.093V140.087H131.165ZM131.165 142.666H134.776V141.806H131.165V142.666ZM141.157 135.404V138.021H138.404V139.054C139.805 139.049 140.611 139.011 141.533 138.842L141.639 139.711C140.596 139.894 139.689 139.923 137.98 139.923H137.342V137.2H140.085V136.273H137.323V135.404H141.157ZM144.295 134.941V140.271H143.223V138.832H141.697V137.963H143.223V137.046H141.697V136.177H143.223V134.941H144.295ZM141.359 140.416C143.204 140.416 144.333 141.024 144.333 142.057C144.333 143.1 143.204 143.689 141.359 143.689C139.496 143.689 138.366 143.1 138.375 142.057C138.366 141.024 139.496 140.416 141.359 140.416ZM141.359 141.246C140.123 141.246 139.457 141.526 139.457 142.057C139.457 142.588 140.123 142.868 141.359 142.868C142.576 142.868 143.271 142.588 143.271 142.057C143.271 141.526 142.576 141.246 141.359 141.246ZM148.561 135.81V142.801H147.296V137.036H147.257L145.625 138.079V136.93L147.354 135.81H148.561ZM153.84 135.066C155.83 135.066 156.979 135.597 156.988 136.563C156.979 137.538 155.83 138.06 153.84 138.069C151.851 138.06 150.692 137.538 150.692 136.563C150.692 135.597 151.851 135.066 153.84 135.066ZM153.84 135.858C152.508 135.858 151.813 136.109 151.822 136.563C151.813 137.046 152.508 137.268 153.84 137.268C155.192 137.268 155.878 137.046 155.878 136.563C155.878 136.109 155.192 135.858 153.84 135.858ZM157.828 138.533V139.392H149.872V138.533H157.828ZM156.834 139.981V142.115H151.87V142.762H157.075V143.583H150.818V141.352H155.781V140.773H150.808V139.981H156.834ZM163.415 135.317C164.738 135.307 165.703 136.061 165.703 137.152C165.703 138.224 164.738 138.987 163.415 138.977C162.102 138.987 161.146 138.224 161.146 137.152C161.146 136.061 162.102 135.307 163.415 135.317ZM163.415 136.186C162.7 136.177 162.179 136.553 162.188 137.152C162.179 137.741 162.7 138.098 163.415 138.098C164.158 138.098 164.68 137.741 164.68 137.152C164.68 136.553 164.158 136.177 163.415 136.186ZM167.866 134.941V143.651H166.804V134.941H167.866ZM160.576 139.576C162.15 139.576 164.351 139.547 166.234 139.267L166.312 140.058C165.559 140.203 164.776 140.295 164.014 140.348V143.39H162.932V140.416C162.126 140.449 161.368 140.454 160.711 140.464L160.576 139.576ZM175.898 134.941V137.461H177.115V138.349H175.898V141.362H174.826V134.941H175.898ZM176.246 142.617V143.486H170.307V140.715H171.379V142.617H176.246ZM170.375 135.559V136.891H172.412V135.559H173.474V139.942H169.313V135.559H170.375ZM170.375 139.093H172.412V137.722H170.375V139.093ZM184.345 134.912V136.881H185.572V137.751H184.345V139.672H183.273V134.912H184.345ZM184.345 140.058V142.163H179.71V142.781H184.616V143.583H178.648V141.42H183.273V140.841H178.638V140.058H184.345ZM182.646 135.636V136.457H177.47V135.636H179.527V134.863H180.599V135.636H182.646ZM180.058 136.727C181.352 136.737 182.182 137.287 182.192 138.156C182.182 139.054 181.352 139.585 180.058 139.585C178.764 139.585 177.914 139.054 177.914 138.156C177.914 137.287 178.764 136.737 180.058 136.727ZM180.058 137.499C179.382 137.499 178.957 137.741 178.957 138.156C178.957 138.581 179.382 138.813 180.058 138.813C180.734 138.813 181.168 138.581 181.168 138.156C181.168 137.741 180.734 137.499 180.058 137.499ZM194.992 134.931V138.34H196.285V139.238H194.992V143.641H193.92V134.931H194.992ZM192.684 135.839C192.684 138.407 191.621 140.657 188.715 142.086L188.107 141.256C190.231 140.198 191.38 138.711 191.602 136.727H188.58V135.839H192.684ZM203.661 137.2V138.069H197.635V135.085H198.707V137.2H203.661ZM204.568 138.909V139.778H196.602V138.909H204.568ZM200.571 140.406C202.454 140.416 203.583 140.995 203.593 142.019C203.583 143.042 202.454 143.622 200.571 143.622C198.668 143.622 197.529 143.042 197.529 142.019C197.529 140.995 198.668 140.416 200.571 140.406ZM200.571 141.246C199.296 141.256 198.61 141.497 198.62 142.019C198.61 142.521 199.296 142.801 200.571 142.801C201.816 142.801 202.512 142.521 202.521 142.019C202.512 141.497 201.816 141.256 200.571 141.246ZM208.245 136.186C208.235 137.374 208.931 138.455 210.302 138.89L209.722 139.73C208.771 139.397 208.105 138.764 207.733 137.934C207.347 138.885 206.618 139.633 205.561 140L204.991 139.131C206.439 138.658 207.164 137.49 207.164 136.234V135.404H208.245V136.186ZM212.359 134.931V140.068H211.287V137.499H209.549V136.621H211.287V134.931H212.359ZM209.404 140.3C211.258 140.3 212.388 140.918 212.388 141.98C212.388 143.042 211.258 143.651 209.404 143.651C207.559 143.651 206.43 143.042 206.439 141.98C206.43 140.918 207.559 140.3 209.404 140.3ZM209.404 141.13C208.187 141.13 207.502 141.43 207.502 141.98C207.502 142.511 208.187 142.81 209.404 142.81C210.621 142.81 211.316 142.511 211.316 141.98C211.316 141.43 210.621 141.13 209.404 141.13ZM220.757 134.931V143.67H219.676V134.931H220.757ZM216.055 135.568C217.368 135.568 218.324 136.766 218.334 138.649C218.324 140.551 217.368 141.739 216.055 141.739C214.732 141.739 213.776 140.551 213.776 138.649C213.776 136.766 214.732 135.568 216.055 135.568ZM216.055 136.534C215.311 136.534 214.809 137.316 214.809 138.649C214.809 139.991 215.311 140.773 216.055 140.773C216.789 140.773 217.291 139.991 217.291 138.649C217.291 137.316 216.789 136.534 216.055 136.534ZM227.29 140.609C227.29 141.333 227.623 142.096 228.372 142.569C229.13 142.062 229.482 141.27 229.492 140.609V140.252H230.544V140.609C230.535 141.526 231.075 142.376 232.225 142.743L231.703 143.525C230.853 143.24 230.288 142.685 229.984 141.99C229.704 142.675 229.188 143.288 228.401 143.602C227.57 143.303 227.049 142.714 226.778 142.019C226.464 142.69 225.909 143.235 225.098 143.525L224.567 142.743C225.697 142.347 226.238 141.459 226.247 140.609V140.252H227.29V140.609ZM231.462 134.941V139.885H230.38V134.941H231.462ZM226.701 135.404C228.043 135.404 229.048 136.254 229.048 137.48C229.048 138.697 228.043 139.547 226.701 139.547C225.349 139.547 224.345 138.697 224.345 137.48C224.345 136.254 225.349 135.404 226.701 135.404ZM226.701 136.312C225.938 136.312 225.388 136.766 225.397 137.48C225.388 138.195 225.938 138.658 226.701 138.658C227.454 138.658 227.995 138.195 227.995 137.48C227.995 136.766 227.454 136.312 226.701 136.312ZM234.656 140.165V140.995H238.499V140.165H239.571V143.554H233.593V140.165H234.656ZM234.656 142.704H238.499V141.816H234.656V142.704ZM240.594 138.793V139.672H232.637V138.793H240.594ZM237.166 135.356C237.166 136.292 238.364 137.277 240.169 137.49L239.793 138.34C238.33 138.142 237.176 137.495 236.616 136.611C236.051 137.499 234.892 138.142 233.439 138.34L233.043 137.49C234.868 137.268 236.056 136.321 236.065 135.356V135.027H237.166V135.356ZM248.365 134.931V143.66H247.303V134.931H248.365ZM242.649 135.781V140.551C243.875 140.532 245.179 140.42 246.521 140.155L246.656 141.053C245.121 141.372 243.692 141.468 242.34 141.468H241.587V135.781H242.649ZM256.368 134.931V138.243H257.71V139.122H256.368V143.67H255.296V134.931H256.368ZM253.973 135.761V136.63H250.961V140.638C252.317 140.638 253.389 140.57 254.591 140.358L254.717 141.265C253.365 141.497 252.187 141.536 250.613 141.536H249.889V135.761H253.973ZM259.041 142.878C258.625 142.878 258.287 142.54 258.287 142.125C258.287 141.719 258.625 141.381 259.041 141.381C259.437 141.381 259.784 141.719 259.784 142.125C259.784 142.54 259.437 142.878 259.041 142.878Z" fill="#030303"/>
<rect x="128.248" y="154.801" width="332.488" height="8" rx="4" fill="#F3F3F3"/>
<rect x="128.248" y="170.801" width="332.488" height="8" rx="4" fill="#F3F3F3"/>
<path d="M130.006 192.273V193.461H131.956V192.273H133.019V193.866H134.776V191.819H135.848V196.589H134.776V194.755H133.019V196.319H128.934V192.273H130.006ZM130.006 195.45H131.956V194.291H130.006V195.45ZM131.165 196.976V197.864H134.776V196.976H135.848V200.423H130.093V196.976H131.165ZM131.165 199.554H134.776V198.694H131.165V199.554ZM141.157 192.292V194.909H138.404V195.942C139.805 195.937 140.611 195.899 141.533 195.73L141.639 196.599C140.596 196.782 139.689 196.811 137.98 196.811H137.342V194.088H140.085V193.161H137.323V192.292H141.157ZM144.295 191.829V197.159H143.223V195.72H141.697V194.851H143.223V193.934H141.697V193.065H143.223V191.829H144.295ZM141.359 197.304C143.204 197.304 144.333 197.912 144.333 198.945C144.333 199.988 143.204 200.577 141.359 200.577C139.496 200.577 138.366 199.988 138.375 198.945C138.366 197.912 139.496 197.304 141.359 197.304ZM141.359 198.134C140.123 198.134 139.457 198.414 139.457 198.945C139.457 199.477 140.123 199.757 141.359 199.757C142.576 199.757 143.271 199.477 143.271 198.945C143.271 198.414 142.576 198.134 141.359 198.134ZM148.561 192.698V199.689H147.296V193.924H147.257L145.625 194.967V193.818L147.354 192.698H148.561ZM153.84 191.954C155.83 191.954 156.979 192.485 156.988 193.451C156.979 194.426 155.83 194.948 153.84 194.957C151.851 194.948 150.692 194.426 150.692 193.451C150.692 192.485 151.851 191.954 153.84 191.954ZM153.84 192.746C152.508 192.746 151.813 192.997 151.822 193.451C151.813 193.934 152.508 194.156 153.84 194.156C155.192 194.156 155.878 193.934 155.878 193.451C155.878 192.997 155.192 192.746 153.84 192.746ZM157.828 195.421V196.28H149.872V195.421H157.828ZM156.834 196.869V199.003H151.87V199.65H157.075V200.471H150.818V198.241H155.781V197.661H150.808V196.869H156.834ZM163.415 192.205C164.738 192.196 165.703 192.949 165.703 194.04C165.703 195.112 164.738 195.875 163.415 195.865C162.102 195.875 161.146 195.112 161.146 194.04C161.146 192.949 162.102 192.196 163.415 192.205ZM163.415 193.074C162.7 193.065 162.179 193.441 162.188 194.04C162.179 194.629 162.7 194.986 163.415 194.986C164.158 194.986 164.68 194.629 164.68 194.04C164.68 193.441 164.158 193.065 163.415 193.074ZM167.866 191.829V200.539H166.804V191.829H167.866ZM160.576 196.464C162.15 196.464 164.351 196.435 166.234 196.155L166.312 196.947C165.559 197.091 164.776 197.183 164.014 197.236V200.278H162.932V197.304C162.126 197.338 161.368 197.342 160.711 197.352L160.576 196.464ZM175.898 191.829V194.349H177.115V195.237H175.898V198.25H174.826V191.829H175.898ZM176.246 199.505V200.375H170.307V197.603H171.379V199.505H176.246ZM170.375 192.447V193.779H172.412V192.447H173.474V196.831H169.313V192.447H170.375ZM170.375 195.981H172.412V194.61H170.375V195.981ZM184.345 191.8V193.77H185.572V194.639H184.345V196.56H183.273V191.8H184.345ZM184.345 196.947V199.052H179.71V199.67H184.616V200.471H178.648V198.308H183.273V197.729H178.638V196.947H184.345ZM182.646 192.524V193.345H177.47V192.524H179.527V191.751H180.599V192.524H182.646ZM180.058 193.615C181.352 193.625 182.182 194.175 182.192 195.044C182.182 195.942 181.352 196.473 180.058 196.473C178.764 196.473 177.914 195.942 177.914 195.044C177.914 194.175 178.764 193.625 180.058 193.615ZM180.058 194.388C179.382 194.388 178.957 194.629 178.957 195.044C178.957 195.469 179.382 195.701 180.058 195.701C180.734 195.701 181.168 195.469 181.168 195.044C181.168 194.629 180.734 194.388 180.058 194.388ZM194.992 191.819V195.228H196.285V196.126H194.992V200.529H193.92V191.819H194.992ZM192.684 192.727C192.684 195.295 191.621 197.545 188.715 198.974L188.107 198.144C190.231 197.087 191.38 195.599 191.602 193.615H188.58V192.727H192.684ZM203.661 194.088V194.957H197.635V191.974H198.707V194.088H203.661ZM204.568 195.797V196.667H196.602V195.797H204.568ZM200.571 197.294C202.454 197.304 203.583 197.883 203.593 198.907C203.583 199.93 202.454 200.51 200.571 200.51C198.668 200.51 197.529 199.93 197.529 198.907C197.529 197.883 198.668 197.304 200.571 197.294ZM200.571 198.134C199.296 198.144 198.61 198.385 198.62 198.907C198.61 199.409 199.296 199.689 200.571 199.689C201.816 199.689 202.512 199.409 202.521 198.907C202.512 198.385 201.816 198.144 200.571 198.134ZM208.245 193.074C208.235 194.262 208.931 195.344 210.302 195.778L209.722 196.618C208.771 196.285 208.105 195.653 207.733 194.822C207.347 195.773 206.618 196.522 205.561 196.889L204.991 196.02C206.439 195.546 207.164 194.378 207.164 193.123V192.292H208.245V193.074ZM212.359 191.819V196.956H211.287V194.388H209.549V193.509H211.287V191.819H212.359ZM209.404 197.188C211.258 197.188 212.388 197.806 212.388 198.868C212.388 199.93 211.258 200.539 209.404 200.539C207.559 200.539 206.43 199.93 206.439 198.868C206.43 197.806 207.559 197.188 209.404 197.188ZM209.404 198.018C208.187 198.018 207.502 198.318 207.502 198.868C207.502 199.399 208.187 199.699 209.404 199.699C210.621 199.699 211.316 199.399 211.316 198.868C211.316 198.318 210.621 198.018 209.404 198.018ZM220.757 191.819V200.558H219.676V191.819H220.757ZM216.055 192.456C217.368 192.456 218.324 193.654 218.334 195.537C218.324 197.439 217.368 198.627 216.055 198.627C214.732 198.627 213.776 197.439 213.776 195.537C213.776 193.654 214.732 192.456 216.055 192.456ZM216.055 193.422C215.311 193.422 214.809 194.204 214.809 195.537C214.809 196.879 215.311 197.661 216.055 197.661C216.789 197.661 217.291 196.879 217.291 195.537C217.291 194.204 216.789 193.422 216.055 193.422ZM227.29 197.497C227.29 198.221 227.623 198.984 228.372 199.457C229.13 198.95 229.482 198.158 229.492 197.497V197.14H230.544V197.497C230.535 198.414 231.075 199.264 232.225 199.631L231.703 200.413C230.853 200.128 230.288 199.573 229.984 198.878C229.704 199.563 229.188 200.177 228.401 200.49C227.57 200.191 227.049 199.602 226.778 198.907C226.464 199.578 225.909 200.124 225.098 200.413L224.567 199.631C225.697 199.235 226.238 198.347 226.247 197.497V197.14H227.29V197.497ZM231.462 191.829V196.773H230.38V191.829H231.462ZM226.701 192.292C228.043 192.292 229.048 193.142 229.048 194.368C229.048 195.585 228.043 196.435 226.701 196.435C225.349 196.435 224.345 195.585 224.345 194.368C224.345 193.142 225.349 192.292 226.701 192.292ZM226.701 193.2C225.938 193.2 225.388 193.654 225.397 194.368C225.388 195.083 225.938 195.546 226.701 195.546C227.454 195.546 227.995 195.083 227.995 194.368C227.995 193.654 227.454 193.2 226.701 193.2ZM234.656 197.053V197.883H238.499V197.053H239.571V200.442H233.593V197.053H234.656ZM234.656 199.592H238.499V198.704H234.656V199.592ZM240.594 195.682V196.56H232.637V195.682H240.594ZM237.166 192.244C237.166 193.181 238.364 194.166 240.169 194.378L239.793 195.228C238.33 195.03 237.176 194.383 236.616 193.499C236.051 194.388 234.892 195.03 233.439 195.228L233.043 194.378C234.868 194.156 236.056 193.21 236.065 192.244V191.916H237.166V192.244ZM248.365 191.819V200.548H247.303V191.819H248.365ZM242.649 192.669V197.439C243.875 197.42 245.179 197.309 246.521 197.043L246.656 197.941C245.121 198.26 243.692 198.356 242.34 198.356H241.587V192.669H242.649ZM256.368 191.819V195.131H257.71V196.01H256.368V200.558H255.296V191.819H256.368ZM253.973 192.649V193.519H250.961V197.526C252.317 197.526 253.389 197.458 254.591 197.246L254.717 198.154C253.365 198.385 252.187 198.424 250.613 198.424H249.889V192.649H253.973ZM259.041 199.766C258.625 199.766 258.287 199.428 258.287 199.013C258.287 198.607 258.625 198.269 259.041 198.269C259.437 198.269 259.784 198.607 259.784 199.013C259.784 199.428 259.437 199.766 259.041 199.766Z" fill="#030303"/>
<rect x="128.248" y="211.689" width="332.488" height="8" rx="4" fill="#F3F3F3"/>
<rect x="128.248" y="227.689" width="332.488" height="8" rx="4" fill="#F3F3F3"/>
<rect x="128.248" y="277.688" width="39.8881" height="14.472" rx="2.47203" fill="#E7F8F8"/>
<path d="M140.003 281.038V288.676H139.098V284.756H138.279V288.321H137.4V281.241H138.279V283.995H139.098V281.038H140.003ZM136.75 282.001C136.75 284.063 136.099 285.837 133.927 287.079L133.387 286.429C135.013 285.487 135.702 284.278 135.837 282.753H133.742V282.001H136.75ZM143.617 282.39C143.617 283.404 144.225 284.393 145.408 284.798L144.893 285.533C144.069 285.221 143.477 284.625 143.161 283.877C142.827 284.714 142.206 285.377 141.31 285.711L140.812 284.967C142.037 284.553 142.662 283.497 142.67 282.382V281.511H143.617V282.39ZM147.233 281.047V286.716H146.295V283.497H144.774V282.728H146.295V281.047H147.233ZM147.402 287.764V288.524H142.197V286.099H143.152V287.764H147.402ZM151.768 285.753C153.348 285.753 154.32 286.285 154.329 287.206C154.32 288.136 153.348 288.676 151.768 288.676C150.171 288.676 149.183 288.136 149.183 287.206C149.183 286.285 150.171 285.753 151.768 285.753ZM151.768 286.488C150.721 286.488 150.121 286.733 150.121 287.206C150.121 287.679 150.721 287.933 151.768 287.933C152.816 287.933 153.399 287.679 153.399 287.206C153.399 286.733 152.816 286.488 151.768 286.488ZM154.252 281.038V282.863H155.317V283.649H154.252V285.567H153.315V281.038H154.252ZM149.419 281.52V282.551H151.202V281.52H152.132V285.085H148.49V281.52H149.419ZM149.419 284.342H151.202V283.286H149.419V284.342ZM162.683 282.229V282.998H161.644V283.869H162.683V284.638H161.644V285.913H160.706V281.038H161.644V282.229H162.683ZM159.176 285.981C160.74 285.981 161.728 286.479 161.728 287.324C161.728 288.161 160.74 288.668 159.176 288.668C157.588 288.668 156.616 288.161 156.625 287.324C156.616 286.479 157.588 285.981 159.176 285.981ZM159.176 286.699C158.129 286.699 157.546 286.902 157.554 287.324C157.546 287.73 158.129 287.958 159.176 287.958C160.207 287.958 160.79 287.73 160.79 287.324C160.79 286.902 160.207 286.699 159.176 286.699ZM160.157 281.815V282.551H155.628V281.815H157.427V280.987H158.365V281.815H160.157ZM157.892 282.855C158.999 282.855 159.751 283.404 159.759 284.224C159.751 285.043 158.999 285.584 157.892 285.584C156.777 285.584 156.016 285.043 156.016 284.224C156.016 283.404 156.777 282.855 157.892 282.855ZM157.892 283.548C157.309 283.548 156.929 283.801 156.929 284.224C156.929 284.638 157.309 284.874 157.892 284.874C158.475 284.874 158.864 284.638 158.864 284.224C158.864 283.801 158.475 283.548 157.892 283.548Z" fill="#068EA5"/>
<path d="M131.014 301.92V307.577H129.99V302.913H129.959L128.639 303.756V302.827L130.037 301.92H131.014ZM132.621 307.639C132.285 307.639 132.012 307.366 132.012 307.03C132.012 306.702 132.285 306.428 132.621 306.428C132.942 306.428 133.223 306.702 133.223 307.03C133.223 307.366 132.942 307.639 132.621 307.639Z" fill="black"/>
<rect x="142.248" y="301.077" width="163" height="8" rx="4" fill="#F3F3F3"/>
<path d="M128.717 326.577V325.842L130.717 323.913C131.287 323.342 131.584 323.006 131.584 322.53C131.584 322.006 131.17 321.67 130.615 321.67C130.03 321.67 129.655 322.038 129.662 322.608H128.694C128.686 321.538 129.49 320.842 130.623 320.842C131.78 320.842 132.561 321.53 132.561 322.483C132.561 323.124 132.248 323.639 131.139 324.686L130.131 325.686V325.725H132.647V326.577H128.717ZM134.082 326.639C133.746 326.639 133.473 326.366 133.473 326.03C133.473 325.702 133.746 325.428 134.082 325.428C134.403 325.428 134.684 325.702 134.684 326.03C134.684 326.366 134.403 326.639 134.082 326.639Z" fill="black"/>
<rect x="143.248" y="320.077" width="188" height="8" rx="4" fill="#F3F3F3"/>
<path d="M130.772 345.655C129.561 345.655 128.701 344.999 128.678 344.045H129.701C129.733 344.499 130.186 344.795 130.772 344.795C131.397 344.795 131.842 344.452 131.842 343.952C131.842 343.444 131.405 343.077 130.67 343.077H130.162V342.295H130.67C131.272 342.295 131.694 341.959 131.686 341.467C131.694 340.991 131.334 340.67 130.78 340.67C130.248 340.67 129.787 340.967 129.772 341.444H128.795C128.819 340.491 129.678 339.842 130.787 339.842C131.936 339.842 132.678 340.545 132.67 341.413C132.678 342.045 132.256 342.506 131.639 342.631V342.678C132.436 342.788 132.889 343.295 132.881 344.006C132.889 344.959 131.998 345.655 130.772 345.655ZM134.145 345.639C133.809 345.639 133.535 345.366 133.535 345.03C133.535 344.702 133.809 344.428 134.145 344.428C134.465 344.428 134.746 344.702 134.746 345.03C134.746 345.366 134.465 345.639 134.145 345.639Z" fill="black"/>
<rect x="143.248" y="339.077" width="188" height="8" rx="4" fill="#F3F3F3"/>
<path d="M128.615 362.938V362.125L131.061 358.336H132.326V362.102H133.069V362.938H132.326V363.993H131.358V362.938H128.615ZM129.655 362.102H131.373V359.493H131.311L129.655 362.063V362.102ZM134.262 364.055C133.926 364.055 133.653 363.782 133.653 363.446C133.653 363.118 133.926 362.844 134.262 362.844C134.582 362.844 134.864 363.118 134.864 363.446C134.864 363.782 134.582 364.055 134.262 364.055Z" fill="black"/>
<rect x="144.248" y="357.493" width="163" height="8" rx="4" fill="#F3F3F3"/>
<g filter="url(#filter1_d_845_2695)">
<rect x="88" y="92" width="412" height="173.139" rx="8.55363" fill="white" shape-rendering="crispEdges"/>
<rect x="88.3564" y="92.3564" width="411.287" height="172.426" rx="8.19723" stroke="#E6E6E6" stroke-width="0.712803" shape-rendering="crispEdges"/>
<rect x="102.256" y="106.256" width="48.4048" height="16.8512" rx="2.85121" fill="#FFEFF1"/>
<path d="M111.126 111.129C112.461 111.119 113.436 111.879 113.436 112.981C113.436 114.062 112.461 114.832 111.126 114.822C109.801 114.832 108.836 114.062 108.836 112.981C108.836 111.879 109.801 111.119 111.126 111.129ZM111.126 112.006C110.405 111.996 109.879 112.376 109.888 112.981C109.879 113.575 110.405 113.936 111.126 113.936C111.876 113.936 112.403 113.575 112.403 112.981C112.403 112.376 111.876 111.996 111.126 112.006ZM115.619 110.749V119.539H114.547V110.749H115.619ZM108.261 115.427C109.849 115.427 112.071 115.397 113.972 115.115L114.05 115.914C113.289 116.06 112.5 116.153 111.73 116.206V119.276H110.639V116.275C109.825 116.309 109.06 116.314 108.397 116.323L108.261 115.427ZM123.724 110.749V113.292H124.952V114.189H123.724V117.23H122.643V110.749H123.724ZM124.075 118.496V119.374H118.082V116.577H119.164V118.496H124.075ZM118.15 111.373V112.717H120.206V111.373H121.278V115.797H117.078V111.373H118.15ZM118.15 114.939H120.206V113.556H118.15V114.939ZM129.05 111.197V112.396H131.019V111.197H132.091V112.805H133.865V110.739H134.946V115.553H133.865V113.702H132.091V115.281H127.969V111.197H129.05ZM129.05 114.403H131.019V113.234H129.05V114.403ZM130.22 115.943V116.84H133.865V115.943H134.946V119.422H129.138V115.943H130.22ZM130.22 118.545H133.865V117.678H130.22V118.545ZM140.304 111.217V113.858H137.527V114.9C138.94 114.896 139.753 114.857 140.684 114.686L140.791 115.563C139.739 115.748 138.823 115.778 137.098 115.778H136.455V113.029H139.222V112.094H136.435V111.217H140.304ZM143.471 110.749V116.128H142.389V114.676H140.85V113.799H142.389V112.873H140.85V111.996H142.389V110.749H143.471ZM140.509 116.275C142.37 116.275 143.51 116.888 143.51 117.931C143.51 118.984 142.37 119.578 140.509 119.578C138.628 119.578 137.488 118.984 137.497 117.931C137.488 116.888 138.628 116.275 140.509 116.275ZM140.509 117.113C139.261 117.113 138.589 117.395 138.589 117.931C138.589 118.467 139.261 118.75 140.509 118.75C141.737 118.75 142.438 118.467 142.438 117.931C142.438 117.395 141.737 117.113 140.509 117.113Z" fill="#F54141"/>
<path d="M104.283 136.107V137.477H106.533V136.107H107.758V137.945H109.785V135.584H111.021V141.086H109.785V138.97H107.758V140.774H103.047V136.107H104.283ZM104.283 139.772H106.533V138.435H104.283V139.772ZM105.62 141.531V142.556H109.785V141.531H111.021V145.508H104.383V141.531H105.62ZM105.62 144.505H109.785V143.514H105.62V144.505ZM117.144 136.13V139.148H113.97V140.34C115.585 140.334 116.515 140.29 117.579 140.095L117.701 141.097C116.498 141.309 115.451 141.342 113.48 141.342H112.745V138.201H115.908V137.132H112.723V136.13H117.144ZM120.764 135.595V141.743H119.528V140.084H117.768V139.081H119.528V138.023H117.768V137.021H119.528V135.595H120.764ZM117.378 141.91C119.505 141.91 120.809 142.612 120.809 143.804C120.809 145.006 119.505 145.686 117.378 145.686C115.229 145.686 113.926 145.006 113.937 143.804C113.926 142.612 115.229 141.91 117.378 141.91ZM117.378 142.868C115.953 142.868 115.184 143.191 115.184 143.804C115.184 144.416 115.953 144.739 117.378 144.739C118.782 144.739 119.583 144.416 119.583 143.804C119.583 143.191 118.782 142.868 117.378 142.868ZM125.684 136.598V144.661H124.225V138.012H124.181L122.298 139.215V137.89L124.292 136.598H125.684ZM131.774 135.74C134.068 135.74 135.393 136.353 135.405 137.466C135.393 138.591 134.068 139.193 131.774 139.204C129.479 139.193 128.143 138.591 128.143 137.466C128.143 136.353 129.479 135.74 131.774 135.74ZM131.774 136.653C130.237 136.653 129.435 136.943 129.446 137.466C129.435 138.023 130.237 138.279 131.774 138.279C133.333 138.279 134.124 138.023 134.124 137.466C134.124 136.943 133.333 136.653 131.774 136.653ZM136.374 139.738V140.73H127.196V139.738H136.374ZM135.226 141.409V143.87H129.502V144.617H135.505V145.563H128.288V142.991H134.012V142.322H128.277V141.409H135.226ZM142.817 136.03C144.343 136.018 145.456 136.887 145.456 138.146C145.456 139.382 144.343 140.262 142.817 140.251C141.302 140.262 140.199 139.382 140.199 138.146C140.199 136.887 141.302 136.018 142.817 136.03ZM142.817 137.032C141.993 137.021 141.391 137.455 141.402 138.146C141.391 138.825 141.993 139.237 142.817 139.237C143.674 139.237 144.276 138.825 144.276 138.146C144.276 137.455 143.674 137.021 142.817 137.032ZM147.951 135.595V145.641H146.726V135.595H147.951ZM139.542 140.941C141.358 140.941 143.897 140.908 146.069 140.585L146.158 141.498C145.289 141.665 144.387 141.771 143.507 141.832V145.341H142.26V141.91C141.33 141.949 140.456 141.955 139.698 141.966L139.542 140.941ZM157.215 135.595V138.502H158.618V139.527H157.215V143.002H155.979V135.595H157.215ZM157.616 144.45V145.452H150.766V142.255H152.003V144.45H157.616ZM150.844 136.308V137.845H153.194V136.308H154.419V141.364H149.619V136.308H150.844ZM150.844 140.384H153.194V138.803H150.844V140.384ZM166.958 135.562V137.834H168.372V138.836H166.958V141.053H165.721V135.562H166.958ZM166.958 141.498V143.926H161.612V144.639H167.27V145.563H160.387V143.068H165.721V142.4H160.375V141.498H166.958ZM164.997 136.397V137.344H159.028V136.397H161.4V135.506H162.636V136.397H164.997ZM162.013 137.656C163.505 137.667 164.463 138.302 164.474 139.304C164.463 140.34 163.505 140.952 162.013 140.952C160.52 140.952 159.54 140.34 159.54 139.304C159.54 138.302 160.52 137.667 162.013 137.656ZM162.013 138.547C161.233 138.547 160.743 138.825 160.743 139.304C160.743 139.794 161.233 140.061 162.013 140.061C162.792 140.061 163.293 139.794 163.293 139.304C163.293 138.825 162.792 138.547 162.013 138.547ZM179.237 135.584V139.516H180.729V140.551H179.237V145.63H178.001V135.584H179.237ZM176.575 136.631C176.575 139.594 175.35 142.189 171.998 143.837L171.296 142.879C173.746 141.66 175.072 139.944 175.328 137.656H171.842V136.631H176.575ZM189.236 138.201V139.204H182.286V135.762H183.522V138.201H189.236ZM190.283 140.173V141.175H181.094V140.173H190.283ZM185.672 141.899C187.844 141.91 189.147 142.578 189.158 143.759C189.147 144.94 187.844 145.608 185.672 145.608C183.478 145.608 182.164 144.94 182.164 143.759C182.164 142.578 183.478 141.91 185.672 141.899ZM185.672 142.868C184.202 142.879 183.411 143.158 183.422 143.759C183.411 144.338 184.202 144.661 185.672 144.661C187.109 144.661 187.91 144.338 187.922 143.759C187.91 143.158 187.109 142.879 185.672 142.868ZM194.524 137.032C194.512 138.402 195.314 139.649 196.896 140.15L196.228 141.119C195.131 140.735 194.362 140.006 193.933 139.048C193.488 140.145 192.647 141.008 191.427 141.431L190.77 140.429C192.441 139.883 193.276 138.535 193.276 137.088V136.13H194.524V137.032ZM199.268 135.584V141.509H198.032V138.547H196.027V137.533H198.032V135.584H199.268ZM195.86 141.777C197.998 141.777 199.302 142.489 199.302 143.714C199.302 144.94 197.998 145.641 195.86 145.641C193.733 145.641 192.43 144.94 192.441 143.714C192.43 142.489 193.733 141.777 195.86 141.777ZM195.86 142.734C194.457 142.734 193.666 143.08 193.666 143.714C193.666 144.327 194.457 144.672 195.86 144.672C197.263 144.672 198.065 144.327 198.065 143.714C198.065 143.08 197.263 142.734 195.86 142.734ZM208.955 135.584V145.664H207.708V135.584H208.955ZM203.531 136.319C205.046 136.319 206.148 137.7 206.16 139.872C206.148 142.066 205.046 143.436 203.531 143.436C202.005 143.436 200.903 142.066 200.903 139.872C200.903 137.7 202.005 136.319 203.531 136.319ZM203.531 137.433C202.674 137.433 202.094 138.335 202.094 139.872C202.094 141.42 202.674 142.322 203.531 142.322C204.378 142.322 204.957 141.42 204.957 139.872C204.957 138.335 204.378 137.433 203.531 137.433ZM216.49 142.133C216.49 142.968 216.874 143.848 217.737 144.394C218.612 143.809 219.018 142.896 219.029 142.133V141.721H220.243V142.133C220.232 143.191 220.856 144.171 222.181 144.594L221.58 145.496C220.6 145.168 219.948 144.527 219.597 143.726C219.274 144.516 218.678 145.224 217.771 145.586C216.813 145.24 216.211 144.561 215.9 143.759C215.538 144.533 214.897 145.162 213.962 145.496L213.349 144.594C214.652 144.138 215.276 143.113 215.287 142.133V141.721H216.49V142.133ZM221.301 135.595V141.298H220.054V135.595H221.301ZM215.81 136.13C217.359 136.13 218.517 137.11 218.517 138.524C218.517 139.928 217.359 140.908 215.81 140.908C214.251 140.908 213.093 139.928 213.093 138.524C213.093 137.11 214.251 136.13 215.81 136.13ZM215.81 137.177C214.931 137.177 214.296 137.7 214.307 138.524C214.296 139.349 214.931 139.883 215.81 139.883C216.679 139.883 217.303 139.349 217.303 138.524C217.303 137.7 216.679 137.177 215.81 137.177ZM224.985 141.621V142.578H229.418V141.621H230.654V145.53H223.76V141.621H224.985ZM224.985 144.55H229.418V143.525H224.985V144.55ZM231.835 140.039V141.053H222.657V140.039H231.835ZM227.881 136.074C227.881 137.154 229.262 138.29 231.345 138.535L230.91 139.516C229.223 139.287 227.892 138.541 227.246 137.522C226.595 138.547 225.258 139.287 223.582 139.516L223.125 138.535C225.23 138.279 226.6 137.188 226.611 136.074V135.695H227.881V136.074ZM240.798 135.584V145.652H239.573V135.584H240.798ZM234.204 136.564V142.066C235.619 142.044 237.122 141.916 238.671 141.609L238.826 142.645C237.056 143.013 235.407 143.124 233.848 143.124H232.979V136.564H234.204ZM250.028 135.584V139.404H251.576V140.418H250.028V145.664H248.792V135.584H250.028ZM247.266 136.542V137.544H243.791V142.166C245.356 142.166 246.592 142.088 247.979 141.843L248.124 142.89C246.564 143.158 245.206 143.202 243.39 143.202H242.555V136.542H247.266ZM253.111 144.75C252.632 144.75 252.242 144.36 252.242 143.882C252.242 143.414 252.632 143.024 253.111 143.024C253.567 143.024 253.968 143.414 253.968 143.882C253.968 144.36 253.567 144.75 253.111 144.75Z" fill="#030303"/>
<rect x="102.256" y="157.888" width="383.488" height="9.22711" rx="4.61356" fill="#F3F3F3"/>
<rect x="102.256" y="176.342" width="383.488" height="9.22711" rx="4.61356" fill="#F3F3F3"/>
<path d="M104.283 201.421V202.791H106.533V201.421H107.758V203.259H109.785V200.898H111.021V206.399H109.785V204.283H107.758V206.088H103.047V201.421H104.283ZM104.283 205.085H106.533V203.749H104.283V205.085ZM105.62 206.845V207.87H109.785V206.845H111.021V210.821H104.383V206.845H105.62ZM105.62 209.819H109.785V208.827H105.62V209.819ZM117.144 201.443V204.462H113.97V205.653C115.585 205.648 116.515 205.603 117.579 205.408L117.701 206.411C116.498 206.622 115.451 206.656 113.48 206.656H112.745V203.515H115.908V202.446H112.723V201.443H117.144ZM120.764 200.909V207.057H119.528V205.397H117.768V204.395H119.528V203.337H117.768V202.334H119.528V200.909H120.764ZM117.378 207.224C119.505 207.224 120.809 207.925 120.809 209.117C120.809 210.32 119.505 210.999 117.378 210.999C115.229 210.999 113.926 210.32 113.937 209.117C113.926 207.925 115.229 207.224 117.378 207.224ZM117.378 208.181C115.953 208.181 115.184 208.504 115.184 209.117C115.184 209.73 115.953 210.053 117.378 210.053C118.782 210.053 119.583 209.73 119.583 209.117C119.583 208.504 118.782 208.181 117.378 208.181ZM125.684 201.911V209.975H124.225V203.325H124.181L122.298 204.528V203.203L124.292 201.911H125.684ZM131.774 201.053C134.068 201.053 135.393 201.666 135.405 202.78C135.393 203.905 134.068 204.506 131.774 204.517C129.479 204.506 128.143 203.905 128.143 202.78C128.143 201.666 129.479 201.053 131.774 201.053ZM131.774 201.967C130.237 201.967 129.435 202.256 129.446 202.78C129.435 203.337 130.237 203.593 131.774 203.593C133.333 203.593 134.124 203.337 134.124 202.78C134.124 202.256 133.333 201.967 131.774 201.967ZM136.374 205.052V206.043H127.196V205.052H136.374ZM135.226 206.722V209.184H129.502V209.93H135.505V210.877H128.288V208.304H134.012V207.636H128.277V206.722H135.226ZM142.817 201.343C144.343 201.332 145.456 202.201 145.456 203.459C145.456 204.695 144.343 205.575 142.817 205.564C141.302 205.575 140.199 204.695 140.199 203.459C140.199 202.201 141.302 201.332 142.817 201.343ZM142.817 202.345C141.993 202.334 141.391 202.769 141.402 203.459C141.391 204.139 141.993 204.551 142.817 204.551C143.674 204.551 144.276 204.139 144.276 203.459C144.276 202.769 143.674 202.334 142.817 202.345ZM147.951 200.909V210.955H146.726V200.909H147.951ZM139.542 206.255C141.358 206.255 143.897 206.221 146.069 205.898L146.158 206.812C145.289 206.979 144.387 207.084 143.507 207.146V210.654H142.26V207.224C141.33 207.263 140.456 207.268 139.698 207.279L139.542 206.255ZM157.215 200.909V203.816H158.618V204.84H157.215V208.315H155.979V200.909H157.215ZM157.616 209.763V210.765H150.766V207.569H152.003V209.763H157.616ZM150.844 201.621V203.158H153.194V201.621H154.419V206.678H149.619V201.621H150.844ZM150.844 205.698H153.194V204.116H150.844V205.698ZM166.958 200.875V203.147H168.372V204.15H166.958V206.366H165.721V200.875H166.958ZM166.958 206.812V209.24H161.612V209.952H167.27V210.877H160.387V208.382H165.721V207.714H160.375V206.812H166.958ZM164.997 201.711V202.657H159.028V201.711H161.4V200.82H162.636V201.711H164.997ZM162.013 202.969C163.505 202.98 164.463 203.615 164.474 204.617C164.463 205.653 163.505 206.266 162.013 206.266C160.52 206.266 159.54 205.653 159.54 204.617C159.54 203.615 160.52 202.98 162.013 202.969ZM162.013 203.86C161.233 203.86 160.743 204.139 160.743 204.617C160.743 205.108 161.233 205.375 162.013 205.375C162.792 205.375 163.293 205.108 163.293 204.617C163.293 204.139 162.792 203.86 162.013 203.86ZM179.237 200.898V204.829H180.729V205.865H179.237V210.944H178.001V200.898H179.237ZM176.575 201.944C176.575 204.907 175.35 207.502 171.998 209.15L171.296 208.193C173.746 206.973 175.072 205.258 175.328 202.969H171.842V201.944H176.575ZM189.236 203.515V204.517H182.286V201.076H183.522V203.515H189.236ZM190.283 205.486V206.489H181.094V205.486H190.283ZM185.672 207.212C187.844 207.224 189.147 207.892 189.158 209.072C189.147 210.253 187.844 210.921 185.672 210.921C183.478 210.921 182.164 210.253 182.164 209.072C182.164 207.892 183.478 207.224 185.672 207.212ZM185.672 208.181C184.202 208.193 183.411 208.471 183.422 209.072C183.411 209.652 184.202 209.975 185.672 209.975C187.109 209.975 187.91 209.652 187.922 209.072C187.91 208.471 187.109 208.193 185.672 208.181ZM194.524 202.345C194.512 203.715 195.314 204.963 196.896 205.464L196.228 206.433C195.131 206.049 194.362 205.319 193.933 204.361C193.488 205.458 192.647 206.321 191.427 206.745L190.77 205.742C192.441 205.197 193.276 203.849 193.276 202.401V201.443H194.524V202.345ZM199.268 200.898V206.823H198.032V203.86H196.027V202.847H198.032V200.898H199.268ZM195.86 207.09C197.998 207.09 199.302 207.803 199.302 209.028C199.302 210.253 197.998 210.955 195.86 210.955C193.733 210.955 192.43 210.253 192.441 209.028C192.43 207.803 193.733 207.09 195.86 207.09ZM195.86 208.048C194.457 208.048 193.666 208.393 193.666 209.028C193.666 209.64 194.457 209.986 195.86 209.986C197.263 209.986 198.065 209.64 198.065 209.028C198.065 208.393 197.263 208.048 195.86 208.048ZM208.955 200.898V210.977H207.708V200.898H208.955ZM203.531 201.633C205.046 201.633 206.148 203.014 206.16 205.185C206.148 207.38 205.046 208.749 203.531 208.749C202.005 208.749 200.903 207.38 200.903 205.185C200.903 203.014 202.005 201.633 203.531 201.633ZM203.531 202.746C202.674 202.746 202.094 203.648 202.094 205.185C202.094 206.734 202.674 207.636 203.531 207.636C204.378 207.636 204.957 206.734 204.957 205.185C204.957 203.648 204.378 202.746 203.531 202.746ZM216.49 207.446C216.49 208.282 216.874 209.162 217.737 209.707C218.612 209.123 219.018 208.209 219.029 207.446V207.034H220.243V207.446C220.232 208.504 220.856 209.485 222.181 209.908L221.58 210.81C220.6 210.481 219.948 209.841 219.597 209.039C219.274 209.83 218.678 210.537 217.771 210.899C216.813 210.554 216.211 209.874 215.9 209.072C215.538 209.847 214.897 210.476 213.962 210.81L213.349 209.908C214.652 209.451 215.276 208.426 215.287 207.446V207.034H216.49V207.446ZM221.301 200.909V206.611H220.054V200.909H221.301ZM215.81 201.443C217.359 201.443 218.517 202.423 218.517 203.838C218.517 205.241 217.359 206.221 215.81 206.221C214.251 206.221 213.093 205.241 213.093 203.838C213.093 202.423 214.251 201.443 215.81 201.443ZM215.81 202.49C214.931 202.49 214.296 203.014 214.307 203.838C214.296 204.662 214.931 205.197 215.81 205.197C216.679 205.197 217.303 204.662 217.303 203.838C217.303 203.014 216.679 202.49 215.81 202.49ZM224.985 206.934V207.892H229.418V206.934H230.654V210.843H223.76V206.934H224.985ZM224.985 209.863H229.418V208.839H224.985V209.863ZM231.835 205.353V206.366H222.657V205.353H231.835ZM227.881 201.388C227.881 202.468 229.262 203.604 231.345 203.849L230.91 204.829C229.223 204.601 227.892 203.855 227.246 202.835C226.595 203.86 225.258 204.601 223.582 204.829L223.125 203.849C225.23 203.593 226.6 202.501 226.611 201.388V201.009H227.881V201.388ZM240.798 200.898V210.966H239.573V200.898H240.798ZM234.204 201.878V207.38C235.619 207.357 237.122 207.229 238.671 206.923L238.826 207.959C237.056 208.326 235.407 208.438 233.848 208.438H232.979V201.878H234.204ZM250.028 200.898V204.718H251.576V205.731H250.028V210.977H248.792V200.898H250.028ZM247.266 201.855V202.858H243.791V207.48C245.356 207.48 246.592 207.402 247.979 207.157L248.124 208.204C246.564 208.471 245.206 208.516 243.39 208.516H242.555V201.855H247.266ZM253.111 210.064C252.632 210.064 252.242 209.674 252.242 209.195C252.242 208.727 252.632 208.337 253.111 208.337C253.567 208.337 253.968 208.727 253.968 209.195C253.968 209.674 253.567 210.064 253.111 210.064Z" fill="#030303"/>
<rect x="102.256" y="223.202" width="383.488" height="9.22711" rx="4.61356" fill="#F3F3F3"/>
<rect x="102.256" y="241.656" width="383.488" height="9.22711" rx="4.61356" fill="#F3F3F3"/>
</g>
</g>
<defs>
<filter id="filter0_d_845_2695" x="426.612" y="33.1238" width="47.7203" height="19.4159" filterUnits="userSpaceOnUse" color-interpolation-filters="sRGB">
<feFlood flood-opacity="0" result="BackgroundImageFix"/>
<feColorMatrix in="SourceAlpha" type="matrix" values="0 0 0 0 0 0 0 0 0 0 0 0 0 0 0 0 0 0 127 0" result="hardAlpha"/>
<feOffset/>
<feGaussianBlur stdDeviation="0.618007"/>
<feComposite in2="hardAlpha" operator="out"/>
<feColorMatrix type="matrix" values="0 0 0 0 0 0 0 0 0 0 0 0 0 0 0 0 0 0 0.05 0"/>
<feBlend mode="normal" in2="BackgroundImageFix" result="effect1_dropShadow_845_2695"/>
<feBlend mode="normal" in="SourceGraphic" in2="effect1_dropShadow_845_2695" result="shape"/>
</filter>
<filter id="filter1_d_845_2695" x="83.3696" y="87.3696" width="421.261" height="182.4" filterUnits="userSpaceOnUse" color-interpolation-filters="sRGB">
<feFlood flood-opacity="0" result="BackgroundImageFix"/>
<feColorMatrix in="SourceAlpha" type="matrix" values="0 0 0 0 0 0 0 0 0 0 0 0 0 0 0 0 0 0 127 0" result="hardAlpha"/>
<feOffset/>
<feGaussianBlur stdDeviation="2.31521"/>
<feComposite in2="hardAlpha" operator="out"/>
<feColorMatrix type="matrix" values="0 0 0 0 0 0 0 0 0 0 0 0 0 0 0 0 0 0 0.1 0"/>
<feBlend mode="normal" in2="BackgroundImageFix" result="effect1_dropShadow_845_2695"/>
<feBlend mode="normal" in="SourceGraphic" in2="effect1_dropShadow_845_2695" result="shape"/>
</filter>
<clipPath id="clip0_845_2695">
<rect width="588" height="375" fill="white"/>
</clipPath>
</defs>
</svg>
