<svg width="120" height="120" viewBox="0 0 120 120" fill="none" xmlns="http://www.w3.org/2000/svg">
<path d="M1.50031 60.0006C1.50031 53.5554 6.72516 48.3306 13.1704 48.3306C19.6155 48.3306 24.8404 53.5554 24.8404 60.0006V73.6157C24.8404 80.0609 19.6155 85.2857 13.1704 85.2857C6.72516 85.2857 1.50031 80.0609 1.50031 73.6157V60.0006Z" fill="#068EA5"/>
<path d="M48.1802 17.2106C48.1802 10.7654 53.4051 5.54053 59.8503 5.54053C66.2955 5.54053 71.5203 10.7654 71.5203 17.2106V30.8256C71.5203 37.2708 66.2955 42.4957 59.8503 42.4957C53.4051 42.4957 48.1802 37.2708 48.1802 30.8256V17.2106Z" fill="#068EA5"/>
<path d="M94.861 60.0006C94.861 53.5554 100.086 48.3306 106.531 48.3306C112.976 48.3306 118.201 53.5554 118.201 60.0006V73.6157C118.201 80.0609 112.976 85.2857 106.531 85.2857C100.086 85.2857 94.861 80.0609 94.861 73.6157V60.0006Z" fill="#068EA5"/>
<path d="M11.2253 36.6591C11.2253 25.9171 19.9334 17.209 30.6754 17.209H89.0257C99.7676 17.209 108.476 25.9171 108.476 36.6591V95.0093C108.476 105.751 99.7676 114.459 89.0257 114.459H30.6754C19.9334 114.459 11.2253 105.751 11.2253 95.0093V36.6591Z" fill="#E7F8F8"/>
<path d="M74.4387 77.5044C77.1242 77.5044 79.3013 79.6814 79.3013 82.3669C79.3013 85.0524 77.1242 87.2294 74.4387 87.2294L45.2636 87.2294C42.5781 87.2294 40.4011 85.0524 40.4011 82.3669C40.4011 79.6814 42.5781 77.5044 45.2636 77.5044L74.4387 77.5044Z" fill="#030303"/>
<path d="M46.2355 60.9716C46.2355 64.7313 43.1877 67.7791 39.428 67.7791C35.6683 67.7791 32.6205 64.7313 32.6205 60.9716C32.6205 57.2119 35.6683 54.1641 39.428 54.1641C43.1877 54.1641 46.2355 57.2119 46.2355 60.9716Z" fill="black"/>
<path d="M87.0803 60.9716C87.0803 64.7313 84.0324 67.7791 80.2727 67.7791C76.513 67.7791 73.4652 64.7313 73.4652 60.9716C73.4652 57.2119 76.513 54.1641 80.2727 54.1641C84.0324 54.1641 87.0803 57.2119 87.0803 60.9716Z" fill="black"/>
</svg>
