<svg width="120" height="120" viewBox="0 0 120 120" fill="none" xmlns="http://www.w3.org/2000/svg">
<path d="M14.7251 65.0292C14.7251 62.0931 17.1053 59.7129 20.0414 59.7129H33.3321C36.2682 59.7129 38.6484 62.0931 38.6484 65.0292V96.927H14.7251V65.0292Z" fill="#FFFDED"/>
<path d="M49.2816 46.4213C49.2816 43.4852 51.6618 41.105 54.5979 41.105H67.8886C70.8248 41.105 73.2049 43.4852 73.2049 46.4213V96.9261H49.2816V46.4213Z" fill="#FFF7AF"/>
<path d="M83.8378 27.8153C83.8378 24.8792 86.218 22.499 89.1541 22.499H102.445C105.381 22.499 107.761 24.8792 107.761 27.8153V96.9271H83.8378V27.8153Z" fill="#FFF06E"/>
<path d="M5.99951 97.5L117 97.5" stroke="white" stroke-width="3.98722" stroke-linecap="round"/>
</svg>
