<svg width="486" height="374" viewBox="0 0 486 374" fill="none" xmlns="http://www.w3.org/2000/svg">
<rect x="74.8589" y="60" width="362" height="207.396" rx="18.8542" transform="rotate(1.89519 74.8589 60)" fill="#333333"/>
<rect x="35.1864" y="88.8296" width="362" height="207.396" rx="18.8542" transform="rotate(-2.35952 35.1864 88.8296)" fill="#4D4D4D"/>
<rect x="62" y="106" width="362" height="207.396" rx="18.8542" fill="url(#paint0_linear_796_3804)"/>
<path opacity="0.8" d="M126.989 213.785H129.167C129.726 213.785 130.244 213.69 130.72 213.499C131.208 213.297 131.631 213.017 131.988 212.66C132.357 212.303 132.636 211.887 132.827 211.411C133.029 210.935 133.13 210.417 133.13 209.858C133.13 209.298 133.029 208.781 132.827 208.305C132.624 207.817 132.345 207.394 131.988 207.037C131.631 206.68 131.208 206.4 130.72 206.198C130.244 205.996 129.726 205.895 129.167 205.895H126.989V213.785ZM124.401 216.088V203.592H129.203C130.143 203.592 131.012 203.752 131.809 204.074C132.606 204.383 133.303 204.823 133.898 205.395C134.493 205.966 134.957 206.632 135.29 207.394C135.635 208.156 135.808 208.977 135.808 209.858C135.808 210.75 135.641 211.571 135.308 212.321C134.975 213.071 134.505 213.731 133.898 214.303C133.303 214.862 132.606 215.302 131.809 215.624C131.012 215.933 130.143 216.088 129.203 216.088H124.401ZM135.687 216.088L140.828 203.592H143.809L148.897 216.088H146.094L144.827 212.803H139.668L138.382 216.088H135.687ZM140.471 210.732H144.041L142.256 206.127L140.471 210.732ZM149.958 216.088V203.592H156.063C156.908 203.592 157.652 203.758 158.295 204.092C158.949 204.413 159.455 204.865 159.812 205.448C160.181 206.031 160.365 206.704 160.365 207.466C160.365 208.263 160.145 208.965 159.705 209.572C159.265 210.179 158.675 210.631 157.938 210.929L160.705 216.088H157.813L155.367 211.304H152.546V216.088H149.958ZM152.546 209.179H155.831C156.414 209.179 156.878 209.025 157.223 208.715C157.581 208.406 157.759 208.001 157.759 207.501C157.759 207.001 157.581 206.597 157.223 206.287C156.878 205.978 156.414 205.823 155.831 205.823H152.546V209.179ZM162.074 216.088V203.592H164.662V209.179L170.125 203.592H173.285L167.215 209.536L173.57 216.088H170.107L164.662 210.286V216.088H162.074ZM174.086 216.088V203.592H180.351C181.173 203.592 181.893 203.758 182.512 204.092C183.142 204.425 183.636 204.889 183.993 205.484C184.35 206.067 184.529 206.746 184.529 207.519C184.529 208.257 184.35 208.917 183.993 209.501C183.636 210.084 183.142 210.542 182.512 210.875C181.881 211.208 181.161 211.375 180.351 211.375H176.674V216.088H174.086ZM176.674 209.233H180.066C180.625 209.233 181.071 209.078 181.405 208.769C181.75 208.459 181.922 208.049 181.922 207.537C181.922 207.013 181.75 206.597 181.405 206.287C181.071 205.978 180.625 205.823 180.066 205.823H176.674V209.233ZM183.193 216.088L188.334 203.592H191.315L196.403 216.088H193.6L192.333 212.803H187.173L185.888 216.088H183.193ZM187.977 210.732H191.547L189.762 206.127L187.977 210.732ZM198.589 216.088V205.877H194.376V203.592H205.373V205.877H201.178V216.088H198.589ZM210.409 216.088V205.877H206.196V203.592H217.193V205.877H212.998V216.088H210.409ZM218.645 216.088V203.592H228.249V205.841H221.234V208.697H225.857V210.875H221.234V213.839H228.321V216.088H218.645ZM230.151 216.088V203.592H236.256C237.101 203.592 237.845 203.758 238.488 204.092C239.142 204.413 239.648 204.865 240.005 205.448C240.374 206.031 240.559 206.704 240.559 207.466C240.559 208.263 240.338 208.965 239.898 209.572C239.458 210.179 238.869 210.631 238.131 210.929L240.898 216.088H238.006L235.56 211.304H232.739V216.088H230.151ZM232.739 209.179H236.024C236.607 209.179 237.071 209.025 237.417 208.715C237.774 208.406 237.952 208.001 237.952 207.501C237.952 207.001 237.774 206.597 237.417 206.287C237.071 205.978 236.607 205.823 236.024 205.823H232.739V209.179ZM242.267 216.088V203.592H244.731L250.943 211.661V203.592H253.371V216.088H251.086L244.713 207.733V216.088H242.267ZM261.818 213.785H263.996C264.555 213.785 265.073 213.69 265.549 213.499C266.037 213.297 266.46 213.017 266.817 212.66C267.186 212.303 267.465 211.887 267.656 211.411C267.858 210.935 267.959 210.417 267.959 209.858C267.959 209.298 267.858 208.781 267.656 208.305C267.453 207.817 267.174 207.394 266.817 207.037C266.46 206.68 266.037 206.4 265.549 206.198C265.073 205.996 264.555 205.895 263.996 205.895H261.818V213.785ZM259.23 216.088V203.592H264.032C264.972 203.592 265.841 203.752 266.638 204.074C267.436 204.383 268.132 204.823 268.727 205.395C269.322 205.966 269.786 206.632 270.119 207.394C270.464 208.156 270.637 208.977 270.637 209.858C270.637 210.75 270.47 211.571 270.137 212.321C269.804 213.071 269.334 213.731 268.727 214.303C268.132 214.862 267.436 215.302 266.638 215.624C265.841 215.933 264.972 216.088 264.032 216.088H259.23ZM272.409 216.088V203.592H282.013V205.841H274.998V208.697H279.621V210.875H274.998V213.839H282.085V216.088H272.409ZM287.325 216.088V205.877H283.112V203.592H294.109V205.877H289.913V216.088H287.325ZM295.561 216.088V203.592H305.165V205.841H298.149V208.697H302.773V210.875H298.149V213.839H305.236V216.088H295.561ZM312.493 216.266C311.565 216.266 310.696 216.106 309.887 215.784C309.078 215.451 308.37 214.993 307.763 214.41C307.168 213.827 306.697 213.148 306.352 212.375C306.019 211.589 305.852 210.744 305.852 209.84C305.852 208.923 306.019 208.078 306.352 207.305C306.697 206.519 307.173 205.835 307.78 205.252C308.387 204.669 309.09 204.217 309.887 203.895C310.696 203.562 311.565 203.395 312.493 203.395C313.184 203.395 313.85 203.491 314.493 203.681C315.135 203.871 315.73 204.139 316.278 204.484C316.837 204.829 317.313 205.246 317.706 205.734L315.957 207.466C315.504 206.906 314.981 206.484 314.386 206.198C313.802 205.912 313.172 205.77 312.493 205.77C311.934 205.77 311.41 205.877 310.922 206.091C310.434 206.293 310.012 206.579 309.655 206.948C309.298 207.305 309.018 207.733 308.816 208.233C308.614 208.721 308.512 209.257 308.512 209.84C308.512 210.411 308.614 210.947 308.816 211.446C309.018 211.934 309.304 212.363 309.673 212.732C310.042 213.089 310.47 213.368 310.958 213.571C311.458 213.773 311.999 213.874 312.583 213.874C313.237 213.874 313.85 213.737 314.421 213.464C314.993 213.19 315.498 212.797 315.939 212.285L317.635 213.964C317.242 214.44 316.772 214.85 316.224 215.195C315.677 215.54 315.082 215.808 314.439 215.999C313.808 216.177 313.16 216.266 312.493 216.266ZM322.732 216.088V205.877H318.519V203.592H329.516V205.877H325.32V216.088H322.732ZM330.968 216.088V203.592H333.556V216.088H330.968ZM341.955 216.284C341.026 216.284 340.164 216.124 339.366 215.802C338.569 215.469 337.867 215.011 337.26 214.428C336.665 213.833 336.195 213.148 335.849 212.375C335.516 211.589 335.35 210.744 335.35 209.84C335.35 208.935 335.516 208.096 335.849 207.323C336.195 206.537 336.665 205.853 337.26 205.27C337.867 204.675 338.569 204.217 339.366 203.895C340.164 203.562 341.026 203.395 341.955 203.395C342.883 203.395 343.746 203.562 344.543 203.895C345.352 204.217 346.055 204.675 346.65 205.27C347.257 205.853 347.727 206.537 348.06 207.323C348.393 208.096 348.56 208.935 348.56 209.84C348.56 210.744 348.393 211.589 348.06 212.375C347.727 213.148 347.257 213.833 346.65 214.428C346.055 215.011 345.352 215.469 344.543 215.802C343.746 216.124 342.883 216.284 341.955 216.284ZM341.955 213.91C342.526 213.91 343.05 213.809 343.526 213.607C344.002 213.392 344.418 213.107 344.775 212.75C345.132 212.381 345.412 211.946 345.614 211.446C345.817 210.947 345.918 210.411 345.918 209.84C345.918 209.257 345.817 208.721 345.614 208.233C345.412 207.733 345.132 207.305 344.775 206.948C344.418 206.579 344.002 206.293 343.526 206.091C343.05 205.877 342.526 205.77 341.955 205.77C341.395 205.77 340.878 205.877 340.402 206.091C339.926 206.293 339.509 206.579 339.152 206.948C338.795 207.305 338.515 207.733 338.313 208.233C338.111 208.721 338.009 209.251 338.009 209.822C338.009 210.405 338.111 210.947 338.313 211.446C338.515 211.946 338.795 212.381 339.152 212.75C339.509 213.107 339.926 213.392 340.402 213.607C340.878 213.809 341.395 213.91 341.955 213.91ZM350.353 216.088V203.592H352.817L359.029 211.661V203.592H361.457V216.088H359.172L352.799 207.733V216.088H350.353Z" fill="white"/>
<g filter="url(#filter0_d_796_3804)">
<rect x="332" y="120" width="145" height="50" rx="25" fill="white" shape-rendering="crispEdges"/>
<rect x="332.5" y="120.5" width="144" height="49" rx="24.5" stroke="#C7C7C7" shape-rendering="crispEdges"/>
<path d="M373.848 136.863C376.523 136.844 378.477 138.367 378.477 140.574C378.477 142.742 376.523 144.285 373.848 144.266C371.191 144.285 369.258 142.742 369.258 140.574C369.258 138.367 371.191 136.844 373.848 136.863ZM373.848 138.621C372.402 138.602 371.348 139.363 371.367 140.574C371.348 141.766 372.402 142.488 373.848 142.488C375.352 142.488 376.406 141.766 376.406 140.574C376.406 139.363 375.352 138.602 373.848 138.621ZM382.852 136.102V153.719H380.703V136.102H382.852ZM368.105 145.477C371.289 145.477 375.742 145.418 379.551 144.852L379.707 146.453C378.184 146.746 376.602 146.932 375.059 147.039V153.191H372.871V147.176C371.24 147.244 369.707 147.254 368.379 147.273L368.105 145.477ZM399.097 136.102V141.199H401.558V142.996H399.097V149.09H396.929V136.102H399.097ZM399.8 151.629V153.387H387.788V147.781H389.956V151.629H399.8ZM387.925 137.352V140.047H392.046V137.352H394.195V146.219H385.777V137.352H387.925ZM387.925 144.5H392.046V141.727H387.925V144.5ZM413.111 140.32C413.091 143.465 414.673 146.668 417.408 147.977L416.08 149.715C414.166 148.748 412.789 146.883 412.037 144.637C411.265 147.039 409.82 149.031 407.798 150.047L406.47 148.309C409.302 146.961 410.923 143.582 410.943 140.32V137.508H413.111V140.32ZM420.63 136.082V142.996H423.345V144.852H420.63V153.738H418.463V136.082H420.63ZM430.47 137.879V144.422H426.505V147.82C428.077 147.811 429.62 147.703 431.427 147.41L431.602 149.188C429.395 149.559 427.598 149.637 425.567 149.637H424.415V142.703H428.36V139.637H424.395V137.879H430.47ZM439.083 136.082V153.738H437.013V136.082H439.083ZM435.47 136.395V152.84H433.399V146.668H431.348V144.891H433.399V142.273H431.348V140.535H433.399V136.395H435.47Z" fill="#101010"/>
</g>
<g filter="url(#filter1_d_796_3804)">
<rect x="11" y="235" width="154" height="50" rx="25" fill="white" shape-rendering="crispEdges"/>
<rect x="11.5" y="235.5" width="153" height="49" rx="24.5" stroke="#C7C7C7" shape-rendering="crispEdges"/>
<path d="M48.4141 251.082V257.781H51.1289V259.559H48.4141V268.758H46.2461V251.082H48.4141ZM43.5703 252.762V254.52H37.4766V262.625C40.2207 262.625 42.3887 262.488 44.8203 262.059L45.0742 263.895C42.3398 264.363 39.957 264.441 36.7734 264.441H35.3086V252.762H43.5703ZM65.9875 252.723V254.832C65.9875 257.391 65.9875 259.832 65.2062 263.562L63.0383 263.367C63.3996 261.824 63.6047 260.467 63.7219 259.207L53.3117 259.754L53.0187 257.996L63.8195 257.586C63.8586 256.639 63.8586 255.73 63.8586 254.832V254.48H53.5461V252.723H65.9875ZM67.7648 264.715V266.492H51.6711V264.715H67.7648ZM83.9906 251.082V268.738H81.9008V259.773H80.143V267.84H78.0922V251.414H80.143V257.996H81.9008V251.082H83.9906ZM77.0766 253.172V254.93H75.807V262.527C76.3344 262.488 76.8324 262.439 77.3109 262.371L77.4281 263.953C74.6742 264.52 71.0414 264.578 68.8148 264.578L68.5609 262.781L70.2016 262.762V254.93H68.9125V253.172H77.0766ZM72.1547 262.723L73.8344 262.664V254.93H72.1547V262.723ZM100.627 251.102V264.148H98.4586V257.684H95.2945V255.926H98.4586V251.102H100.627ZM101.076 266.629V268.387H89.025V263.016H91.2125V266.629H101.076ZM94.7281 252.449V254.207H88.8688V256.121H94.2008V257.82H88.8688V259.852C91.6617 259.842 93.4195 259.783 95.4703 259.422L95.6461 261.16C93.3609 261.57 91.3883 261.648 88.0484 261.648H86.7008V252.449H94.7281ZM123.605 264.793V266.551H107.473V264.793H114.387V260.711H116.535V264.793H123.605ZM116.594 253.445C116.594 256.121 119.27 258.758 122.98 259.344L122.043 261.141C119.055 260.574 116.613 258.865 115.441 256.551C114.27 258.855 111.848 260.594 108.879 261.141L107.941 259.344C111.633 258.758 114.27 256.102 114.289 253.445V252.156H116.594V253.445ZM131.14 253.602C131.14 255.926 132.585 258.113 135.398 258.992L134.323 260.711C132.282 260.027 130.827 258.689 130.046 256.961C129.236 258.816 127.761 260.291 125.671 261.004L124.577 259.305C127.429 258.328 128.894 256.004 128.894 253.602V251.922H131.14V253.602ZM139.265 262.449V268.738H137.077V264.188H127.214V262.449H139.265ZM139.265 251.082V261.648H137.077V251.082H139.265Z" fill="#101010"/>
</g>
<defs>
<filter id="filter0_d_796_3804" x="328" y="120" width="153" height="58" filterUnits="userSpaceOnUse" color-interpolation-filters="sRGB">
<feFlood flood-opacity="0" result="BackgroundImageFix"/>
<feColorMatrix in="SourceAlpha" type="matrix" values="0 0 0 0 0 0 0 0 0 0 0 0 0 0 0 0 0 0 127 0" result="hardAlpha"/>
<feOffset dy="4"/>
<feGaussianBlur stdDeviation="2"/>
<feComposite in2="hardAlpha" operator="out"/>
<feColorMatrix type="matrix" values="0 0 0 0 0 0 0 0 0 0 0 0 0 0 0 0 0 0 0.25 0"/>
<feBlend mode="normal" in2="BackgroundImageFix" result="effect1_dropShadow_796_3804"/>
<feBlend mode="normal" in="SourceGraphic" in2="effect1_dropShadow_796_3804" result="shape"/>
</filter>
<filter id="filter1_d_796_3804" x="7" y="235" width="162" height="58" filterUnits="userSpaceOnUse" color-interpolation-filters="sRGB">
<feFlood flood-opacity="0" result="BackgroundImageFix"/>
<feColorMatrix in="SourceAlpha" type="matrix" values="0 0 0 0 0 0 0 0 0 0 0 0 0 0 0 0 0 0 127 0" result="hardAlpha"/>
<feOffset dy="4"/>
<feGaussianBlur stdDeviation="2"/>
<feComposite in2="hardAlpha" operator="out"/>
<feColorMatrix type="matrix" values="0 0 0 0 0 0 0 0 0 0 0 0 0 0 0 0 0 0 0.25 0"/>
<feBlend mode="normal" in2="BackgroundImageFix" result="effect1_dropShadow_796_3804"/>
<feBlend mode="normal" in="SourceGraphic" in2="effect1_dropShadow_796_3804" result="shape"/>
</filter>
<linearGradient id="paint0_linear_796_3804" x1="68.5" y1="112" x2="378" y2="297.5" gradientUnits="userSpaceOnUse">
<stop stop-color="#59D0D7"/>
<stop offset="1" stop-color="#75C8CC"/>
</linearGradient>
</defs>
</svg>
