<svg width="40" height="40" viewBox="0 0 40 40" fill="none" xmlns="http://www.w3.org/2000/svg">
<rect width="40" height="40" rx="20" fill="#262626"/>
<path d="M14.821 18.0571C14.821 18.3496 14.8525 18.5868 14.9082 18.7602C14.9712 18.9338 15.0503 19.1236 15.1608 19.3287C15.1996 19.3917 15.2157 19.4547 15.2157 19.5104C15.2157 19.5888 15.1681 19.6679 15.0657 19.7468L14.5683 20.0787C14.4972 20.1256 14.4262 20.1498 14.3633 20.1498C14.2842 20.1498 14.2051 20.1102 14.126 20.0392C14.0198 19.9246 13.9246 19.8003 13.8417 19.6679C13.7539 19.516 13.6723 19.3606 13.5972 19.202C12.9818 19.9285 12.2078 20.2919 11.276 20.2919C10.6132 20.2919 10.0844 20.1022 9.69703 19.7234C9.31022 19.3441 9.11316 18.8388 9.11316 18.2073C9.11316 17.5364 9.34978 16.9915 9.83185 16.5815C10.313 16.1705 10.9523 15.9653 11.7661 15.9653C12.0342 15.9653 12.3102 15.9888 12.6023 16.0283C12.8948 16.0679 13.195 16.1309 13.5108 16.202V15.6256C13.5108 15.0256 13.384 14.6075 13.1395 14.363C12.8864 14.1183 12.4602 13.9996 11.8523 13.9996C11.5762 13.9996 11.2921 14.0311 10.9998 14.1022C10.7096 14.1713 10.4246 14.2611 10.1472 14.3708C10.0205 14.4258 9.92597 14.4573 9.87103 14.4734C9.81553 14.4888 9.77597 14.4968 9.74447 14.4968C9.63385 14.4968 9.57891 14.4177 9.57891 14.2523V13.8655C9.57891 13.7388 9.59428 13.6443 9.63385 13.5888C9.67322 13.5338 9.74447 13.4789 9.8551 13.4232C10.1311 13.2811 10.463 13.1626 10.8496 13.0679C11.2364 12.9653 11.6472 12.9179 12.0815 12.9179C13.0205 12.9179 13.7075 13.1309 14.15 13.5573C14.5842 13.9835 14.8047 14.6309 14.8047 15.4996V18.0571H14.821ZM11.6159 19.2577C11.876 19.2577 12.1447 19.21 12.4289 19.1155C12.7132 19.0203 12.9657 18.8468 13.1789 18.6102C13.3049 18.4602 13.4002 18.2945 13.447 18.1049C13.4947 17.9152 13.5262 17.6868 13.5262 17.4177V17.0868C13.287 17.028 13.0447 16.983 12.8003 16.952C12.554 16.9209 12.306 16.9052 12.0577 16.9051C11.5289 16.9051 11.1421 17.0077 10.8813 17.2208C10.6212 17.4338 10.4947 17.7335 10.4947 18.1283C10.4947 18.4996 10.5892 18.7758 10.7868 18.9653C10.9765 19.1624 11.2527 19.2577 11.6159 19.2577ZM17.9551 20.1102C17.813 20.1102 17.7185 20.0868 17.6555 20.0311C17.5917 19.9835 17.5368 19.8736 17.4892 19.7236L15.634 13.6208C15.5872 13.4628 15.5628 13.3602 15.5628 13.3045C15.5628 13.1785 15.626 13.1077 15.7527 13.1077H16.5262C16.6762 13.1077 16.7787 13.1309 16.8344 13.1866C16.8974 13.2335 16.945 13.3441 16.9919 13.4941L18.3183 18.7208L19.5502 13.4943C19.5892 13.3368 19.6368 13.2337 19.6996 13.1868C19.7633 13.139 19.874 13.1075 20.0161 13.1075H20.6474C20.7974 13.1075 20.9002 13.1309 20.9632 13.1866C21.0262 13.2335 21.0818 13.3441 21.1132 13.4941L22.3606 18.7838L23.7265 13.4943C23.7734 13.3368 23.8291 13.2337 23.884 13.1868C23.947 13.139 24.0503 13.1075 24.1923 13.1075H24.9262C25.0529 13.1075 25.124 13.1705 25.124 13.3045C25.124 13.3439 25.1159 13.3837 25.1078 13.4313C25.0998 13.4789 25.0844 13.5419 25.0529 13.6282L23.1502 19.7315C23.1025 19.889 23.0476 19.9915 22.9838 20.039C22.9208 20.0868 22.8183 20.1183 22.6842 20.1183H22.0055C21.8553 20.1183 21.7527 20.0939 21.6897 20.0392C21.626 19.9835 21.571 19.8809 21.5395 19.7234L20.3157 14.6309L19.0998 19.7153C19.0604 19.8736 19.0135 19.9762 18.9498 20.0311C18.8866 20.0868 18.7762 20.1102 18.634 20.1102H17.9551ZM28.0998 20.3234C27.6897 20.3234 27.2787 20.2758 26.884 20.1813C26.4892 20.0868 26.1817 19.9835 25.9765 19.8655C25.8498 19.7945 25.7633 19.7155 25.7318 19.6443C25.7007 19.5747 25.6845 19.4993 25.6842 19.423V19.0203C25.6842 18.8549 25.7472 18.7758 25.8661 18.7758C25.913 18.7758 25.9604 18.7838 26.008 18.8C26.0549 18.8153 26.126 18.8468 26.2049 18.8783C26.484 19.0009 26.7752 19.0937 27.0738 19.1551C27.3893 19.2181 27.697 19.2496 28.0133 19.2496C28.5108 19.2496 28.8974 19.1624 29.1655 18.989C29.4342 18.8153 29.5763 18.5626 29.5763 18.239C29.5763 18.0177 29.5053 17.8368 29.3633 17.6866C29.2212 17.5366 28.9523 17.4023 28.5657 17.2758L27.4208 16.9205C26.8445 16.7388 26.4181 16.4708 26.1582 16.1155C25.8976 15.7677 25.7633 15.3809 25.7633 14.9708C25.7633 14.639 25.8346 14.3468 25.9765 14.0941C26.1175 13.8401 26.3113 13.6193 26.5448 13.4467C26.7815 13.2657 27.0503 13.1309 27.3661 13.0364C27.6817 12.9419 28.0133 12.9023 28.3606 12.9023C28.5342 12.9023 28.7157 12.9104 28.8893 12.9338C29.071 12.9573 29.2366 12.9888 29.4027 13.0203C29.5602 13.0598 29.7104 13.0994 29.8525 13.147C29.9947 13.1947 30.1053 13.2415 30.1844 13.2892C30.295 13.3522 30.374 13.4152 30.4208 13.486C30.4685 13.5498 30.4919 13.6364 30.4919 13.7468V14.1181C30.4919 14.2838 30.4289 14.3708 30.3102 14.3708C30.2472 14.3708 30.1447 14.3388 30.0108 14.2758C29.5602 14.0707 29.0549 13.9681 28.4947 13.9681C28.0448 13.9681 27.6897 14.0392 27.445 14.1893C27.1996 14.3388 27.0738 14.5681 27.0738 14.8917C27.0738 15.113 27.1527 15.3025 27.3102 15.452C27.4685 15.602 27.7608 15.7523 28.1789 15.8862L29.3002 16.2415C29.8687 16.4232 30.2789 16.6758 30.5234 16.9996C30.7681 17.3234 30.8868 17.6947 30.8868 18.1049C30.8868 18.4447 30.8155 18.7523 30.6817 19.0203C30.5395 19.2892 30.3498 19.5258 30.1053 19.7153C29.8606 19.9124 29.5683 20.0545 29.2293 20.1578C28.874 20.2677 28.5027 20.3234 28.0998 20.3234Z" fill="white"/>
<path d="M30.125 21.7526C29.294 21.7644 28.313 21.9498 27.571 22.4711C27.3417 22.6366 27.3813 22.8577 27.634 22.8262C28.4793 22.7236 30.3415 22.5026 30.6734 22.9288C31.0053 23.3469 30.3029 25.1075 29.9866 25.8894C29.8921 26.1256 30.0972 26.2211 30.3102 26.0394C31.6996 24.8711 32.063 22.4315 31.7787 22.0762C31.6368 21.9028 30.956 21.7406 30.125 21.7526ZM8.3056 22.2234C8.13179 22.2451 8.05304 22.4551 8.2366 22.6211C11.3319 25.4152 15.4289 27.0971 19.9765 27.0971C23.2212 27.0971 26.9947 26.079 29.5917 24.1608C30.0179 23.8443 29.6474 23.3632 29.213 23.5601C26.3004 24.792 23.134 25.392 20.2527 25.392C15.9819 25.392 11.8527 24.2158 8.50529 22.2733C8.43216 22.23 8.36373 22.2163 8.30579 22.2234H8.3056Z" fill="#FF9900"/>
</svg>
