<svg width="40" height="40" viewBox="0 0 40 40" fill="none" xmlns="http://www.w3.org/2000/svg">
<rect width="40" height="40" rx="20" fill="#262626"/>
<g clip-path="url(#clip0_864_1572)">
<path d="M16.5312 32.1875C18.7624 32.1875 20.5624 30.3875 20.5624 28.1562V24.125H16.5312C14.2999 24.125 12.4999 25.925 12.4999 28.1562C12.4999 30.3875 14.2999 32.1875 16.5312 32.1875Z" fill="#0ACF83"/>
<path d="M12.4999 20.0947C12.4999 17.8635 14.2999 16.0635 16.5312 16.0635H20.5624V24.126H16.5312C14.2999 24.126 12.4999 22.326 12.4999 20.0947Z" fill="#A259FF"/>
<path d="M12.4999 12.0312C12.4999 9.8 14.2999 8 16.5312 8H20.5624V16.0625H16.5312C14.2999 16.0625 12.4999 14.2625 12.4999 12.0312Z" fill="#F24E1E"/>
<path d="M20.5625 8H24.5938C26.825 8 28.625 9.8 28.625 12.0312C28.625 14.2625 26.825 16.0625 24.5938 16.0625H20.5625V8Z" fill="#FF7262"/>
<path d="M28.625 20.0947C28.625 22.326 26.825 24.126 24.5938 24.126C22.3625 24.126 20.5625 22.326 20.5625 20.0947C20.5625 17.8635 22.3625 16.0635 24.5938 16.0635C26.825 16.0635 28.625 17.8635 28.625 20.0947Z" fill="#1ABCFE"/>
</g>
<defs>
<clipPath id="clip0_864_1572">
<rect width="24" height="24" fill="white" transform="translate(8 8)"/>
</clipPath>
</defs>
</svg>
