<svg width="40" height="40" viewBox="0 0 40 40" fill="none" xmlns="http://www.w3.org/2000/svg">
<rect width="40" height="40" rx="20" fill="#262626"/>
<path d="M16.3325 26.8677C15.5394 26.2433 14.6937 25.6452 14.1144 24.8033C12.8975 23.3183 11.96 21.5971 11.3206 19.7896C10.9325 18.614 10.8012 17.354 10.3006 16.2233C9.77937 15.4021 10.3906 14.5058 11.2887 14.2452C11.6881 14.1683 12.3931 13.7896 11.5437 14.0615C10.7825 14.6202 10.7094 13.5533 11.4894 13.4858C12.0219 13.4146 12.2187 12.9796 12.0369 12.5858C11.465 12.2127 13.4244 11.8021 12.4381 11.2452C11.4106 10.1371 13.8744 9.92334 13.2669 11.1833C13.1225 12.1508 14.9881 11.0052 14.555 12.1227C14.9956 12.659 16.205 12.2446 16.1731 12.9983C16.8144 13.0433 17.0356 13.5815 17.6356 13.6227C18.26 13.904 19.3906 14.1271 19.6025 14.8302C18.9837 15.3196 17.5494 13.8177 17.4819 15.1752C17.6694 17.1796 17.6206 19.244 18.3537 21.1527C18.7006 22.3077 19.5406 23.2171 20.3 24.1171C21.0275 24.9983 22.01 25.619 23.015 26.1421C23.8944 26.5565 24.8431 26.8321 25.8031 27.0046C26.1912 26.7065 26.8794 25.6021 27.485 26.0671C27.515 26.5921 26.2812 27.1621 27.4269 27.1058C28.1 26.9033 28.5669 27.6252 29.1219 26.9727C29.6319 27.5783 31.2444 26.5865 30.8806 27.8221C30.3894 28.139 29.6731 27.9477 29.18 28.3846C28.3681 27.9796 27.7231 28.7465 26.825 28.6508C25.8275 28.829 24.8131 28.9021 23.8006 28.9021C22.1412 28.7708 20.4462 28.7165 18.8694 28.139C17.9806 27.8802 17.1125 27.374 16.3325 26.8677ZM17.7331 27.4752C18.6012 27.8502 19.4506 28.2458 20.4012 28.3658C21.9106 28.5758 23.4706 28.8983 24.9856 28.604C24.2994 28.2946 23.5906 28.724 22.9081 28.3827C22.0887 28.559 21.2094 28.3377 20.3769 28.229C19.43 27.8071 18.4081 27.5165 17.5212 26.969C16.4131 26.564 18.095 27.4883 18.3931 27.5633C19.085 27.9571 17.6319 27.3608 17.4256 27.1977C16.8462 26.8715 16.7712 26.9408 17.3675 27.2708C17.4875 27.3402 17.6075 27.4152 17.7331 27.4752ZM16.0812 26.3071C16.9231 26.6183 16.0775 25.7146 15.6931 25.7671C15.5225 25.4708 15.0406 25.2833 15.38 25.124C14.7687 25.3358 14.7387 24.3177 14.4519 24.4621C13.805 24.2577 14.2006 23.534 13.43 23.0896C13.3606 22.6208 12.665 22.2158 12.4437 21.509C12.3462 21.1471 11.6581 20.1102 12.08 21.0758C12.44 22.0058 13.0719 22.8027 13.5987 23.5977C14.0075 24.3552 14.4912 25.1465 15.2337 25.619C15.485 25.8627 15.7269 26.2321 16.0812 26.3071ZM13.6569 23.6465C13.8106 23.9202 13.6869 23.519 13.6569 23.6465ZM17.0881 26.6802C17.2756 26.5977 16.82 26.5752 17.0881 26.6802ZM17.5456 26.8471C17.4987 26.6165 17.3375 26.9765 17.5456 26.8471ZM18.1175 27.0852C18.3894 26.8265 17.6975 26.9221 18.1175 27.0852ZM19.0962 27.6308C19.2631 27.3871 18.5675 27.539 19.0962 27.6308ZM17.2156 26.3202C17.6375 26.0465 16.67 26.3165 17.2156 26.3202ZM17.645 26.534C17.6319 26.3896 17.4912 26.5977 17.645 26.534ZM19.7881 27.8708C20.1331 28.0883 21.8 28.3471 20.7556 27.9608C20.5812 27.9983 18.8187 27.4621 19.7881 27.8708ZM16.385 25.2215C16.3512 25.0771 15.8506 25.0621 16.385 25.2215ZM17.3825 25.8027C17.6431 25.6227 16.8444 25.664 17.3825 25.8027ZM18.2225 26.3183C18.5937 26.1777 17.6169 26.1777 18.2225 26.3183ZM15.9781 24.779C16.3831 25.0883 17.6094 24.8183 16.5969 24.5933C16.1375 24.3477 15.0987 24.1808 15.8056 24.7415L15.9781 24.779ZM18.7906 26.4965C18.9594 26.2096 18.0837 26.3315 18.7906 26.4965ZM17.9356 25.8158C18.9237 26.0952 17.105 25.1896 17.6919 25.7127L17.8231 25.7727L17.9356 25.8158ZM19.6494 26.8058C20.585 26.8152 18.8037 26.6783 19.6494 26.8058ZM15.6181 24.2371C15.5825 24.0627 15.3875 24.2521 15.6181 24.2371ZM21.2319 27.6946C21.2581 27.3796 20.9281 27.929 21.2319 27.6946ZM17.2156 25.2158C17.1594 25.0508 16.9231 25.2083 17.2156 25.2158ZM15.7081 24.1283C16.2444 24.0965 14.9712 23.8921 15.7081 24.1283ZM13.9194 22.9733C13.8519 22.7146 13.3344 22.5102 13.9194 22.9733ZM18.6125 25.9508C18.5656 25.9752 18.515 25.8383 18.6125 25.9508ZM21.5337 27.7433C21.5244 27.5727 21.3744 27.809 21.5337 27.7433ZM18.3537 25.6846C18.4062 25.4633 17.8962 25.6171 18.3537 25.6846ZM16.1787 24.3046C16.5781 24.2615 15.5375 24.0346 16.1787 24.3046ZM19.8594 26.5921C20.4819 26.3446 19.2519 26.4721 19.8594 26.5921ZM17.945 25.2927C18.6631 25.3846 17.09 24.8033 17.7875 25.2402L17.945 25.2927ZM20.4406 26.8283C21.1119 26.4271 20.8906 27.7677 21.5787 26.9408C22.2575 26.4458 20.9919 27.554 21.8281 27.029C22.4337 26.624 23.3262 27.2202 23.8906 27.4152C24.2956 27.3946 24.6912 27.7658 25.1075 27.5408C25.9081 27.3252 23.54 27.2202 24.1606 26.8377C23.4275 27.0515 22.8856 26.5827 22.5256 26.114C21.7025 25.9246 20.7519 25.5046 20.3412 24.7752C20.1744 24.5015 20.5831 24.8146 20.1969 24.3665C19.7019 23.9258 19.4544 23.4252 19.1225 22.889C18.725 22.6771 18.6781 22.0527 18.6387 22.8683C18.6425 22.3546 18.1587 22.0077 18.0406 22.1521C18.0387 21.6571 18.5581 21.9046 18.1944 21.539C18.1156 21.0252 17.8587 20.4908 17.7819 19.9115C17.6619 19.6321 17.765 19.034 17.3712 19.6658C17.2287 20.3352 17.3244 18.8446 17.5475 19.3358C17.84 18.8352 17.4425 18.8933 17.4256 18.9627C17.6169 18.539 17.5456 17.939 17.375 18.1677C17.4762 17.7196 17.5362 16.5177 17.2231 16.7315C17.4125 16.2627 17.5831 14.5865 16.76 15.2258C16.4262 15.2315 15.8506 15.3458 15.5769 15.4827C16.4319 15.9533 15.4906 15.6533 15.1419 15.5783C15.0969 16.0152 14.7519 15.8258 14.3206 15.8296C15.0087 15.914 13.985 16.5327 13.5912 16.2927C13.0775 16.5383 14.0337 17.1496 13.6006 17.339C13.6531 17.624 12.815 17.2358 12.8806 17.894C12.3837 17.684 12.8131 18.674 13.0606 18.3402C13.9062 18.569 13.6569 19.0921 13.6775 19.5871C13.5387 19.8758 12.9969 18.9083 13.5575 18.9533C13.115 18.2352 13.0681 18.6946 12.7025 19.0265C12.6181 19.0508 13.6381 19.5008 12.9969 19.724C13.5612 19.8121 13.5781 20.3052 13.6925 20.6165C14.0319 20.969 13.9625 20.2265 14.3675 20.6502C14.1106 20.2715 13.0081 19.5852 13.895 19.8046C13.8894 19.424 13.7337 19.1165 14.0075 19.124C14.2775 18.6365 13.7244 20.3277 14.3319 19.7071C14.5006 19.634 14.5419 19.2196 14.8437 19.7465C15.2825 20.1777 15.0031 20.4908 14.3825 20.0952C14.4931 20.4721 15.2112 20.6052 15.0762 21.194C15.2187 21.7115 15.4194 21.5202 15.5937 21.4902C15.7306 21.9927 15.8075 21.6233 15.815 21.3833C16.4412 21.5183 16.295 21.8877 16.49 22.1465C16.9212 22.3415 15.8731 20.8265 16.6137 21.6908C17.3937 22.394 16.9062 22.6883 16.2069 22.5758C16.6494 22.5402 16.7919 23.174 17.345 23.1515C17.8494 23.3915 18.1925 24.314 17.3225 23.9296C17.0206 23.6577 15.9519 23.3221 16.8256 23.8396C17.6319 24.2127 18.2712 24.4358 19.0494 24.9046C19.6044 25.3021 19.8462 25.7558 20.0562 25.8458C19.5894 26.069 18.6481 25.6677 19.3475 25.544C18.9106 25.4652 18.4212 25.244 18.8394 25.7877C19.1937 26.084 20.0975 26.054 20.2606 26.0858C20.1237 26.3877 19.8875 26.4121 20.2662 26.4346C19.8444 26.6633 20.4012 26.699 20.4406 26.8283ZM19.5781 24.3908C19.3212 24.1227 19.2556 23.6202 19.5331 24.0571C19.6737 24.1133 19.9887 24.8783 19.5781 24.3908ZM22.3887 26.1758C22.5481 26.1646 22.3925 26.2977 22.3887 26.1758ZM19.1731 23.7327C19.265 24.0458 19.1619 23.3258 19.1731 23.7327ZM18.8937 23.3558C19.3006 23.534 18.5694 22.7333 18.8937 23.3558ZM15.5075 21.0196C15.6969 20.969 15.6012 21.344 15.5075 21.0196ZM18.2019 22.4802C18.3387 22.8477 18.3181 22.0433 18.2019 22.4802ZM16.2987 21.1565C16.58 21.3833 16.1656 20.9146 16.2987 21.1565ZM17.9319 21.6796C17.6262 20.9952 18.1494 21.3046 17.9994 21.7921L17.9319 21.6796ZM15.1156 19.8027C14.9787 19.5777 14.7537 18.9177 14.825 18.7171C14.8906 19.0452 15.5225 20.129 15.1344 19.1652C14.7069 18.359 15.6462 19.4277 15.7437 19.6283C15.7887 19.829 15.4794 19.574 15.6894 20.0427C15.3069 19.5083 15.4644 20.339 15.1156 19.8027ZM14.2456 19.2027C14.4444 19.5608 14.2812 18.6796 14.2456 19.2027ZM14.6356 19.3377C14.9525 19.8871 14.8231 18.9421 14.6356 19.3377ZM13.6944 18.6083C13.37 18.2858 13.1356 17.9896 13.7094 18.4077C13.9306 18.4171 13.2181 17.7327 13.7619 18.1902C14.3356 18.2952 14.045 19.1296 13.6944 18.6083ZM14.1894 18.5952C14.3769 18.4096 14.2887 18.779 14.1894 18.5952ZM14.4931 18.6927C14.84 18.9177 14.2081 18.1583 14.4931 18.6927ZM13.8894 18.1152C12.9481 17.2771 15.0725 18.554 14.0431 18.2708L13.8894 18.1152ZM16.5875 19.6827C16.1787 19.439 16.4787 17.9615 16.6175 18.9721C17.0131 18.8446 16.595 19.4933 16.8912 19.4877C16.8462 19.8965 16.7131 20.0446 16.5875 19.6827ZM17.5869 20.2733C17.6712 20.5771 17.6262 19.8271 17.5869 20.2733ZM17.4125 20.1008C17.4575 19.9115 17.4181 20.3258 17.4125 20.1008ZM14.0731 17.8396C13.4675 17.0052 15.8319 18.6852 14.4612 18.0515C14.3169 18.0121 14.1444 17.999 14.0731 17.8396ZM15.9969 18.8577C16.1244 18.974 15.9387 18.1546 15.9969 18.8577ZM17.4556 19.7952C17.5681 19.394 17.465 20.0596 17.4556 19.7952ZM14.1669 17.5208C14.5269 17.444 15.6575 18.1527 14.6187 17.7233C14.5025 17.594 14.2569 17.6521 14.1669 17.5208ZM17.255 19.0602C17.2925 18.3402 17.4706 18.6308 17.2569 19.1633L17.255 19.0602ZM14.4331 17.2696C14.5794 17.054 14.0431 16.2983 14.51 16.9977C14.7125 17.1571 15.0931 17.2658 14.7556 17.3333C15.2881 17.8021 14.6281 17.4608 14.4331 17.2696ZM17.1031 18.8352C17.2044 18.0158 17.1912 19.3152 17.1031 18.8352ZM14.1275 16.514C14.24 16.4652 14.1875 16.6621 14.1275 16.514ZM14.8231 16.9283C15.155 17.3465 15.0031 16.5515 14.8231 16.9283ZM16.7862 18.0196C16.8237 18.2296 16.7862 17.8752 16.7862 18.0196ZM16.6737 17.7683C16.9269 18.1246 16.4019 17.0952 16.6737 17.7683ZM16.5069 17.3277C16.6625 17.6765 16.46 17.0502 16.5069 17.3277ZM16.7787 16.8852C16.5912 16.5552 17.015 15.4321 17.0619 16.1296C16.865 16.6715 17.0056 16.9752 17.1425 16.2477C17.3975 15.674 17.0881 17.3765 16.7787 16.8852ZM17.0581 15.2146C17.1406 15.1152 17.0769 15.3365 17.0581 15.2146ZM16.5912 24.4246C16.6044 24.4865 16.4806 24.3271 16.5912 24.4246ZM17.5531 24.9121C18.0894 25.0508 18.0856 24.8296 17.6019 24.764C17.3412 24.5221 16.52 24.2652 17.255 24.734C17.3056 24.8558 17.4594 24.8521 17.5531 24.9121ZM15.6519 23.6483C15.9462 23.8696 16.7637 24.2708 16.0719 23.7327C16.3044 23.4627 15.6256 23.3183 15.8506 23.1365C15.2769 22.7858 15.3987 22.8177 15.8 22.829C15.1119 22.5215 15.8994 22.544 15.8619 22.3865C15.5956 22.334 14.5437 21.9177 15.1625 22.4202C14.5325 22.0996 15.0125 22.5402 14.8212 22.4933C14.1762 22.3171 15.395 22.9846 14.72 22.8177C15.0894 23.1102 15.7137 23.5677 14.8756 23.1271C14.7687 23.2865 15.4775 23.5283 15.6519 23.6483ZM16.6587 24.2277C17.8831 24.6215 16.0587 23.744 16.6587 24.2277ZM21.815 27.3496C21.83 27.1058 21.6462 27.5577 21.815 27.3496ZM22.3437 27.5727C22.6269 27.299 22.355 28.0096 22.8125 27.5052C22.8181 27.1452 22.7994 26.9315 22.2875 27.3702C22.1469 27.449 22.0831 27.7808 22.3437 27.5727ZM13.9344 22.2908C13.8462 21.9496 13.325 21.9515 13.9344 22.2908ZM14.4987 22.6621C14.2887 22.3133 13.7487 22.3471 14.4987 22.6621ZM17.7181 24.6027C18.0331 24.8821 19.1619 24.8071 18.0987 24.6365C17.9431 24.404 17.1012 24.4602 17.7181 24.6027ZM22.1431 27.3346C22.625 26.9296 21.6744 27.5165 22.1431 27.3346ZM23.1481 28.0265C23.1519 27.8971 22.94 28.0827 23.1481 28.0265ZM23.15 27.8446C23.6862 27.2765 22.6306 27.8783 23.15 27.8446ZM12.5412 21.1265C12.0856 20.4758 12.2581 20.1833 11.8175 19.6508C11.7331 19.244 11.0619 18.3215 11.4706 19.2983C11.8437 19.8702 11.9544 20.7552 12.5412 21.1265ZM22.9812 27.6646C23.9675 27.0271 22.5781 27.3871 22.9812 27.6646ZM23.7331 27.959C24.2281 27.5352 23.4219 27.8708 23.7331 27.959ZM13.7656 21.5708C13.9081 21.3608 13.4019 21.5446 13.7656 21.5708ZM23.5775 27.7565C24.0556 27.449 23.4669 27.4958 23.4912 27.7846L23.5775 27.7565ZM17.0937 23.6708C17.0769 23.4627 16.8406 23.6877 17.0937 23.6708ZM17.495 23.9015C17.3656 23.6427 17.2981 23.9408 17.495 23.9015ZM24.3444 27.9646C24.9575 27.5221 23.9731 27.8802 24.2169 28.049L24.3444 27.9646ZM24.1081 27.8521C24.6087 27.434 23.5831 28.0377 24.1081 27.8521ZM25.3062 28.649C25.6419 28.4258 24.8994 28.5777 25.3062 28.649ZM14.0731 21.419C14.5212 21.5202 15.8656 22.5233 15.0725 21.4883C14.6656 21.3683 14.9094 20.3746 14.495 20.5508C14.7725 21.0158 14.7237 21.2127 14.1387 20.9202C13.4056 20.5621 13.7262 21.0965 13.8706 21.2446C13.6756 21.2915 14.1312 21.4152 14.0731 21.419ZM12.0294 19.8046C12.11 19.4727 11.2887 17.9765 11.6412 19.0546C11.7687 19.2815 11.7556 19.709 12.0294 19.8046ZM15.7812 22.1183C15.77 22.0902 15.5506 21.9252 15.7812 22.1183ZM16.3494 22.2515C16.3494 21.899 15.7212 22.1071 16.3494 22.2515ZM21.2806 25.3583C21.1869 25.1183 20.9094 25.3546 21.2806 25.3583ZM21.5169 25.5327C21.4831 25.3977 21.3819 25.559 21.5169 25.5327ZM23.4725 26.7627C23.66 26.624 23.2381 26.7458 23.4725 26.7627ZM13.0494 20.0652C13.5875 19.8571 12.4737 19.9171 13.0494 20.0652ZM20.8475 24.9777C20.84 24.629 20.5044 25.064 20.8475 24.9777ZM12.8375 19.5702C13.1825 19.454 12.5169 19.4933 12.8375 19.5702ZM13.8387 20.0558C13.8331 19.9415 13.7337 20.099 13.8387 20.0558ZM26.0675 27.554C26.5119 27.464 27.5244 27.7808 27.6875 27.4358C27.1475 27.4227 25.8219 27.0552 25.76 27.5221L25.8781 27.5408L26.0675 27.554ZM14.1575 20.1365C14.1669 19.784 13.8837 20.1233 14.1575 20.1365ZM11.5231 18.3083C11.4031 17.6371 11.0675 18.2071 11.5231 18.3083ZM12.1512 18.4658C12.1587 18.2502 11.5756 18.2727 12.1512 18.4658ZM12.5094 18.6421C12.4287 18.749 12.4062 18.5596 12.5094 18.6421ZM14.7706 20.0915C14.8775 19.994 14.5175 20.0202 14.7706 20.0915ZM12.2712 18.2446C12.2094 17.7365 11.5437 18.1696 12.2712 18.2446ZM10.9831 17.4083C10.9644 17.174 10.8575 17.4965 10.9831 17.4083ZM11.1744 17.264C11.1425 16.9865 11.0094 17.2996 11.1744 17.264ZM12.2337 17.8958C12.6819 17.7196 11.4181 17.5321 12.1419 17.8621L12.2337 17.8958ZM26.4069 26.6502C26.6937 26.3877 26.0431 26.5696 26.4069 26.6502ZM28.1187 27.539C28.2331 27.1996 27.83 27.5821 28.1187 27.539ZM12.3406 17.3408C12.3894 17.0127 11.9862 17.4065 12.3406 17.3408ZM10.835 16.3321C10.7544 15.869 10.7656 15.0533 11.54 15.329C10.5069 15.5352 12.2562 16.6133 12.035 15.7621C12.47 15.7827 12.8844 15.5052 12.6575 15.9271C13.5144 15.8333 14.1069 15.0908 14.9337 15.194C15.5787 15.1077 16.2819 15.044 16.9756 14.7852C17.5456 14.744 18.095 14.129 17.7837 13.7652C17.0056 13.6996 16.19 13.7971 15.3312 13.9677C14.3787 14.1665 13.5125 14.5415 12.5506 14.7046C11.6131 14.8302 12.7381 15.0515 12.47 15.1002C11.9806 15.269 13.0531 15.3852 12.4062 15.5633C12.0069 15.4865 11.5906 15.3496 11.7612 14.9296C10.8631 15.0458 10.0737 15.419 10.7844 16.3321H10.835ZM12.9987 15.2296C13.2087 14.4533 14.1256 15.8671 13.3437 15.3327C13.25 15.2615 13.0962 15.2052 12.9987 15.2296ZM13.04 14.8527C13.3437 14.6277 13.2012 14.9802 13.04 14.8527ZM13.4262 14.8602C13.4544 14.504 14.3094 15.0496 13.5669 14.9877L13.4262 14.8602ZM13.9531 14.6465C14.1462 14.4215 14.0094 14.8471 13.9531 14.6465ZM14.0881 14.5565C14.4087 14.1702 15.905 14.3108 14.81 14.519C14.5175 14.2977 14.2925 14.6502 14.0881 14.5565ZM16.0419 14.2565C17.0131 14.6296 15.9931 13.2027 16.0419 14.2565ZM16.5969 14.2527C16.7994 13.7221 17.3844 14.039 16.6906 14.1458C16.7056 14.2021 16.67 14.4196 16.5969 14.2527ZM12.1231 17.069C12.7287 16.6977 11.48 16.7465 12.1231 17.069ZM12.5712 17.1927C12.7831 16.9677 12.11 17.1008 12.5712 17.1927ZM11.2512 16.2571C11.5981 15.9908 10.8425 16.1558 11.2512 16.2571ZM29.1294 27.4415C29.1387 27.1321 28.865 27.5802 29.1294 27.4415ZM27.3125 26.2021C27.365 25.8458 27.08 26.2321 27.3125 26.2021ZM29.63 27.5615C30.1137 27.5633 31.0962 27.4115 30.0425 27.4115C29.8775 27.4358 29.0806 27.4321 29.63 27.5615ZM12.965 16.9752C13.3569 16.949 13.5781 16.544 12.8881 16.5665C11.8212 16.4558 13.8294 16.9321 12.7512 16.7952C12.6069 16.8908 12.9556 17.0015 12.965 16.9752ZM13.31 17.1496C13.2687 16.8983 13.1881 17.2827 13.31 17.1496ZM13.7187 16.0583C13.8875 15.8483 13.4825 16.0021 13.7187 16.0583ZM12.4156 13.8833C13.115 13.6452 14.0694 13.379 14.3994 13.9996C14.0637 13.5965 14.2644 13.1971 14.5812 13.7896C15.0294 14.3877 15.2544 13.5177 14.9619 13.3171C15.2937 13.7296 15.6725 13.9246 15.185 13.3433C15.7156 12.7058 14.1237 13.4277 13.7619 13.4202C13.5894 13.4971 11.9656 13.8327 12.4156 13.8833ZM12.8262 13.0996C13.2256 12.7996 14.2044 13.2796 13.5762 12.8015C13.5144 12.7452 12.1981 13.1633 12.8262 13.0996ZM14.2794 13.1596C14.7462 13.1708 14.0787 12.5333 14.6337 12.8221C14.5419 12.524 13.9869 12.4677 13.715 12.3496C13.5612 12.6215 14.0262 13.1633 14.2794 13.1596ZM13.0812 11.8396C13.2425 11.6221 12.7981 11.9521 13.0812 11.8396ZM13.6737 11.9821C14.4256 11.8827 13.4825 11.6596 13.5219 11.9746L13.6737 11.9821ZM12.5656 11.1158C12.0369 10.424 13.5612 11.2321 13.0231 10.5083C12.5712 10.1483 12.1362 10.9133 12.5656 11.1158ZM19.355 14.7721C19.5969 14.3427 18.3537 14.1927 19.1919 14.6202C19.2706 14.6465 19.2519 14.8021 19.355 14.7721Z" fill="white"/>
</svg>
