<svg width="40" height="40" viewBox="0 0 40 40" fill="none" xmlns="http://www.w3.org/2000/svg">
<rect width="40" height="40" rx="20" fill="#262626"/>
<path d="M29.1446 13.6877L20.8764 8.88681C20.3549 8.58981 19.676 8.58981 19.1504 8.88681L10.7939 13.6877C10.2558 13.9973 9.875 14.5791 9.875 15.2014V24.7906C9.875 25.4129 10.2658 25.9949 10.8039 26.3061L13.0117 27.5601C14.0669 28.0799 14.4399 28.0799 14.9201 28.0799C16.4825 28.0799 17.375 27.1351 17.375 25.4871V16.0202C17.375 15.8866 17.3054 15.6876 17.1742 15.6876H16.1199C15.9864 15.6876 15.6875 15.8866 15.6875 16.0201V25.4869C15.6875 26.2174 15.0267 26.9444 13.7919 26.3269L11.5106 25.012C11.4311 24.9689 11.375 24.8821 11.375 24.7906V15.2014C11.375 15.1111 11.4791 15.0203 11.5591 14.974L19.8886 10.1813C19.9664 10.1373 20.0808 10.1373 20.1584 10.1813L28.3863 14.9729C28.4651 15.0203 28.4373 15.1083 28.4373 15.2014V24.7906C28.4373 24.8821 28.4716 24.9711 28.3938 25.0152L20.1277 29.8107C20.0568 29.8532 19.9689 29.8532 19.8912 29.8107L17.7712 28.5452C17.7072 28.5081 17.6313 28.4948 17.57 28.5291C16.9801 28.8634 16.8714 28.9079 16.3181 29.0997C16.1819 29.1471 15.9811 29.2294 16.3949 29.4614L19.1696 31.1027C19.4345 31.2558 19.735 31.3363 20.0409 31.3364C20.3488 31.3364 20.6503 31.2565 20.9159 31.1027L29.1444 26.3061C29.6825 25.9926 29.9375 25.4129 29.9375 24.7906V15.2014C29.9375 14.5791 29.6825 13.9988 29.1446 13.6877ZM22.6081 23.2711C20.4095 23.2711 19.9252 22.6645 19.7638 21.5712C19.745 21.4534 19.6451 21.3126 19.5252 21.3126H18.4507C18.3177 21.3126 18.2109 21.4739 18.2109 21.6063C18.2109 23.0061 18.9719 24.7023 22.6083 24.7023C25.2406 24.7023 26.7498 23.6794 26.7498 21.8693C26.7498 20.0746 25.5372 19.6036 22.9844 19.2657C20.4041 18.9246 20.1419 18.7523 20.1419 18.1478C20.1419 17.6494 20.3639 16.9847 22.2746 16.9847C23.9817 16.9847 24.611 17.3511 24.8699 18.5018C24.8921 18.61 24.9909 18.6876 25.1024 18.6876H26.1813C26.2477 18.6876 26.3111 18.6608 26.3576 18.6134C26.4026 18.5624 26.4264 18.4984 26.4204 18.4298C26.2533 16.4483 24.9369 15.5249 22.2744 15.5249C19.9061 15.5249 18.4933 16.525 18.4933 18.2014C18.4933 20.0198 19.8989 20.5223 22.1724 20.7471C24.8921 21.0138 25.1036 21.4112 25.1036 21.9462C25.1036 22.8752 24.3577 23.2711 22.6081 23.2711Z" fill="#83CD29"/>
</svg>
