<svg width="40" height="40" viewBox="0 0 40 40" fill="none" xmlns="http://www.w3.org/2000/svg">
<rect width="40" height="40" rx="20" fill="#262626"/>
<path d="M20 22.1373C21.1805 22.1373 22.1375 21.1803 22.1375 19.9998C22.1375 18.8193 21.1805 17.8623 20 17.8623C18.8195 17.8623 17.8625 18.8193 17.8625 19.9998C17.8625 21.1803 18.8195 22.1373 20 22.1373Z" fill="#61DAFB"/>
<path d="M28.1188 16.4748C27.7063 16.3248 27.275 16.1748 26.825 16.0436C26.9375 15.5936 27.0313 15.1436 27.1063 14.7123C27.5 12.2373 27.0688 10.4936 25.8688 9.81855C25.5125 9.6123 25.1188 9.51855 24.6688 9.51855C23.3563 9.51855 21.6875 10.4936 20 12.1248C18.3125 10.4936 16.6438 9.51855 15.3313 9.51855C14.8813 9.51855 14.4875 9.6123 14.1313 9.81855C12.9313 10.5123 12.5 12.2561 12.8938 14.7123C12.9688 15.1436 13.0625 15.5936 13.175 16.0436C12.725 16.1748 12.2938 16.3061 11.8813 16.4748C9.53751 17.3748 8.26251 18.6123 8.26251 19.9998C8.26251 21.3873 9.55626 22.6248 11.8813 23.5248C12.2938 23.6748 12.725 23.8248 13.175 23.9561C13.0625 24.4061 12.9688 24.8561 12.8938 25.2873C12.5 27.7623 12.9313 29.5061 14.1313 30.1811C14.4875 30.3873 14.8813 30.4811 15.3313 30.4811C16.6625 30.4811 18.3313 29.5061 20 27.8748C21.6875 29.5061 23.3563 30.4811 24.6688 30.4811C25.1188 30.4811 25.5125 30.3873 25.8688 30.1811C27.0688 29.4873 27.5 27.7436 27.1063 25.2873C27.0313 24.8561 26.9375 24.4061 26.825 23.9561C27.275 23.8248 27.7063 23.6936 28.1188 23.5248C30.4625 22.6248 31.7375 21.3873 31.7375 19.9998C31.7375 18.6123 30.4625 17.3748 28.1188 16.4748ZM25.3438 10.7561C26.1125 11.2061 26.375 12.5936 26.0563 14.5623C26 14.9561 25.9063 15.3686 25.7938 15.7998C24.8188 15.5748 23.7875 15.4248 22.7 15.3311C22.0625 14.4311 21.4063 13.6248 20.75 12.8936C22.1375 11.5248 23.5438 10.5873 24.6875 10.5873C24.9313 10.5873 25.1563 10.6436 25.3438 10.7561ZM23.2438 21.8748C22.9063 22.4748 22.5125 23.0748 22.1 23.6748C21.4063 23.7311 20.7125 23.7498 20 23.7498C19.2688 23.7498 18.575 23.7311 17.9 23.6748C17.4875 23.0748 17.1125 22.4748 16.775 21.8748C16.4188 21.2561 16.0813 20.6186 15.7813 19.9998C16.0813 19.3811 16.4188 18.7436 16.775 18.1248C17.1125 17.5248 17.5063 16.9248 17.9188 16.3248C18.6125 16.2686 19.3063 16.2498 20.0188 16.2498C20.75 16.2498 21.4438 16.2686 22.1188 16.3248C22.5313 16.9248 22.9063 17.5248 23.2438 18.1248C23.6 18.7436 23.9375 19.3811 24.2375 19.9998C23.9188 20.6186 23.6 21.2373 23.2438 21.8748ZM24.8 21.2561C25.0813 21.9123 25.3063 22.5498 25.5125 23.1873C24.875 23.3373 24.2 23.4498 23.4875 23.5436C23.7125 23.1873 23.9563 22.8123 24.1625 22.4186C24.3875 22.0248 24.5938 21.6311 24.8 21.2561ZM20 26.3373C19.55 25.8498 19.1188 25.3248 18.7063 24.7811C19.1375 24.7998 19.5688 24.8186 20 24.8186C20.4313 24.8186 20.8625 24.7998 21.2938 24.7811C20.8813 25.3248 20.45 25.8498 20 26.3373ZM16.5125 23.5248C15.8 23.4311 15.125 23.3186 14.4875 23.1686C14.6938 22.5498 14.9188 21.8936 15.2 21.2373C15.4063 21.6123 15.6125 22.0061 15.8375 22.3811C16.0625 22.7936 16.2875 23.1498 16.5125 23.5248ZM15.2 18.7436C14.9188 18.0873 14.6938 17.4498 14.4875 16.8123C15.125 16.6623 15.8 16.5498 16.5125 16.4561C16.2875 16.8123 16.0438 17.1873 15.8375 17.5811C15.6125 17.9748 15.4063 18.3686 15.2 18.7436ZM20 13.6623C20.45 14.1498 20.8813 14.6748 21.2938 15.2186C20.8625 15.1998 20.4313 15.1811 20 15.1811C19.5688 15.1811 19.1375 15.1998 18.7063 15.2186C19.1188 14.6748 19.55 14.1498 20 13.6623ZM24.1625 17.5998L23.4875 16.4748C24.2 16.5686 24.875 16.6811 25.5125 16.8311C25.3063 17.4498 25.0813 18.1061 24.8 18.7623C24.5938 18.3686 24.3875 17.9748 24.1625 17.5998ZM13.9438 14.5623C13.625 12.5936 13.8875 11.2061 14.6563 10.7561C14.8438 10.6436 15.0688 10.5873 15.3125 10.5873C16.4375 10.5873 17.8438 11.5061 19.25 12.8936C18.5938 13.6061 17.9375 14.4311 17.3 15.3311C16.2125 15.4248 15.1813 15.5936 14.2063 15.7998C14.0938 15.3686 14.0188 14.9561 13.9438 14.5623ZM9.31251 19.9998C9.31251 19.1186 10.3813 18.1811 12.2563 17.4873C12.6313 17.3373 13.0438 17.2061 13.4563 17.0936C13.7563 18.0311 14.1313 19.0248 14.5813 20.0186C14.1313 21.0123 13.7375 21.9873 13.4563 22.9248C10.8688 22.1748 9.31251 21.0498 9.31251 19.9998ZM14.6563 29.2436C13.8875 28.7936 13.625 27.4061 13.9438 25.4373C14 25.0436 14.0938 24.6311 14.2063 24.1998C15.1813 24.4248 16.2125 24.5748 17.3 24.6686C17.9375 25.5686 18.5938 26.3748 19.25 27.1061C17.8625 28.4748 16.4563 29.4123 15.3125 29.4123C15.0688 29.4123 14.8438 29.3561 14.6563 29.2436ZM26.0563 25.4373C26.375 27.4061 26.1125 28.7936 25.3438 29.2436C25.1563 29.3561 24.9313 29.4123 24.6875 29.4123C23.5625 29.4123 22.1563 28.4936 20.75 27.1061C21.4063 26.3936 22.0625 25.5686 22.7 24.6686C23.7875 24.5748 24.8188 24.4061 25.7938 24.1998C25.9063 24.6311 25.9813 25.0436 26.0563 25.4373ZM27.7438 22.5123C27.3688 22.6623 26.9563 22.7936 26.5438 22.9061C26.2438 21.9686 25.8688 20.9748 25.4188 19.9811C25.8688 18.9873 26.2625 18.0123 26.5438 17.0748C29.1313 17.8248 30.6875 18.9498 30.6875 19.9998C30.6875 20.8811 29.6 21.8186 27.7438 22.5123Z" fill="#61DAFB"/>
</svg>
