<svg width="70" height="70" viewBox="0 0 70 70" fill="none" xmlns="http://www.w3.org/2000/svg">
<circle cx="35" cy="35" r="33.6875" fill="#6C4916" stroke="#6C4916" stroke-width="2.625"/>
<circle cx="35" cy="34.9995" r="30.625" fill="white"/>
<path d="M48.1667 27.4843C48.0549 27.2145 47.891 26.9695 47.6844 26.7631C47.478 26.5565 47.2329 26.3926 46.9631 26.2807C46.6933 26.1689 46.4042 26.1113 46.1121 26.1113C45.8201 26.1113 45.5309 26.1689 45.2612 26.2807C44.9914 26.3926 44.7463 26.5565 44.5399 26.7631L32.7788 38.527L27.6844 33.4297C27.2674 33.0128 26.7018 32.7785 26.1121 32.7785C25.5224 32.7785 24.9569 33.0128 24.5399 33.4297C24.1229 33.8467 23.8887 34.4123 23.8887 35.002C23.8887 35.5917 24.1229 36.1572 24.5399 36.5742L31.2066 43.2409C31.413 43.4475 31.658 43.6114 31.9278 43.7232C32.1976 43.835 32.4868 43.8926 32.7788 43.8926C33.0708 43.8926 33.36 43.835 33.6298 43.7232C33.8995 43.6114 34.1446 43.4475 34.351 43.2409L47.6844 29.9075C47.891 29.7011 48.0549 29.4561 48.1667 29.1863C48.2785 28.9165 48.3361 28.6273 48.3361 28.3353C48.3361 28.0433 48.2785 27.7541 48.1667 27.4843Z" fill="#0BBBC5"/>
</svg>
