<svg width="70" height="70" viewBox="0 0 70 70" fill="none" xmlns="http://www.w3.org/2000/svg">
<circle cx="35" cy="35" r="35" fill="white"/>
<g clip-path="url(#clip0_884_3583)">
<circle cx="35" cy="34.9995" r="30.625" fill="#83E0FF"/>
<path d="M18 22.9995C19.8061 22.9995 21.3878 23.9579 22.2666 25.3931C22.7909 25.1406 23.3791 25.0005 24 25.0005C26.2091 25.0005 28 26.7913 28 29.0005C27.9997 31.2094 26.209 33.0005 24 33.0005C22.9052 33.0005 21.9137 32.5597 21.1914 31.8472C20.3254 32.5664 19.2137 33.0005 18 33.0005C16.786 33.0005 15.6737 32.5667 14.8076 31.8472C14.0854 32.5594 13.0945 33.0005 12 33.0005C9.79102 33.0005 8.00026 31.2094 8 29.0005C8 26.7913 9.79086 25.0005 12 25.0005C12.6205 25.0005 13.2083 25.1409 13.7324 25.3931C14.6111 23.9577 16.1938 22.9995 18 22.9995Z" fill="white" fill-opacity="0.7"/>
<path d="M55 49C56.8061 49 58.3878 49.9584 59.2666 51.3936C59.7909 51.1411 60.3791 51.001 61 51.001C63.2091 51.001 65 52.7918 65 55.001C64.9997 57.2099 63.209 59.001 61 59.001C59.9052 59.001 58.9137 58.5602 58.1914 57.8477C57.3254 58.5669 56.2137 59.001 55 59.001C53.786 59.001 52.6737 58.5671 51.8076 57.8477C51.0854 58.5599 50.0945 59.001 49 59.001C46.791 59.001 45.0003 57.2099 45 55.001C45 52.7918 46.7909 51.001 49 51.001C49.6205 51.001 50.2083 51.1414 50.7324 51.3936C51.6111 49.9582 53.1938 49 55 49Z" fill="white" fill-opacity="0.7"/>
<path d="M59 6C60.8061 6 62.3878 6.95745 63.2666 8.39258C63.7909 8.14014 64.3791 8 65 8C67.2091 8 69 9.79086 69 12C68.9997 14.2089 67.209 16 65 16C63.9052 16 62.9137 15.5592 62.1914 14.8467C61.3254 15.5659 60.2137 16 59 16C57.786 16 56.6737 15.5662 55.8076 14.8467C55.0854 15.5589 54.0945 16 53 16C50.791 16 49.0003 14.2089 49 12C49 9.79086 50.7909 8 53 8C53.6205 8 54.2083 8.14038 54.7324 8.39258C55.6111 6.95721 57.1938 6 59 6Z" fill="white" fill-opacity="0.7"/>
<rect x="21" y="19" width="3" height="47" rx="1.5" fill="#3E2807"/>
<path d="M24 20C24 20 33.4469 23.0566 39.5 23.0566C43.0625 23.0566 47.8005 21.9979 51.0964 21.1266C52.7012 20.7024 54.1704 22.2554 53.5624 23.7999C51.9566 27.8797 49.3624 33.9564 47.6806 35.283C46.9547 35.8556 50.1639 39.2498 52.5635 41.6148C53.6453 42.681 53.2435 44.522 51.7895 44.9616C47.8148 46.1632 41.0731 48 37 48C30.9469 48 24 43.9434 24 43.9434V20Z" fill="#FF5451"/>
</g>
<defs>
<clipPath id="clip0_884_3583">
<rect x="4.375" y="4.37451" width="61.25" height="61.25" rx="30.625" fill="white"/>
</clipPath>
</defs>
</svg>
