<svg width="70" height="70" viewBox="0 0 70 70" fill="none" xmlns="http://www.w3.org/2000/svg">
<circle cx="35" cy="35" r="35" fill="#6C4916"/>
<circle cx="35" cy="34.9995" r="30.625" fill="#895E1F"/>
<path d="M16.3868 42.25V27.4023H19.0528V39.9941H25.6153V42.25H16.3868ZM35.9668 31.1143L31.9883 42.25H29.1172L25.1387 31.1143H27.9278L30.4912 39.3994H30.6143L33.1983 31.1143H35.9668ZM38.3203 42.4141C37.4385 42.4141 36.7207 41.6963 36.7207 40.8145C36.7207 39.9531 37.4385 39.2354 38.3203 39.2354C39.1611 39.2354 39.8994 39.9531 39.8994 40.8145C39.8994 41.6963 39.1611 42.4141 38.3203 42.4141ZM47.0927 42.4551C43.914 42.4551 41.6581 40.7324 41.5966 38.2305H44.2831C44.3652 39.4199 45.5546 40.1992 47.0927 40.1992C48.7333 40.1992 49.9023 39.2969 49.9023 37.9844C49.9023 36.6514 48.7538 35.6875 46.8261 35.6875H45.4931V33.6367H46.8261C48.4052 33.6367 49.5126 32.7549 49.4921 31.4629C49.5126 30.2119 48.5693 29.3711 47.1132 29.3711C45.7187 29.3711 44.5087 30.1504 44.4677 31.4014H41.9042C41.9658 28.8994 44.2216 27.1973 47.1337 27.1973C50.1484 27.1973 52.0966 29.043 52.0761 31.3193C52.0966 32.9805 50.9892 34.1904 49.3691 34.5186V34.6416C51.4609 34.9287 52.6503 36.2617 52.6298 38.1279C52.6503 40.6299 50.3124 42.4551 47.0927 42.4551Z" fill="white"/>
</svg>
