<svg width="70" height="70" viewBox="0 0 70 70" fill="none" xmlns="http://www.w3.org/2000/svg">
<circle cx="35" cy="35" r="35" fill="#6C4916"/>
<circle cx="35" cy="34.9995" r="30.625" fill="#895E1F"/>
<path d="M15.6221 42.25V27.4023H18.2881V39.9941H24.8506V42.25H15.6221ZM35.2022 31.1143L31.2237 42.25H28.3526L24.374 31.1143H27.1631L29.7266 39.3994H29.8496L32.4336 31.1143H35.2022ZM37.5556 42.4141C36.6738 42.4141 35.956 41.6963 35.956 40.8145C35.956 39.9531 36.6738 39.2354 37.5556 39.2354C38.3965 39.2354 39.1347 39.9531 39.1347 40.8145C39.1347 41.6963 38.3965 42.4141 37.5556 42.4141ZM41.1601 39.4814V37.3486L47.579 27.4023H50.9013V37.2871H52.8496V39.4814H50.9013V42.25H48.3583V39.4814H41.1601ZM43.8876 37.2871H48.3994V30.4375H48.2353L43.8876 37.1846V37.2871Z" fill="white"/>
</svg>
