<svg width="70" height="70" viewBox="0 0 70 70" fill="none" xmlns="http://www.w3.org/2000/svg">
<circle cx="35" cy="35" r="33.6875" fill="#6C4916" stroke="#6C4916" stroke-width="2.625"/>
<circle cx="35" cy="34.9995" r="30.625" fill="#895E1F"/>
<path d="M16.4483 42.25V27.4023H19.1143V39.9941H25.6768V42.25H16.4483ZM36.0283 31.1143L32.0498 42.25H29.1787L25.2002 31.1143H27.9893L30.5528 39.3994H30.6758L33.2598 31.1143H36.0283ZM38.3818 42.4141C37.5 42.4141 36.7822 41.6963 36.7822 40.8145C36.7822 39.9531 37.5 39.2354 38.3818 39.2354C39.2226 39.2354 39.9609 39.9531 39.9609 40.8145C39.9609 41.6963 39.2226 42.4141 38.3818 42.4141ZM42.2529 42.25V40.3223L47.5029 35.2568C48.9999 33.7598 49.7792 32.8779 49.7792 31.627C49.7792 30.2529 48.6923 29.3711 47.2363 29.3711C45.6982 29.3711 44.7138 30.335 44.7343 31.832H42.1913C42.1708 29.0225 44.2831 27.1973 47.2568 27.1973C50.2919 27.1973 52.3427 29.002 52.3427 31.5039C52.3427 33.1855 51.5224 34.5391 48.6103 37.2871L45.9648 39.9121V40.0146H52.5683V42.25H42.2529Z" fill="white"/>
</svg>
