<svg width="70" height="70" viewBox="0 0 70 70" fill="none" xmlns="http://www.w3.org/2000/svg">
<circle cx="35" cy="35" r="35" fill="#6C4916"/>
<circle cx="35" cy="34.9995" r="30.625" fill="#895E1F"/>
<path d="M16.3868 42.25V27.4023H19.0528V39.9941H25.6153V42.25H16.3868ZM35.9668 31.1143L31.9883 42.25H29.1172L25.1387 31.1143H27.9278L30.4912 39.3994H30.6143L33.1983 31.1143H35.9668ZM38.3203 42.4141C37.4385 42.4141 36.7207 41.6963 36.7207 40.8145C36.7207 39.9531 37.4385 39.2354 38.3203 39.2354C39.1611 39.2354 39.8994 39.9531 39.8994 40.8145C39.8994 41.6963 39.1611 42.4141 38.3203 42.4141ZM47.2773 42.4551C44.3037 42.4551 42.1298 40.6914 42.0478 38.2305H44.6523C44.7343 39.4404 45.8622 40.3018 47.2773 40.3018C48.9384 40.3018 50.1279 39.0918 50.1279 37.4512C50.1279 35.749 48.8974 34.5391 47.1953 34.5391C46.0468 34.5186 45.206 34.9287 44.7343 35.8105H42.2529L43.1552 27.4023H51.9326V29.6377H45.3496L44.8984 33.5752H45.0419C45.6162 32.9189 46.7031 32.4473 47.913 32.4473C50.6816 32.4473 52.7119 34.5186 52.7119 37.3691C52.7119 40.3428 50.4765 42.4551 47.2773 42.4551Z" fill="white"/>
</svg>
