<svg width="70" height="70" viewBox="0 0 70 70" fill="none" xmlns="http://www.w3.org/2000/svg">
<circle cx="35" cy="35" r="35" fill="#6C4916"/>
<circle cx="35" cy="34.9995" r="30.625" fill="#895E1F"/>
<path d="M18.9932 42.25V27.4023H21.6592V39.9941H28.2217V42.25H18.9932ZM38.5733 31.1143L34.5947 42.25H31.7237L27.7451 31.1143H30.5342L33.0977 39.3994H33.2207L35.8047 31.1143H38.5733ZM40.9267 42.4141C40.0449 42.4141 39.3271 41.6963 39.3271 40.8145C39.3271 39.9531 40.0449 39.2354 40.9267 39.2354C41.7676 39.2354 42.5058 39.9531 42.5058 40.8145C42.5058 41.6963 41.7676 42.4141 40.9267 42.4141ZM49.0019 27.4023V42.25H46.3154V30.0068H46.2333L42.7675 32.2217V29.7812L46.4384 27.4023H49.0019Z" fill="white"/>
</svg>
