<svg width="200" height="201" viewBox="0 0 200 201" fill="none" xmlns="http://www.w3.org/2000/svg">
<path d="M101.751 51.3304C48.6717 52.7321 41.9432 123.637 41.9434 157.278H160.39C168.1 64.1797 131.071 50.5561 101.751 51.3304Z" fill="#B56830"/>
<ellipse cx="99.9" cy="102.4" rx="11.9" ry="8.7" fill="#391F0C"/>
<path d="M144.699 183.093C140.523 180.547 139.903 172.272 139.352 168.453L176.527 166.034C175.975 169.853 175.992 180.547 171.816 183.093C167.64 185.64 165.238 175.327 164.559 169.853C163.88 175.327 161.478 185.64 157.302 183.093C153.127 180.547 152.507 173.672 151.955 169.853C151.276 175.327 148.874 185.64 144.699 183.093Z" fill="#FFF7F1"/>
<path d="M139.352 168.453C139.903 172.272 140.523 180.547 144.699 183.093C148.874 185.64 151.276 175.327 151.955 169.853C152.507 173.672 153.127 180.547 157.302 183.093C161.478 185.64 163.88 175.327 164.559 169.853C165.238 175.327 167.64 185.64 171.816 183.093C175.992 180.547 175.975 169.853 176.527 166.034" stroke="#6C4916" stroke-width="2.54623" stroke-linecap="round"/>
<path d="M135.277 160.432C135.277 147.917 145.423 137.771 157.939 137.771C170.454 137.771 180.6 147.917 180.6 160.432V161.304C180.6 167.08 175.918 171.763 170.141 171.763H145.736C139.96 171.763 135.277 167.08 135.277 161.304V160.432Z" fill="#C77336"/>
<path d="M28.8217 183.093C24.6459 180.547 24.0263 172.272 23.4746 168.453L60.6496 166.034C60.0979 169.853 60.1149 180.547 55.939 183.093C51.7632 185.64 49.3613 175.327 48.6823 169.853C48.0033 175.327 45.6014 185.64 41.4255 183.093C37.2497 180.547 36.6301 173.672 36.0785 169.853C35.3995 175.327 32.9975 185.64 28.8217 183.093Z" fill="#FFF7F1"/>
<path d="M23.4746 168.453C24.0263 172.272 24.6459 180.547 28.8217 183.093C32.9975 185.64 35.3995 175.327 36.0785 169.853C36.6301 173.672 37.2497 180.547 41.4255 183.093C45.6014 185.64 48.0033 175.327 48.6823 169.853C49.3613 175.327 51.7632 185.64 55.939 183.093C60.1149 180.547 60.0979 169.853 60.6496 166.034" stroke="#6C4916" stroke-width="2.54623" stroke-linecap="round"/>
<path d="M19.4004 160.432C19.4004 147.917 29.5463 137.771 42.0618 137.771C54.5774 137.771 64.7233 147.917 64.7233 160.432V161.304C64.7233 167.08 60.0406 171.763 54.2642 171.763H29.8595C24.0831 171.763 19.4004 167.08 19.4004 161.304V160.432Z" fill="#C77336"/>
<path d="M89.1041 88.511C89.1041 90.4274 88.438 92.2653 87.2523 93.6204C86.0666 94.9755 84.4584 95.7368 82.7816 95.7368C81.1047 95.7368 79.4965 94.9755 78.3108 93.6204C77.1251 92.2653 76.459 90.4274 76.459 88.511" stroke="black" stroke-width="5.41936" stroke-linecap="round"/>
<path d="M127.04 88.511C127.04 90.4274 126.374 92.2653 125.188 93.6204C124.002 94.9755 122.394 95.7368 120.717 95.7368C119.04 95.7368 117.432 94.9755 116.246 93.6204C115.061 92.2653 114.395 90.4274 114.395 88.511" stroke="black" stroke-width="5.41936" stroke-linecap="round"/>
<path d="M74.3344 78.1484C76.9169 80.3415 84.3926 82.184 88.2936 74.408" stroke="#A75D05" stroke-width="5.41936" stroke-linecap="round"/>
<path d="M128.779 77.6406C126.196 79.8337 118.721 81.6761 114.82 73.9002" stroke="#A75D05" stroke-width="5.41936" stroke-linecap="round"/>
<path d="M62.8965 129.268L76.1371 100.779C77.018 98.8836 79.0877 97.8442 81.1338 98.2696C83.5474 98.7714 85.1081 101.122 84.634 103.541L78.5922 134.37C77.3781 140.565 69.9737 143.199 65.1198 139.163C62.2194 136.751 61.3066 132.688 62.8965 129.268Z" fill="white"/>
<path d="M140.6 129.268L127.359 100.779C126.478 98.8836 124.408 97.8442 122.362 98.2696C119.949 98.7714 118.388 101.122 118.862 103.541L124.904 134.37C126.118 140.565 133.522 143.199 138.376 139.163C141.277 136.751 142.19 132.688 140.6 129.268Z" fill="white"/>
<ellipse cx="108.825" cy="125.132" rx="7.22581" ry="9.03226" fill="#FF8854"/>
<path d="M80.4958 46.6792C83.0179 30.9688 97.7984 20.2775 113.509 22.7996L122.043 24.1696C137.753 26.6917 148.444 41.4721 145.922 57.1826L144.781 64.2942L79.3542 53.7908L80.4958 46.6792Z" fill="#FEEB02"/>
<rect x="81.0723" y="43.7959" width="66.0084" height="5.97061" rx="0.960351" transform="rotate(9.12026 81.0723 43.7959)" fill="#2F383E"/>
<path d="M117.016 28.2256L114.123 46.2416" stroke="#FFD900" stroke-width="2.88105" stroke-linecap="round"/>
<path d="M132.678 33.6577L130.699 45.9845" stroke="#FFD900" stroke-width="2.88105" stroke-linecap="round"/>
<path d="M100.439 28.4824L98.4606 40.8092" stroke="#FFD900" stroke-width="2.88105" stroke-linecap="round"/>
<rect x="76.9492" y="47.5684" width="72.9867" height="11.044" rx="2.40088" transform="rotate(9.12026 76.9492 47.5684)" fill="#FFE120"/>
<circle cx="113.437" cy="50.5084" r="7.20264" transform="rotate(9.12026 113.437 50.5084)" fill="white" stroke="#2F383E" stroke-width="2.88105"/>
</svg>
