<svg width="200" height="201" viewBox="0 0 200 201" fill="none" xmlns="http://www.w3.org/2000/svg">
<path d="M101.751 51.3304C48.6717 52.7321 41.9432 123.637 41.9434 157.278H160.39C168.1 64.1797 131.071 50.5561 101.751 51.3304Z" fill="#B56830"/>
<ellipse cx="99.9" cy="102.4" rx="11.9" ry="8.7" fill="#391F0C"/>
<path d="M144.699 183.093C140.523 180.547 139.903 172.272 139.352 168.453L176.527 166.034C175.975 169.853 175.992 180.547 171.816 183.093C167.64 185.64 165.238 175.327 164.559 169.853C163.88 175.327 161.478 185.64 157.302 183.093C153.127 180.547 152.507 173.672 151.955 169.853C151.276 175.327 148.874 185.64 144.699 183.093Z" fill="#FFF7F1"/>
<path d="M139.352 168.453C139.903 172.272 140.523 180.547 144.699 183.093C148.874 185.64 151.276 175.327 151.955 169.853C152.507 173.672 153.127 180.547 157.302 183.093C161.478 185.64 163.88 175.327 164.559 169.853C165.238 175.327 167.64 185.64 171.816 183.093C175.992 180.547 175.975 169.853 176.527 166.034" stroke="#6C4916" stroke-width="2.54623" stroke-linecap="round"/>
<path d="M135.277 160.432C135.277 147.917 145.423 137.771 157.939 137.771C170.454 137.771 180.6 147.917 180.6 160.432V161.304C180.6 167.08 175.918 171.763 170.141 171.763H145.736C139.96 171.763 135.277 167.08 135.277 161.304V160.432Z" fill="#C77336"/>
<path d="M28.8217 183.093C24.6459 180.547 24.0263 172.272 23.4746 168.453L60.6496 166.034C60.0979 169.853 60.1149 180.547 55.939 183.093C51.7632 185.64 49.3613 175.327 48.6823 169.853C48.0033 175.327 45.6014 185.64 41.4255 183.093C37.2497 180.547 36.6301 173.672 36.0785 169.853C35.3995 175.327 32.9975 185.64 28.8217 183.093Z" fill="#FFF7F1"/>
<path d="M23.4746 168.453C24.0263 172.272 24.6459 180.547 28.8217 183.093C32.9975 185.64 35.3995 175.327 36.0785 169.853C36.6301 173.672 37.2497 180.547 41.4255 183.093C45.6014 185.64 48.0033 175.327 48.6823 169.853C49.3613 175.327 51.7632 185.64 55.939 183.093C60.1149 180.547 60.0979 169.853 60.6496 166.034" stroke="#6C4916" stroke-width="2.54623" stroke-linecap="round"/>
<path d="M19.4004 160.432C19.4004 147.917 29.5463 137.771 42.0618 137.771C54.5774 137.771 64.7233 147.917 64.7233 160.432V161.304C64.7233 167.08 60.0406 171.763 54.2642 171.763H29.8595C24.0831 171.763 19.4004 167.08 19.4004 161.304V160.432Z" fill="#C77336"/>
<path d="M89.9989 118C89.9989 118.472 91.1227 118.924 93.123 119.257C95.1234 119.591 97.8365 119.778 100.665 119.778C103.494 119.778 106.207 119.591 108.208 119.257C110.208 118.924 111.332 118.472 111.332 118" stroke="#391F0C" stroke-width="5.33329" stroke-linecap="round"/>
<circle cx="71" cy="102" r="11" fill="#D0854F"/>
<circle cx="129" cy="102" r="11" fill="#D0854F"/>
<path d="M86.4443 93.1111C86.4443 91.2251 85.7888 89.4164 84.6219 88.0828C83.455 86.7492 81.8724 86 80.2222 86C78.572 86 76.9893 86.7492 75.8224 88.0828C74.6555 89.4164 74 91.2251 74 93.1111" stroke="black" stroke-width="5.33329" stroke-linecap="round"/>
<path d="M123.78 93.1111C123.78 91.2251 123.125 89.4164 121.958 88.0828C120.791 86.7492 119.208 86 117.558 86C115.908 86 114.325 86.7492 113.158 88.0828C111.991 89.4164 111.336 91.2251 111.336 93.1111" stroke="black" stroke-width="5.33329" stroke-linecap="round"/>
<path d="M80.4958 46.6792C83.0179 30.9688 97.7984 20.2775 113.509 22.7996L122.043 24.1696C137.753 26.6917 148.444 41.4721 145.922 57.1826L144.781 64.2942L79.3542 53.7908L80.4958 46.6792Z" fill="#FEEB02"/>
<rect x="81.0723" y="43.7959" width="66.0084" height="5.97061" rx="0.960351" transform="rotate(9.12026 81.0723 43.7959)" fill="#2F383E"/>
<path d="M117.016 28.2256L114.123 46.2416" stroke="#FFD900" stroke-width="2.88105" stroke-linecap="round"/>
<path d="M132.678 33.6577L130.699 45.9845" stroke="#FFD900" stroke-width="2.88105" stroke-linecap="round"/>
<path d="M100.439 28.4824L98.4606 40.8092" stroke="#FFD900" stroke-width="2.88105" stroke-linecap="round"/>
<rect x="76.9492" y="47.5684" width="72.9867" height="11.044" rx="2.40088" transform="rotate(9.12026 76.9492 47.5684)" fill="#FFE120"/>
<circle cx="113.437" cy="50.5084" r="7.20264" transform="rotate(9.12026 113.437 50.5084)" fill="white" stroke="#2F383E" stroke-width="2.88105"/>
</svg>
