<svg width="200" height="201" viewBox="0 0 200 201" fill="none" xmlns="http://www.w3.org/2000/svg">
<path d="M101.753 51.3304C48.6737 52.7321 41.9452 123.637 41.9453 157.278H160.392C168.102 64.1797 131.073 50.5561 101.753 51.3304Z" fill="#B56830"/>
<path d="M144.699 183.094C140.523 180.548 139.903 172.272 139.352 168.453L176.527 166.034C175.975 169.854 175.992 180.548 171.816 183.094C167.64 185.64 165.238 175.328 164.559 169.854C163.88 175.328 161.478 185.64 157.302 183.094C153.127 180.548 152.507 173.673 151.955 169.854C151.276 175.328 148.874 185.64 144.699 183.094Z" fill="#FFF7F1"/>
<path d="M139.352 168.453C139.903 172.272 140.523 180.548 144.699 183.094C148.874 185.64 151.276 175.328 151.955 169.854C152.507 173.673 153.127 180.548 157.302 183.094C161.478 185.64 163.88 175.328 164.559 169.854C165.238 175.328 167.64 185.64 171.816 183.094C175.992 180.548 175.975 169.854 176.527 166.034" stroke="#6C4916" stroke-width="2.54623" stroke-linecap="round"/>
<path d="M135.277 160.432C135.277 147.917 145.423 137.771 157.939 137.771C170.454 137.771 180.6 147.917 180.6 160.432V161.304C180.6 167.08 175.918 171.763 170.141 171.763H145.736C139.96 171.763 135.277 167.08 135.277 161.304V160.432Z" fill="#B56830"/>
<path d="M28.8217 183.094C24.6459 180.548 24.0263 172.272 23.4746 168.453L60.6496 166.034C60.0979 169.854 60.1149 180.548 55.939 183.094C51.7632 185.64 49.3613 175.328 48.6823 169.854C48.0033 175.328 45.6014 185.64 41.4255 183.094C37.2497 180.548 36.6301 173.673 36.0785 169.854C35.3995 175.328 32.9975 185.64 28.8217 183.094Z" fill="#FFF7F1"/>
<path d="M23.4746 168.453C24.0263 172.272 24.6459 180.548 28.8217 183.094C32.9975 185.64 35.3995 175.328 36.0785 169.854C36.6301 173.673 37.2497 180.548 41.4255 183.094C45.6014 185.64 48.0033 175.328 48.6823 169.854C49.3613 175.328 51.7632 185.64 55.939 183.094C60.1149 180.548 60.0979 169.854 60.6496 166.034" stroke="#6C4916" stroke-width="2.54623" stroke-linecap="round"/>
<path d="M19.4004 160.432C19.4004 147.917 29.5463 137.771 42.0618 137.771C54.5774 137.771 64.7233 147.917 64.7233 160.432V161.304C64.7233 167.08 60.0406 171.763 54.2642 171.763H29.8595C24.0831 171.763 19.4004 167.08 19.4004 161.304V160.432Z" fill="#B56830"/>
<path d="M90.8355 120.898C90.8355 121.376 91.9746 121.834 94.0022 122.172C96.0298 122.51 98.7798 122.7 101.647 122.7C104.515 122.7 107.265 122.51 109.292 122.172C111.32 121.834 112.459 121.376 112.459 120.898" stroke="#391F0C" stroke-width="5.40588" stroke-linecap="round"/>
<path d="M97.7871 95.5913H104.995" stroke="black" stroke-width="5.40588" stroke-linecap="round"/>
<path d="M95.984 87.1235C97.9744 87.1235 99.6174 88.7472 99.3024 90.7125C98.5965 95.116 96.603 99.2145 93.5562 102.414C89.6941 106.469 84.456 108.747 78.9942 108.747C73.5324 108.747 68.2943 106.469 64.4322 102.414C61.3853 99.2145 59.3918 95.116 58.6859 90.7125C58.3709 88.7472 60.0139 87.1235 62.0043 87.1235L78.9942 87.1235H95.984Z" fill="black"/>
<path d="M141.289 87.1235C143.279 87.1235 144.922 88.7472 144.607 90.7125C143.901 95.116 141.908 99.2145 138.861 102.414C134.999 106.469 129.761 108.747 124.299 108.747C118.837 108.747 113.599 106.469 109.737 102.414C106.69 99.2145 104.696 95.116 103.991 90.7125C103.676 88.7472 105.319 87.1235 107.309 87.1235L124.299 87.1235H141.289Z" fill="black"/>
<ellipse cx="99.9" cy="102.8" rx="11.9" ry="8.7" fill="#391F0C"/>
<path d="M80.4978 46.6787C83.0199 30.9683 97.8003 20.277 113.511 22.7991L122.045 24.1691C137.755 26.6912 148.446 41.4716 145.924 57.1821L144.783 64.2937L79.3561 53.7903L80.4978 46.6787Z" fill="#FEEB02"/>
<rect x="81.0723" y="43.7954" width="66.0084" height="5.97061" rx="0.960351" transform="rotate(9.12026 81.0723 43.7954)" fill="#2F383E"/>
<path d="M117.016 28.2251L114.123 46.2411" stroke="#FFD900" stroke-width="2.88105" stroke-linecap="round"/>
<path d="M132.678 33.6577L130.699 45.9845" stroke="#FFD900" stroke-width="2.88105" stroke-linecap="round"/>
<path d="M100.439 28.4819L98.4606 40.8087" stroke="#FFD900" stroke-width="2.88105" stroke-linecap="round"/>
<rect x="76.9492" y="47.5684" width="72.9867" height="11.044" rx="2.40088" transform="rotate(9.12026 76.9492 47.5684)" fill="#FFE120"/>
<circle cx="113.437" cy="50.5084" r="7.20264" transform="rotate(9.12026 113.437 50.5084)" fill="white" stroke="#2F383E" stroke-width="2.88105"/>
</svg>
