<svg width="282" height="206" viewBox="0 0 282 206" fill="none" xmlns="http://www.w3.org/2000/svg">
<g clip-path="url(#clip0_884_3492)">
<rect y="0.1875" width="282" height="205.625" rx="14.6875" fill="#F3F3F3"/>
<g filter="url(#filter0_d_884_3492)">
<g clip-path="url(#clip1_884_3492)">
<rect x="43.3281" y="27.3594" width="195.773" height="246.75" rx="23.3063" fill="white"/>
<path d="M67.1317 132.471V133.393C67.1317 134.354 67.1317 135.407 66.8585 136.863H68.2811V137.888H64.1956V142.144H62.9211V137.888H58.9039V136.863H65.5726C65.8571 135.464 65.8685 134.417 65.8685 133.495H60.0078V132.471H67.1317ZM77.7351 131.845V142.132H76.5175V136.863H75.425V141.632H74.2301V132.027H75.425V135.817H76.5175V131.845H77.7351ZM73.2173 132.96V139.481H69.1773V132.96H73.2173ZM70.3609 133.962V138.479H72.0337V133.962H70.3609ZM89.5194 131.845V135.862H91.0443V136.92H89.5194V142.11H88.2562V131.845H89.5194ZM86.7996 132.915C86.7996 135.942 85.5478 138.593 82.1224 140.278L81.4054 139.299C83.909 138.053 85.2633 136.3 85.525 133.962H81.963V132.915H86.7996ZM99.7359 134.519V135.543H92.6348V132.027H93.898V134.519H99.7359ZM100.806 136.533V137.558H91.4171V136.533H100.806ZM96.0943 138.297C98.3134 138.309 99.6449 138.992 99.6563 140.198C99.6449 141.404 98.3134 142.087 96.0943 142.087C93.8525 142.087 92.5096 141.404 92.5096 140.198C92.5096 138.992 93.8525 138.309 96.0943 138.297ZM96.0943 139.287C94.5922 139.299 93.7842 139.583 93.7956 140.198C93.7842 140.79 94.5922 141.12 96.0943 141.12C97.5623 141.12 98.3817 140.79 98.3931 140.198C98.3817 139.583 97.5623 139.299 96.0943 139.287ZM109.381 132.698C109.381 133.996 110.826 135.304 113.022 135.589L112.522 136.613C110.775 136.351 109.386 135.492 108.721 134.326C108.044 135.492 106.661 136.351 104.931 136.613L104.43 135.589C106.604 135.304 108.049 133.996 108.049 132.698V132.175H109.381V132.698ZM113.398 137.501V138.548H109.312V142.132H108.061V138.548H104.021V137.501H113.398ZM123.535 133.313V134.36H122.09V135.475H123.535V136.533H122.09V138.07H120.826V131.856H122.09V133.313H123.535ZM119.062 132.482V135.441H115.637V136.522C117.384 136.511 118.579 136.448 119.984 136.215L120.121 137.228C118.584 137.501 117.253 137.569 115.216 137.558H114.374V134.485H117.822V133.484H114.362V132.482H119.062ZM118.732 138.263C120.849 138.275 122.181 138.992 122.192 140.209C122.181 141.416 120.849 142.11 118.732 142.11C116.57 142.11 115.25 141.416 115.25 140.209C115.25 138.992 116.57 138.275 118.732 138.263ZM118.732 139.253C117.299 139.253 116.479 139.595 116.491 140.209C116.479 140.824 117.299 141.154 118.732 141.154C120.155 141.154 120.94 140.824 120.94 140.209C120.94 139.595 120.155 139.253 118.732 139.253ZM132.488 131.845V142.144H131.214V131.845H132.488ZM126.946 132.596C128.494 132.596 129.62 134.007 129.632 136.226C129.62 138.468 128.494 139.868 126.946 139.868C125.387 139.868 124.26 138.468 124.26 136.226C124.26 134.007 125.387 132.596 126.946 132.596ZM126.946 133.734C126.07 133.734 125.478 134.656 125.478 136.226C125.478 137.808 126.07 138.73 126.946 138.73C127.811 138.73 128.403 137.808 128.403 136.226C128.403 134.656 127.811 133.734 126.946 133.734ZM145.149 131.845V142.132H143.885V136.898H141.712V135.862H143.885V131.845H145.149ZM141.757 132.937C141.746 135.976 140.665 138.525 137.126 140.278L136.466 139.287C139.129 137.984 140.272 136.243 140.483 133.939H136.944V132.937H141.757ZM149.823 132.562C151.45 132.55 152.645 133.586 152.657 135.043C152.645 136.511 151.45 137.535 149.823 137.535C148.207 137.535 147.001 136.511 147.001 135.043C147.001 133.586 148.207 132.55 149.823 132.562ZM149.823 133.654C148.924 133.654 148.253 134.189 148.253 135.043C148.253 135.908 148.924 136.431 149.823 136.431C150.734 136.431 151.416 135.908 151.416 135.043C151.416 134.189 150.734 133.654 149.823 133.654ZM155.058 131.845V142.144H153.795V131.845H155.058ZM146.534 138.957C148.389 138.957 150.961 138.935 153.18 138.616L153.283 139.538C150.973 139.982 148.503 139.993 146.694 139.993L146.534 138.957ZM161.425 137.865V138.969H162.78V137.865H163.952V141.131C165.158 140.625 165.716 139.583 165.716 138.605V137.785H166.979V138.605C166.979 139.674 167.525 140.71 168.8 141.142L168.151 142.087C167.246 141.763 166.66 141.137 166.341 140.357C165.994 141.114 165.408 141.74 164.555 142.087L163.952 141.188V142.007H160.242V137.865H161.425ZM161.425 141.04H162.78V139.913H161.425V141.04ZM161.949 132.266C163.275 132.266 164.322 133.006 164.589 134.121H166.444V131.845H167.707V137.296H166.444V135.168H164.589C164.339 136.312 163.28 137.068 161.949 137.068C160.367 137.068 159.229 136.078 159.229 134.656C159.229 133.245 160.367 132.266 161.949 132.266ZM161.949 133.313C161.061 133.313 160.435 133.836 160.435 134.656C160.435 135.487 161.061 136.033 161.949 136.033C162.814 136.033 163.428 135.487 163.44 134.656C163.428 133.836 162.814 133.313 161.949 133.313ZM171.858 132.596C173.252 132.596 174.282 133.757 174.464 135.634H176.421V131.845H177.673V142.144H176.421V136.659H174.475C174.339 138.644 173.292 139.868 171.858 139.868C170.31 139.868 169.218 138.468 169.218 136.226C169.218 134.007 170.31 132.596 171.858 132.596ZM171.858 133.734C171.005 133.734 170.424 134.656 170.436 136.226C170.424 137.808 171.005 138.73 171.858 138.73C172.712 138.73 173.281 137.808 173.292 136.226C173.281 134.656 172.712 133.734 171.858 133.734ZM188.402 139.845V140.881H179.002V139.845H181.176V137.239C180.356 136.772 179.861 136.038 179.867 135.122C179.856 133.484 181.471 132.403 183.679 132.403C185.898 132.403 187.514 133.484 187.514 135.122C187.514 136.021 187.036 136.744 186.24 137.216V139.845H188.402ZM183.679 133.404C182.143 133.404 181.096 134.053 181.107 135.122C181.096 136.181 182.143 136.841 183.679 136.841C185.216 136.841 186.274 136.181 186.274 135.122C186.274 134.053 185.216 133.404 183.679 133.404ZM182.427 139.845H184.954V137.694C184.561 137.785 184.134 137.831 183.679 137.831C183.235 137.831 182.814 137.785 182.427 137.706V139.845ZM191.073 132.88L190.948 138.696H189.662L189.526 132.88H191.073ZM190.311 141.211C189.822 141.211 189.423 140.812 189.423 140.323C189.423 139.845 189.822 139.447 190.311 139.447C190.778 139.447 191.187 139.845 191.187 140.323C191.187 140.812 190.778 141.211 190.311 141.211Z" fill="#222222"/>
<rect x="58.5625" y="153.277" width="50.3225" height="18.6613" rx="2.33063" fill="#E6072E"/>
<path d="M63.4782 165.607L67.839 158.188L72.2089 165.607H63.4782ZM67.839 164.752C68.1849 164.752 68.4581 164.479 68.4581 164.142C68.4581 163.796 68.1849 163.523 67.839 163.523C67.5021 163.523 67.229 163.796 67.229 164.142C67.229 164.479 67.5021 164.752 67.839 164.752ZM67.3929 162.831H68.2942L68.3488 160.664H67.3383L67.3929 162.831ZM79.9612 162.084V162.894H76.7019V163.686H79.0508V166.318H73.3426V163.686H75.7005V162.894H72.4595V162.084H79.9612ZM79.2693 158.433V159.244H78.1404V160.655H79.2238V161.474H73.1787V160.655H74.2621V159.244H73.1332V158.433H79.2693ZM74.344 164.469V165.498H78.0675V164.469H74.344ZM75.2726 160.655H77.1207V159.244H75.2726V160.655ZM83.4185 159.398C83.4094 160.282 84.0831 161.201 85.3395 161.565L84.8661 162.366C83.9329 162.093 83.2729 161.515 82.9087 160.791C82.5354 161.593 81.8435 162.248 80.8876 162.548L80.3869 161.756C81.6706 161.338 82.3989 160.336 82.3989 159.389V159.362H80.6691V158.543H85.121V159.362H83.4185V159.398ZM87.3151 158.188V162.403H86.3045V160.737H84.8934V159.927H86.3045V158.188H87.3151ZM87.3151 162.749V164.888H82.9087V165.535H87.5791V166.327H81.8982V164.133H86.3045V163.55H81.8891V162.749H87.3151ZM95.2425 158.197V162.858H94.2228V158.197H95.2425ZM95.2425 163.259V166.318H89.7801V163.259H95.2425ZM90.7815 164.06V165.498H94.2501V164.06H90.7815ZM90.7542 158.588C92.0197 158.588 92.9665 159.389 92.9665 160.555C92.9665 161.684 92.0197 162.503 90.7542 162.503C89.4796 162.503 88.5328 161.684 88.5328 160.555C88.5328 159.389 89.4796 158.588 90.7542 158.588ZM90.7542 159.444C90.035 159.444 89.516 159.872 89.5252 160.555C89.516 161.219 90.035 161.647 90.7542 161.647C91.4643 161.647 91.9741 161.219 91.9741 160.555C91.9741 159.872 91.4643 159.444 90.7542 159.444ZM102.842 158.188V160.245H103.989V161.074H102.842V163.14H101.832V158.188H102.842ZM102.842 163.523V166.418H101.832V164.333H97.3615V163.523H102.842ZM97.6347 158.707V159.872H99.5556V158.707H100.557V162.658H96.6332V158.707H97.6347ZM97.6347 161.857H99.5556V160.664H97.6347V161.857Z" fill="white"/>
<rect x="58.2598" y="189.504" width="166.64" height="30.2982" rx="4.66126" fill="#393939"/>
<path d="M125.469 200.734V201.472C125.469 202.241 125.469 203.083 125.25 204.248H126.388V205.068H123.12V208.473H122.1V205.068H118.887V204.248H124.222C124.449 203.129 124.458 202.291 124.458 201.554H119.77V200.734H125.469ZM133.952 200.234V208.464H132.978V204.248H132.104V208.063H131.148V200.379H132.104V203.411H132.978V200.234H133.952ZM130.337 201.126V206.342H127.105V201.126H130.337ZM128.052 201.927V205.541H129.391V201.927H128.052ZM141.26 200.234V203.511H142.526V204.349H141.26V208.464H140.259V200.234H141.26ZM139.621 201.499V202.309H134.769V201.499H136.717V200.352H137.728V201.499H139.621ZM137.227 202.846C138.41 202.846 139.294 203.648 139.294 204.786C139.294 205.924 138.41 206.716 137.227 206.716C136.025 206.716 135.142 205.924 135.151 204.786C135.142 203.648 136.025 202.846 137.227 202.846ZM137.227 203.675C136.581 203.675 136.116 204.112 136.116 204.786C136.116 205.459 136.581 205.887 137.227 205.878C137.855 205.887 138.319 205.459 138.329 204.786C138.319 204.112 137.855 203.675 137.227 203.675ZM149.652 200.234V208.464H148.632V200.234H149.652ZM147.194 201.108C147.194 203.557 146.247 205.641 143.361 207.007L142.833 206.197C144.986 205.172 145.987 203.78 146.165 201.909H143.252V201.108H147.194Z" fill="white"/>
<path d="M156.969 207.54L159.7 204.536L156.969 201.531" stroke="white" stroke-width="0.728323" stroke-linecap="round"/>
<path d="M64.5515 78.3871V80.3536H65.7806V80.9454H64.5515V82.8663H63.8414V78.3871H64.5515ZM64.5515 83.2851V85.0786H60.1088V85.8707H64.852V86.4169H59.4078V84.5506H63.8414V83.8222H59.3895V83.2851H64.5515ZM63.0676 79.1519V79.7254H58.2424V79.1519H60.2999V78.3325H61.0101V79.1519H63.0676ZM60.655 80.0896C61.8294 80.0896 62.5942 80.5994 62.6033 81.4188C62.5942 82.2381 61.8294 82.748 60.655 82.748C59.4715 82.748 58.6976 82.2381 58.7067 81.4188C58.6976 80.5994 59.4715 80.0896 60.655 80.0896ZM60.655 80.6176C59.8903 80.6176 59.3804 80.9363 59.3895 81.4188C59.3804 81.9104 59.8903 82.2108 60.655 82.2108C61.4197 82.2108 61.9205 81.9104 61.9296 81.4188C61.9205 80.9363 61.4197 80.6176 60.655 80.6176ZM72.8704 78.4236V84.3412H72.1603V78.4236H72.8704ZM73.1253 85.7341V86.335H67.6447V83.7403H68.3548V85.7341H73.1253ZM68.5005 78.988C69.7113 78.988 70.6217 79.8074 70.6217 80.9727C70.6217 82.1562 69.7113 82.9665 68.5005 82.9665C67.2897 82.9665 66.3793 82.1562 66.3793 80.9727C66.3793 79.8074 67.2897 78.988 68.5005 78.988ZM68.5005 79.6162C67.6811 79.6162 67.0712 80.1806 67.0803 80.9727C67.0712 81.7829 67.6811 82.3383 68.5005 82.3383C69.3017 82.3383 69.9207 81.7829 69.9207 80.9727C69.9207 80.1806 69.3017 79.6162 68.5005 79.6162ZM80.4155 78.4144V81.7101H81.7265V82.311H80.4155V86.5079H79.7054V78.4144H80.4155ZM78.3216 79.2884C78.3216 81.5827 77.2473 83.6675 74.6071 84.9694L74.2065 84.4049C76.3005 83.3625 77.4385 81.8057 77.6023 79.8893H74.5798V79.2884H78.3216Z" fill="#3D3D3D"/>
<path d="M94.2624 87.2705L94.2498 85.906L97.5045 82.9142C98.3558 82.1006 98.8064 81.5998 98.8064 80.8863C98.8064 80.0852 98.193 79.5844 97.3668 79.5844C96.5156 79.5844 95.9648 80.1227 95.9648 80.9865H94.1747C94.1622 79.2089 95.4766 78.0823 97.3919 78.0823C99.3322 78.0823 100.622 79.1839 100.622 80.7611C100.622 81.7876 100.121 82.6388 98.2556 84.3288L96.8786 85.6682V85.7183H100.747V87.2705H94.2624ZM105.263 78.0823C107.14 78.0948 108.918 79.2089 108.918 82.5011C108.93 85.5806 107.466 87.3957 105.188 87.3957C103.36 87.3957 102.121 86.2565 101.933 84.7168H103.786C103.936 85.3803 104.462 85.7809 105.188 85.7809C106.427 85.7809 107.078 84.6793 107.078 82.8642H107.003C106.577 83.6653 105.688 84.141 104.674 84.141C103.047 84.141 101.845 82.9142 101.833 81.2243C101.833 79.3967 103.21 78.0697 105.263 78.0823ZM105.275 79.5594C104.349 79.5594 103.66 80.2729 103.673 81.1742C103.673 82.063 104.336 82.764 105.263 82.764C106.177 82.764 106.89 82.038 106.89 81.1617C106.878 80.298 106.202 79.5594 105.275 79.5594ZM111.719 86.3442L110.642 89.9118H109.316L109.941 86.3442H111.719ZM116.273 87.3957C114.207 87.3957 112.717 86.3066 112.717 84.8295C112.717 83.6903 113.594 82.764 114.72 82.5888V82.5262C113.744 82.3384 113.068 81.5122 113.068 80.5233C113.068 79.1087 114.42 78.0823 116.273 78.0823C118.125 78.0823 119.477 79.1087 119.49 80.5233C119.477 81.5247 118.789 82.3384 117.837 82.5262V82.5888C118.939 82.764 119.828 83.6903 119.828 84.8295C119.828 86.3066 118.338 87.3957 116.273 87.3957ZM116.273 85.9561C117.224 85.9561 117.862 85.4178 117.862 84.6417C117.862 83.8531 117.199 83.2773 116.273 83.2773C115.346 83.2773 114.67 83.8531 114.683 84.6417C114.67 85.4178 115.309 85.9561 116.273 85.9561ZM116.273 81.9503C117.074 81.9503 117.65 81.4371 117.65 80.7111C117.65 80.01 117.086 79.5093 116.273 79.5093C115.459 79.5093 114.908 79.9975 114.908 80.7111C114.908 81.4371 115.471 81.9503 116.273 81.9503ZM124.506 87.3957C122.241 87.3957 120.864 85.7058 120.864 82.739C120.864 79.7722 122.241 78.0823 124.506 78.0823C126.772 78.0823 128.149 79.7847 128.149 82.739C128.149 85.7183 126.772 87.3957 124.506 87.3957ZM124.506 85.8435C125.558 85.8435 126.234 84.8295 126.221 82.739C126.221 80.6735 125.558 79.622 124.506 79.622C123.455 79.622 122.791 80.6735 122.791 82.739C122.779 84.8295 123.455 85.8435 124.506 85.8435ZM132.84 87.3957C130.575 87.3957 129.198 85.7058 129.198 82.739C129.198 79.7722 130.575 78.0823 132.84 78.0823C135.106 78.0823 136.483 79.7847 136.483 82.739C136.483 85.7183 135.106 87.3957 132.84 87.3957ZM132.84 85.8435C133.892 85.8435 134.568 84.8295 134.555 82.739C134.555 80.6735 133.892 79.622 132.84 79.622C131.789 79.622 131.125 80.6735 131.125 82.739C131.113 84.8295 131.789 85.8435 132.84 85.8435ZM146.933 77.0433V85.6432H145.33V84.7419H143.152V83.6528H145.33V77.0433H146.933ZM147.183 86.945V88.2219H138.696V84.817H140.286V83.3023C139.265 83.3461 138.295 83.3524 137.432 83.3524L137.244 82.088C139.334 82.0755 142.151 82.0505 144.554 81.7501L144.642 82.8892C143.741 83.0394 142.808 83.1458 141.888 83.2147V85.3803H140.286V86.945H147.183ZM140.949 77.4313C142.602 77.4188 143.791 78.2575 143.791 79.4718C143.791 80.686 142.602 81.4747 140.949 81.4747C139.259 81.4747 138.083 80.686 138.083 79.4718C138.083 78.2575 139.247 77.4188 140.949 77.4313ZM140.949 78.5955C140.135 78.5955 139.585 78.9085 139.597 79.4718C139.585 80.0226 140.135 80.323 140.949 80.323C141.713 80.323 142.264 80.0226 142.276 79.4718C142.264 78.9085 141.713 78.5955 140.949 78.5955Z" fill="black"/>
<path d="M59.0436 99.0072V100.736H60.581V99.0072H61.1626V103.643H58.4461V99.0072H59.0436ZM59.0436 103.126H60.581V101.246H59.0436V103.126ZM64.2534 98.3301V105.412H63.648V101.66H62.6602V105.053H62.0627V98.4814H62.6602V101.142H63.648V98.3301H64.2534ZM68.6806 100.807V101.851H71.6041V102.361H65.1516V101.851H68.0672V100.807H68.6806ZM68.6885 98.7761C68.6885 99.7161 69.9631 100.505 71.2138 100.68L70.9589 101.182C69.8834 100.995 68.82 100.425 68.3779 99.6046C67.9318 100.429 66.8643 100.995 65.7809 101.182L65.542 100.68C66.7926 100.505 68.0592 99.7161 68.0592 98.7761V98.4416H68.6885V98.7761ZM68.3779 102.95C69.8994 102.95 70.8075 103.388 70.8155 104.177C70.8075 104.966 69.8994 105.396 68.3779 105.396C66.8404 105.396 65.9323 104.966 65.9323 104.177C65.9323 103.388 66.8404 102.95 68.3779 102.95ZM68.3779 103.444C67.2308 103.444 66.5616 103.707 66.5696 104.177C66.5616 104.639 67.2308 104.91 68.3779 104.91C69.509 104.91 70.1862 104.639 70.1862 104.177C70.1862 103.707 69.509 103.444 68.3779 103.444ZM77.9591 98.3301V105.428H77.3298V98.3301H77.9591ZM73.1556 98.9355V100.807H75.2666V98.9355H75.88V103.715H72.5342V98.9355H73.1556ZM73.1556 103.189H75.2666V101.309H73.1556V103.189Z" fill="#3D3D3D"/>
<path d="M93.082 104.846C91.9349 104.846 91.1144 104.233 91.0746 103.317H91.7995C91.8393 103.866 92.389 104.209 93.0741 104.209C93.8308 104.209 94.3885 103.795 94.3885 103.197C94.3885 102.568 93.8866 102.122 92.9864 102.122H92.5164V101.493H92.9864C93.6874 101.493 94.1734 101.102 94.1734 100.505C94.1734 99.9312 93.7512 99.5409 93.098 99.5409C92.4846 99.5409 91.919 99.8834 91.8871 100.449H91.1941C91.2339 99.5329 92.0783 98.9195 93.1059 98.9195C94.2052 98.9195 94.8744 99.6365 94.8664 100.465C94.8744 101.118 94.492 101.604 93.8866 101.771V101.811C94.6354 101.931 95.0974 102.464 95.0895 103.197C95.0974 104.145 94.2291 104.846 93.082 104.846ZM96.7684 104.233L96.147 106.4H95.5575L95.9957 104.233H96.7684ZM99.5625 104.846C98.28 104.846 97.5471 103.771 97.5471 101.883C97.5471 100.011 98.2959 98.9195 99.5625 98.9195C100.829 98.9195 101.578 100.011 101.578 101.883C101.578 103.771 100.837 104.846 99.5625 104.846ZM99.5625 104.209C100.391 104.209 100.877 103.373 100.877 101.883C100.877 100.393 100.391 99.5409 99.5625 99.5409C98.7341 99.5409 98.2402 100.393 98.2402 101.883C98.2402 103.373 98.7261 104.209 99.5625 104.209ZM104.34 104.846C103.058 104.846 102.325 103.771 102.325 101.883C102.325 100.011 103.074 98.9195 104.34 98.9195C105.607 98.9195 106.356 100.011 106.356 101.883C106.356 103.771 105.615 104.846 104.34 104.846ZM104.34 104.209C105.169 104.209 105.655 103.373 105.655 101.883C105.655 100.393 105.169 99.5409 104.34 99.5409C103.512 99.5409 103.018 100.393 103.018 101.883C103.018 103.373 103.504 104.209 104.34 104.209ZM109.118 104.846C107.835 104.846 107.103 103.771 107.103 101.883C107.103 100.011 107.851 98.9195 109.118 98.9195C110.385 98.9195 111.133 100.011 111.133 101.883C111.133 103.771 110.393 104.846 109.118 104.846ZM109.118 104.209C109.946 104.209 110.432 103.373 110.432 101.883C110.432 100.393 109.946 99.5409 109.118 99.5409C108.289 99.5409 107.796 100.393 107.796 101.883C107.796 103.373 108.282 104.209 109.118 104.209ZM117.592 98.338V103.715H116.963V102.982H115.497V102.528H116.963V98.338H117.592ZM117.767 104.735V105.26H112.733V103.189H113.362V104.735H117.767ZM111.713 101.62C113.035 101.612 114.804 101.604 116.325 101.413L116.365 101.867C115.732 101.967 115.071 102.03 114.421 102.066V103.468H113.792V102.098C113.075 102.13 112.394 102.134 111.801 102.13L111.713 101.62ZM114.039 98.6248C115.075 98.6248 115.784 99.1187 115.792 99.8595C115.784 100.616 115.075 101.086 114.039 101.086C112.995 101.086 112.287 100.616 112.287 99.8595C112.287 99.1187 112.995 98.6248 114.039 98.6248ZM114.039 99.1028C113.346 99.0948 112.876 99.4055 112.884 99.8595C112.876 100.322 113.346 100.624 114.039 100.624C114.708 100.624 115.186 100.322 115.194 99.8595C115.186 99.4055 114.708 99.0948 114.039 99.1028ZM121.125 102.568C121.133 101.062 121.539 99.8117 122.272 98.7523H122.878C122.336 99.5409 121.834 101.15 121.834 102.568C121.834 103.986 122.336 105.603 122.878 106.392H122.272C121.539 105.324 121.133 104.074 121.125 102.568ZM125.68 98.9992V104.767H124.955V99.748H124.923L123.521 100.68V99.9551L124.955 98.9992H125.68ZM129.023 104.846C127.741 104.846 127.008 103.771 127.008 101.883C127.008 100.011 127.757 98.9195 129.023 98.9195C130.29 98.9195 131.039 100.011 131.039 101.883C131.039 103.771 130.298 104.846 129.023 104.846ZM129.023 104.209C129.852 104.209 130.338 103.373 130.338 101.883C130.338 100.393 129.852 99.5409 129.023 99.5409C128.195 99.5409 127.701 100.393 127.701 101.883C127.701 103.373 128.187 104.209 129.023 104.209ZM133.801 104.846C132.519 104.846 131.786 103.771 131.786 101.883C131.786 100.011 132.535 98.9195 133.801 98.9195C135.068 98.9195 135.817 100.011 135.817 101.883C135.817 103.771 135.076 104.846 133.801 104.846ZM133.801 104.209C134.63 104.209 135.116 103.373 135.116 101.883C135.116 100.393 134.63 99.5409 133.801 99.5409C132.973 99.5409 132.479 100.393 132.479 101.883C132.479 103.373 132.965 104.209 133.801 104.209ZM137.392 104.233L136.771 106.4H136.181L136.619 104.233H137.392ZM140.186 104.846C138.904 104.846 138.171 103.771 138.171 101.883C138.171 100.011 138.92 98.9195 140.186 98.9195C141.453 98.9195 142.202 100.011 142.202 101.883C142.202 103.771 141.461 104.846 140.186 104.846ZM140.186 104.209C141.015 104.209 141.5 103.373 141.5 101.883C141.5 100.393 141.015 99.5409 140.186 99.5409C139.358 99.5409 138.864 100.393 138.864 101.883C138.864 103.373 139.35 104.209 140.186 104.209ZM144.964 104.846C143.681 104.846 142.948 103.771 142.948 101.883C142.948 100.011 143.697 98.9195 144.964 98.9195C146.23 98.9195 146.979 100.011 146.979 101.883C146.979 103.771 146.238 104.846 144.964 104.846ZM144.964 104.209C145.792 104.209 146.278 103.373 146.278 101.883C146.278 100.393 145.792 99.5409 144.964 99.5409C144.135 99.5409 143.641 100.393 143.641 101.883C143.641 103.373 144.127 104.209 144.964 104.209ZM149.742 104.846C148.459 104.846 147.726 103.771 147.726 101.883C147.726 100.011 148.475 98.9195 149.742 98.9195C151.008 98.9195 151.757 100.011 151.757 101.883C151.757 103.771 151.016 104.846 149.742 104.846ZM149.742 104.209C150.57 104.209 151.056 103.373 151.056 101.883C151.056 100.393 150.57 99.5409 149.742 99.5409C148.913 99.5409 148.419 100.393 148.419 101.883C148.419 103.373 148.905 104.209 149.742 104.209ZM158.215 98.338V103.715H157.586V102.982H156.12V102.528H157.586V98.338H158.215ZM158.391 104.735V105.26H153.356V103.189H153.985V104.735H158.391ZM152.337 101.62C153.659 101.612 155.427 101.604 156.949 101.413L156.989 101.867C156.355 101.967 155.694 102.03 155.045 102.066V103.468H154.416V102.098C153.699 102.13 153.018 102.134 152.424 102.13L152.337 101.62ZM154.663 98.6248C155.698 98.6248 156.407 99.1187 156.415 99.8595C156.407 100.616 155.698 101.086 154.663 101.086C153.619 101.086 152.91 100.616 152.91 99.8595C152.91 99.1187 153.619 98.6248 154.663 98.6248ZM154.663 99.1028C153.97 99.0948 153.5 99.4055 153.508 99.8595C153.5 100.322 153.97 100.624 154.663 100.624C155.332 100.624 155.81 100.322 155.818 99.8595C155.81 99.4055 155.332 99.0948 154.663 99.1028ZM167.15 98.3301V105.428H166.52V98.3301H167.15ZM163.382 98.8797C164.433 98.8877 165.19 99.8436 165.19 101.349C165.19 102.855 164.433 103.811 163.382 103.811C162.322 103.811 161.573 102.855 161.573 101.349C161.573 99.8436 162.322 98.8877 163.382 98.8797ZM163.382 99.4373C162.673 99.4453 162.179 100.194 162.179 101.349C162.179 102.504 162.673 103.253 163.382 103.253C164.091 103.253 164.584 102.504 164.584 101.349C164.584 100.194 164.091 99.4453 163.382 99.4373ZM170.645 99.4772C170.645 100.441 171.378 101.325 172.405 101.676L172.063 102.17C171.278 101.883 170.661 101.297 170.35 100.561C170.047 101.393 169.418 102.05 168.589 102.369L168.255 101.867C169.314 101.469 170.023 100.521 170.031 99.4294V98.6965H170.645V99.4772ZM173.815 98.3301V100.178H174.883V100.704H173.815V102.64H173.194V98.3301H173.815ZM171.545 102.823C173.003 102.823 173.879 103.293 173.879 104.105C173.879 104.934 173.003 105.396 171.545 105.396C170.087 105.396 169.195 104.934 169.195 104.105C169.195 103.293 170.087 102.823 171.545 102.823ZM171.545 103.325C170.477 103.325 169.816 103.619 169.824 104.105C169.816 104.607 170.477 104.894 171.545 104.902C172.62 104.894 173.273 104.607 173.273 104.105C173.273 103.619 172.62 103.325 171.545 103.325ZM183.689 102.448V102.966H180.734V105.412H180.12V102.966H177.205V102.448H183.689ZM182.845 98.7284V101.485H178.041V98.7284H182.845ZM178.655 99.2382V100.991H182.223V99.2382H178.655ZM190.666 104.01V104.536H184.181V104.01H186.005V102.664H184.994V100.481H189.232V99.3736H184.978V98.8558H189.845V100.999H185.615V102.146H190.012V102.664H188.905V104.01H190.666ZM186.619 104.01H188.292V102.664H186.619V104.01ZM192.918 102.568C192.91 104.074 192.504 105.324 191.771 106.392H191.165C191.707 105.603 192.209 103.986 192.209 102.568C192.209 101.15 191.707 99.5409 191.165 98.7523H191.771C192.504 99.8117 192.91 101.062 192.918 102.568Z" fill="#3D3D3D"/>
<line x1="57.8965" y1="117.261" x2="224.537" y2="117.261" stroke="#E7E7E7" stroke-width="0.582658"/>
<rect x="54.9805" y="45.3032" width="169.553" height="18.6451" fill="#EEEEEE"/>
<g clip-path="url(#clip2_884_3492)">
<rect width="195.773" height="24.5369" transform="translate(43.3281 27.3594)" fill="white"/>
<path d="M64.7778 37.8288C66.0085 37.8375 67.2219 38.5655 67.2306 40.8623C67.2306 43.029 66.2512 44.2771 64.7085 44.2771C63.4951 44.2771 62.663 43.5231 62.5244 42.483H63.6424C63.7551 42.977 64.1364 43.2977 64.7085 43.2977C65.6185 43.2977 66.1299 42.4917 66.1385 41.1483H66.0692C65.7485 41.6943 65.1505 42.015 64.4571 42.015C63.3391 42.015 62.4724 41.1656 62.4637 39.9782C62.4637 38.7475 63.3824 37.8202 64.7778 37.8288ZM64.7865 38.7389C64.0844 38.7389 63.5558 39.2849 63.5644 39.9522C63.5644 40.6283 64.0671 41.157 64.7691 41.157C65.4625 41.157 66.0085 40.5936 65.9999 39.9436C65.9999 39.3022 65.4885 38.7389 64.7865 38.7389ZM68.647 43.4104C68.2743 43.4104 67.9709 43.107 67.9709 42.7344C67.9709 42.3704 68.2743 42.067 68.647 42.067C69.0023 42.067 69.3143 42.3704 69.3143 42.7344C69.3143 43.107 69.0023 43.4104 68.647 43.4104ZM68.647 40.0476C68.2743 40.0476 67.9709 39.7442 67.9709 39.3716C67.9709 39.0075 68.2743 38.7042 68.647 38.7042C69.0023 38.7042 69.3143 39.0075 69.3143 39.3716C69.3143 39.7442 69.0023 40.0476 68.647 40.0476ZM70.046 43.0204V42.119L72.7588 37.9155H74.1629V42.093H74.9863V43.0204H74.1629V44.1904H73.0882V43.0204H70.046ZM71.1988 42.093H73.1055V39.1982H73.0362L71.1988 42.0497V42.093ZM78.1361 37.9155V44.1904H77.0007V39.0162H76.966L75.5013 39.9522V38.9209L77.0527 37.9155H78.1361Z" fill="black"/>
<path opacity="0.35" d="M214.158 37.5391H223.033C224.042 37.5391 224.86 38.3572 224.86 39.3662V41.9766C224.86 42.9857 224.042 43.8037 223.033 43.8037H214.158C213.149 43.8035 212.331 42.9856 212.331 41.9766V39.3662C212.331 38.3573 213.149 37.5393 214.158 37.5391Z" stroke="black" stroke-width="0.522062"/>
<path opacity="0.4" d="M225.645 39.8887V42.092C226.088 41.9053 226.376 41.4713 226.376 40.9903C226.376 40.5094 226.088 40.0753 225.645 39.8887Z" fill="black"/>
<path d="M213.115 39.3669C213.115 38.7902 213.583 38.3228 214.159 38.3228H223.034C223.611 38.3228 224.079 38.7902 224.079 39.3669V41.9772C224.079 42.5538 223.611 43.0213 223.034 43.0213H214.159C213.583 43.0213 213.115 42.5538 213.115 41.9772V39.3669Z" fill="black"/>
<path d="M202.733 42.4568C203.475 41.8168 204.561 41.8168 205.302 42.4568C205.339 42.4912 205.36 42.5403 205.361 42.5915C205.362 42.6427 205.342 42.6924 205.307 42.7283L204.146 43.9236C204.112 43.9587 204.066 43.9782 204.018 43.9783C203.969 43.9783 203.923 43.9587 203.889 43.9236L202.728 42.7283C202.692 42.6924 202.672 42.6427 202.673 42.5915C202.674 42.5402 202.696 42.4912 202.733 42.4568ZM201.164 41.0261C202.761 39.5098 205.234 39.5098 206.831 41.0261C206.867 41.0617 206.888 41.1107 206.889 41.1619C206.889 41.2129 206.869 41.2624 206.834 41.2986L206.163 41.99C206.094 42.0606 205.982 42.0626 205.911 41.9939C205.387 41.5091 204.705 41.2399 203.997 41.24C203.29 41.2403 202.608 41.5095 202.084 41.9939C202.013 42.0624 201.901 42.0605 201.832 41.99L201.162 41.2986C201.127 41.2624 201.107 41.2129 201.107 41.1619C201.108 41.1107 201.128 41.0617 201.164 41.0261ZM199.597 39.5974C202.046 37.2013 205.911 37.2013 208.36 39.5974C208.396 39.6329 208.416 39.6815 208.416 39.7322C208.416 39.7829 208.396 39.8319 208.361 39.8679L207.689 40.5603C207.62 40.631 207.508 40.6321 207.438 40.5622C206.504 39.6567 205.266 39.1512 203.979 39.1511C202.691 39.1511 201.452 39.6566 200.519 40.5622C200.448 40.632 200.336 40.6313 200.267 40.5603L199.595 39.8679C199.56 39.8319 199.541 39.7829 199.541 39.7322C199.541 39.6815 199.561 39.6329 199.597 39.5974Z" fill="black"/>
<path d="M191.187 39.367C191.187 39.0786 191.421 38.8449 191.709 38.8449H192.232C192.52 38.8449 192.754 39.0786 192.754 39.367V43.5435C192.754 43.8318 192.52 44.0655 192.232 44.0655H191.709C191.421 44.0655 191.187 43.8318 191.187 43.5435V39.367Z" fill="black"/>
<path d="M193.798 38.3228C193.798 38.0345 194.031 37.8008 194.32 37.8008H194.842C195.13 37.8008 195.364 38.0345 195.364 38.3228V43.5435C195.364 43.8318 195.13 44.0655 194.842 44.0655H194.32C194.031 44.0655 193.798 43.8318 193.798 43.5435V38.3228Z" fill="black"/>
<path d="M188.577 41.1942C188.577 40.9059 188.811 40.6721 189.099 40.6721H189.621C189.91 40.6721 190.143 40.9059 190.143 41.1942V43.5435C190.143 43.8318 189.91 44.0655 189.621 44.0655H189.099C188.811 44.0655 188.577 43.8318 188.577 43.5435V41.1942Z" fill="black"/>
<path d="M185.967 42.4993C185.967 42.211 186.201 41.9773 186.489 41.9773H187.011C187.299 41.9773 187.533 42.211 187.533 42.4993V43.5435C187.533 43.8318 187.299 44.0655 187.011 44.0655H186.489C186.201 44.0655 185.967 43.8318 185.967 43.5435V42.4993Z" fill="black"/>
</g>
</g>
<rect x="41.7012" y="25.7325" width="199.027" height="250.004" rx="24.9332" stroke="#464646" stroke-width="3.25385"/>
</g>
</g>
<defs>
<filter id="filter0_d_884_3492" x="31.1148" y="15.1461" width="220.2" height="271.177" filterUnits="userSpaceOnUse" color-interpolation-filters="sRGB">
<feFlood flood-opacity="0" result="BackgroundImageFix"/>
<feColorMatrix in="SourceAlpha" type="matrix" values="0 0 0 0 0 0 0 0 0 0 0 0 0 0 0 0 0 0 127 0" result="hardAlpha"/>
<feOffset/>
<feGaussianBlur stdDeviation="4.47969"/>
<feComposite in2="hardAlpha" operator="out"/>
<feColorMatrix type="matrix" values="0 0 0 0 0 0 0 0 0 0 0 0 0 0 0 0 0 0 0.25 0"/>
<feBlend mode="normal" in2="BackgroundImageFix" result="effect1_dropShadow_884_3492"/>
<feBlend mode="normal" in="SourceGraphic" in2="effect1_dropShadow_884_3492" result="shape"/>
</filter>
<clipPath id="clip0_884_3492">
<rect y="0.1875" width="282" height="205.625" rx="14.6875" fill="white"/>
</clipPath>
<clipPath id="clip1_884_3492">
<rect x="43.3281" y="27.3594" width="195.773" height="246.75" rx="23.3063" fill="white"/>
</clipPath>
<clipPath id="clip2_884_3492">
<rect width="195.773" height="24.5369" fill="white" transform="translate(43.3281 27.3594)"/>
</clipPath>
</defs>
</svg>
