<svg width="200" height="201" viewBox="0 0 200 201" fill="none" xmlns="http://www.w3.org/2000/svg">
<path d="M101.753 51.3304C48.6737 52.7321 41.9452 123.637 41.9453 157.278H160.392C168.102 64.1797 131.073 50.5561 101.753 51.3304Z" fill="#B56830"/>
<path d="M144.699 183.094C140.523 180.548 139.903 172.272 139.352 168.453L176.527 166.034C175.975 169.854 175.992 180.548 171.816 183.094C167.64 185.64 165.238 175.328 164.559 169.854C163.88 175.328 161.478 185.64 157.302 183.094C153.127 180.548 152.507 173.673 151.955 169.854C151.276 175.328 148.874 185.64 144.699 183.094Z" fill="#FFF7F1"/>
<path d="M139.352 168.453C139.903 172.272 140.523 180.548 144.699 183.094C148.874 185.64 151.276 175.328 151.955 169.854C152.507 173.673 153.127 180.548 157.302 183.094C161.478 185.64 163.88 175.328 164.559 169.854C165.238 175.328 167.64 185.64 171.816 183.094C175.992 180.548 175.975 169.854 176.527 166.034" stroke="#6C4916" stroke-width="2.54623" stroke-linecap="round"/>
<path d="M135.277 160.432C135.277 147.917 145.423 137.771 157.939 137.771C170.454 137.771 180.6 147.917 180.6 160.432V161.304C180.6 167.08 175.918 171.763 170.141 171.763H145.736C139.96 171.763 135.277 167.08 135.277 161.304V160.432Z" fill="#B56830"/>
<path d="M28.8217 183.094C24.6459 180.548 24.0263 172.272 23.4746 168.453L60.6496 166.034C60.0979 169.854 60.1149 180.548 55.939 183.094C51.7632 185.64 49.3613 175.328 48.6823 169.854C48.0033 175.328 45.6014 185.64 41.4255 183.094C37.2497 180.548 36.6301 173.673 36.0785 169.854C35.3995 175.328 32.9975 185.64 28.8217 183.094Z" fill="#FFF7F1"/>
<path d="M23.4746 168.453C24.0263 172.272 24.6459 180.548 28.8217 183.094C32.9975 185.64 35.3995 175.328 36.0785 169.854C36.6301 173.673 37.2497 180.548 41.4255 183.094C45.6014 185.64 48.0033 175.328 48.6823 169.854C49.3613 175.328 51.7632 185.64 55.939 183.094C60.1149 180.548 60.0979 169.854 60.6496 166.034" stroke="#6C4916" stroke-width="2.54623" stroke-linecap="round"/>
<path d="M19.4004 160.432C19.4004 147.917 29.5463 137.771 42.0618 137.771C54.5774 137.771 64.7233 147.917 64.7233 160.432V161.304C64.7233 167.08 60.0406 171.763 54.2642 171.763H29.8595C24.0831 171.763 19.4004 167.08 19.4004 161.304V160.432Z" fill="#B56830"/>
<path d="M80.4978 46.6792C83.0199 30.9688 97.8003 20.2775 113.511 22.7996L122.045 24.1696C137.755 26.6917 148.446 41.4721 145.924 57.1826L144.783 64.2942L79.3561 53.7908L80.4978 46.6792Z" fill="#FEEB02"/>
<rect x="81.0723" y="43.7959" width="66.0084" height="5.97061" rx="0.960351" transform="rotate(9.12026 81.0723 43.7959)" fill="#2F383E"/>
<path d="M117.016 28.2256L114.123 46.2416" stroke="#FFD900" stroke-width="2.88105" stroke-linecap="round"/>
<path d="M132.678 33.6582L130.699 45.9849" stroke="#FFD900" stroke-width="2.88105" stroke-linecap="round"/>
<path d="M100.439 28.4824L98.4606 40.8092" stroke="#FFD900" stroke-width="2.88105" stroke-linecap="round"/>
<rect x="76.9492" y="47.5688" width="72.9867" height="11.044" rx="2.40088" transform="rotate(9.12026 76.9492 47.5688)" fill="#FFE120"/>
<circle cx="113.437" cy="50.5089" r="7.20264" transform="rotate(9.12026 113.437 50.5089)" fill="white" stroke="#2F383E" stroke-width="2.88105"/>
<circle cx="81.2294" cy="92.3285" r="16.5857" stroke="black" stroke-width="3.68571"/>
<circle cx="121.772" cy="92.3285" r="16.5857" stroke="black" stroke-width="3.68571"/>
<path d="M99.6562 92.3286H103.342" stroke="black" stroke-width="5.52857" stroke-linecap="round"/>
<path d="M101.499 122.735C98.2215 122.735 95.1878 121.966 92.9717 120.714L92.54 120.457C91.8076 119.999 91.2334 119.523 90.791 119.05L112.207 119.05C111.85 119.432 111.408 119.816 110.865 120.19L110.459 120.457C108.214 121.86 104.995 122.735 101.499 122.735Z" stroke="#FF8854" stroke-width="5.52857" stroke-linecap="round"/>
<circle cx="82.1492" cy="91.407" r="6.45" fill="black"/>
<circle cx="120.85" cy="91.407" r="6.45" fill="black"/>
<path d="M94.1289 116.286H108.872V127.343C108.872 129.378 107.222 131.029 105.186 131.029H97.8146C95.7791 131.029 94.1289 129.378 94.1289 127.343V116.286Z" fill="white"/>
<ellipse cx="99.9" cy="102.4" rx="11.9" ry="8.7" fill="#391F0C"/>
</svg>
