<svg width="70" height="70" viewBox="0 0 70 70" fill="none" xmlns="http://www.w3.org/2000/svg">
<circle cx="35" cy="35" r="35" fill="#6C4916"/>
<circle cx="35" cy="34.9995" r="30.625" fill="white"/>
<path d="M38.1431 35.0015L43.2403 29.907C43.4468 29.7005 43.6106 29.4554 43.7223 29.1857C43.8341 28.9159 43.8916 28.6268 43.8916 28.3348C43.8916 28.0428 43.8341 27.7537 43.7223 27.4839C43.6106 27.2141 43.4468 26.969 43.2403 26.7626C43.0339 26.5561 42.7888 26.3923 42.519 26.2806C42.2492 26.1688 41.9601 26.1113 41.6681 26.1113C41.3761 26.1113 41.087 26.1688 40.8172 26.2806C40.5475 26.3923 40.3024 26.5561 40.0959 26.7626L35.0015 31.8598L29.907 26.7626C29.49 26.3456 28.9245 26.1113 28.3348 26.1113C27.7451 26.1113 27.1795 26.3456 26.7626 26.7626C26.3456 27.1795 26.1113 27.7451 26.1113 28.3348C26.1113 28.9245 26.3456 29.49 26.7626 29.907L31.8598 35.0015L26.7626 40.0959C26.3456 40.5129 26.1113 41.0784 26.1113 41.6681C26.1113 42.2578 26.3456 42.8234 26.7626 43.2403C27.1795 43.6573 27.7451 43.8916 28.3348 43.8916C28.9245 43.8916 29.49 43.6573 29.907 43.2403L35.0015 38.1431L40.0959 43.2403C40.3024 43.4468 40.5475 43.6106 40.8172 43.7223C41.087 43.8341 41.3761 43.8916 41.6681 43.8916C41.9601 43.8916 42.2492 43.8341 42.519 43.7223C42.7888 43.6106 43.0339 43.4468 43.2403 43.2403C43.4468 43.0339 43.6106 42.7888 43.7223 42.519C43.8341 42.2492 43.8916 41.9601 43.8916 41.6681C43.8916 41.3761 43.8341 41.087 43.7223 40.8172C43.6106 40.5475 43.4468 40.3024 43.2403 40.0959L38.1431 35.0015Z" fill="#FF3E2C"/>
</svg>
